<?xml version="1.0" encoding="UTF-8"?><svg id="Layer_1" xmlns="http://www.w3.org/2000/svg" viewBox="0 0 85.03937 67.13875"><defs><style>.cls-1{fill:#fff;}.cls-2{fill:#d8283d;}</style></defs><path class="cls-1" d="M25.5186,6.64553v6.78851h5.84262l35.19867-5.88739V0L25.5186,6.64553ZM41.9713,10.09321l-7.69654,1.24053c-.08959.0138-.18091-.0138-.24811-.0758l-4.23507-3.88877c-.18264-.16885-.09132-.47209.15506-.51172l7.69654-1.24058c.08959-.01376.18091.0138.24811.07584l4.23334,3.88877c.18264.16885.09132.47205-.15334.51172ZM52.91564,8.51148l-7.69653,1.23885c-.0896.01548-.18091-.01207-.24811-.07412l-4.23335-3.89045c-.18264-.16712-.09131-.47209.15335-.51172l7.69653-1.23885c.0896-.01548.18091.01207.24811.07408l4.23508,3.89049c.18264.16712.09131.47209-.15507.51172ZM63.7635,6.84193l-7.69653,1.24053c-.0896.0138-.18092-.01376-.24811-.07408l-4.23335-3.89049c-.18264-.16885-.09132-.47209.15335-.51172l7.69653-1.24053c.0896-.0138.18091.0138.24811.0758l4.23508,3.88877c.18264.16885.09131.47382-.15507.51172Z"/><path class="cls-2" d="M28.28568,14.76766c1.77918,0,2.96509,1.18622,2.96509,3.55865v20.56089c0,2.37243-1.18592,3.55865-2.96509,3.55865h-2.76794V14.76766h2.76794ZM29.86711,18.32631c0-1.58172-.59326-2.17468-1.58142-2.17468h-1.38427v24.91025h1.38427c.98817,0,1.58142-.59296,1.58142-2.17468v-20.56089Z"/><path class="cls-2" d="M33.82096,39.28241V14.76766h1.38427v24.51474c0,1.58202.59266,2.17498,1.58142,2.17498.98817,0,1.58142-.59296,1.58142-2.17498V14.76766h1.38427v24.51474c0,2.37243-1.18651,3.55895-2.96569,3.55895s-2.96569-1.18651-2.96569-3.55895Z"/><path class="cls-2" d="M46.07863,21.68721c1.38367,0,2.17468.79101,2.17468,3.16344v14.03655c0,2.37243-1.18651,3.55865-2.96569,3.55865h-2.76794V14.76766h2.57019c1.77918,0,2.96569,1.18622,2.96569,3.55865,0,2.29351-.87023,3.16314-1.97693,3.16314v.19775ZM46.67129,18.32631c0-1.58172-.59266-2.17468-1.58142-2.17468h-1.18592v4.74457h1.18592c.98876,0,1.58142-.59266,1.58142-2.17468v-.39521ZM46.86905,24.45515c0-1.58172-.3955-2.17468-1.58142-2.17468h-1.38367v18.78141h1.38367c.98876,0,1.58142-.59296,1.58142-2.17468v-14.43205Z"/><path class="cls-2" d="M52.20717,41.06188h3.55835v1.38397h-4.94202V14.76766h1.38367v26.29422Z"/><path class="cls-2" d="M57.14979,42.44585V14.76766h1.38367v27.67819h-1.38367Z"/><path class="cls-2" d="M60.78736,39.28241v-3.95386h1.38367v3.95386c0,1.58202.59326,2.17498,1.58142,2.17498.98876,0,1.58202-.59296,1.58202-1.97723,0-2.56989-4.62633-18.97917-4.62633-21.74681,0-2.13537,1.22583-3.36119,2.92578-3.36119,1.70055,0,2.92638,1.22583,2.92638,3.55895v3.55835h-1.38427v-3.55835c0-1.54211-.63257-2.17498-1.54211-2.17498s-1.54211.63287-1.54211,1.97723c0,2.57019,4.62633,18.97917,4.62633,21.74681,0,2.17468-1.18592,3.36119-2.96569,3.36119-1.77918,0-2.96509-1.18651-2.96509-3.55895Z"/><path class="cls-1" d="M.76887,64.00385c1.50122-1.72526,4.90702-3.96589,8.33522-5.64643l.85143-.40327.04481-.08962,1.14276-1.70294.06721-.11202-.08962.04481c-.40335.24653-.82911.51537-1.27718.76181-.58258.31374-1.18757.60499-1.70294.78422-.44808.13451-1.03066.26893-1.38912,0-.04489-.04481-.0897-.08962-.1121-.13442-.15683-.20163-.22404-.42567-.22404-.64979,0-.62739.53778-1.2771,1.25478-1.70286.53778-.29125,1.18749-.51537,1.92689-.51537.58258,0,1.18757.13442,1.79256.44816l.0224.0224.04481-.0224c.31365-.20163.53778-.38095.6722-.47056.29125-.22404.6722.13442.49297.44816-.04481.04481-.58258.96345-1.43401,2.26304l-.06721.08962.0224-.0224c1.3444-.56018,3.40571-1.3892,4.52607-1.65805.17923-.04481.35846.04481.40327.22404.04489.20163-.06721.38095-.24644.42576-1.09787.26885-3.11446,1.07547-4.43646,1.63565l-.98585.44816-.17931.26885-1.52363,2.08381c-2.15102,2.82321-4.90702,5.89287-7.14765,6.29622-.64979.11202-1.25478-.24653-1.47882-.87392-.20163-.62731,0-1.43401.6946-2.24063ZM8.16296,60.41882c.26893-.35846.53778-.6946.7843-1.05306l.20163-.29133-.76181.40335c-3.00245,1.56843-5.82566,3.47301-7.10284,4.97423-.62739.6946-.6722,1.25478-.58258,1.56843.11202.31374.40335.49297.73941.42576,1.90458-.33614,4.50367-3.09214,6.7219-6.02738ZM7.93892,56.99071c.44816-.15691,1.00834-.42576,1.59084-.73941l.82911-.47056.38086-.24653-.08962-.04481c-.35854-.11202-.71701-.17923-1.05315-.17923-.6049,0-1.14268.17923-1.59084.42576-.6722.40327-.96345.91864-.89624,1.25478l.06721.11202s.04481.0224.17923.0224c.15691,0,.33614-.04481.58258-.13442Z"/><path class="cls-1" d="M15.01861,57.77492c-.17923-.20172-.24644-.40335-.24644-.62739,0-.24653.08962-.51537.26885-.73941.26893-.40335.7619-.78422,1.3444-1.07555.71701-.35846,1.63573-.60499,2.55437-.60499.49297,0,.98585.06721,1.47882.24653l.22404.08962h.0224l.53778-.38095.0224-.0224.04481-.0224c.04481-.04481.06721-.06721.08962-.06721v-.0224c.33614-.24644.73941.24644.42576.51537l-.06721.06721-.06721.04481-.0224.0224c-.22412.20163-.6722.60499-1.00834,1.03066-.24644.29133-.38086.53778-.38086.71701-.0224.0673,0,.0897,0,.1121.0224.0224.06721.06721.22404.11202.51537.13442,1.47882-.13442,2.55437-.62739,1.00825-.44816,1.90449-1.00834,2.19582-1.20997.15683-.11202.35846-.08962.47048.06721.1121.13442.08962.35854-.06721.47056-.33606.24644-1.29959.82902-2.33025,1.29959-.98585.44808-2.21823.87383-3.00245.64979-.51537-.15691-.78422-.51537-.71701-.96353.0224-.13442.06721-.26885.11202-.40327l.0224-.04481-.51537.29125-.51529.26885c-.6946.35854-1.43401.6722-2.039.87392-.51537.15683-1.18757.31365-1.54603,0l-.0673-.06721ZM16.43021,57.19234c.56018-.17923,1.25478-.47056,1.92698-.82902.51537-.24653,1.03074-.53778,1.47882-.80662l.06721-.04489-.17923-.04481c-.24644-.04481-.51537-.06721-.78422-.06721-.80662,0-1.59084.22412-2.24063.53778-.53778.26885-.91864.58258-1.12036.87383-.08962.13442-.17923.31374-.11202.44816l.04481.04481c0,.0224.04481.04481.24653.04481.17923-.0224.40327-.06721.67211-.15683Z"/><path class="cls-1" d="M23.84638,57.43878c.0897-.15683.29133-.22404.44816-.15683.42576.22404,1.3668.35846,2.30784.35846.33614,0,.6722-.0224.94113-.06721l.20163-.04481-.15683-.04481c-.38095-.15683-.8067-.31365-1.18757-.49288-.38095-.20172-.76181-.42576-1.03066-.6946-.26893-.26893-.42576-.6722-.22412-1.07555.31374-.60499,1.23238-.87383,2.0614-1.00825.56018-.08962,1.18757-.1121,1.77015-.1121.33606,0,.67211,0,.96345.02249.35846.0224.42576.49288.11202.62731l-.38086.24653c-.13451.08962-.20172.17923-.24653.22404l-.0224.04481v.0224c-.0224.15683-.15683.26893-.31365.29133-.17931,0-.33614-.13451-.35854-.31374,0-.11202.0224-.17923.04481-.24644l.08962-.17923.0673-.0673h-.29133c-.44816.0224-.91864.04489-1.3444.1121-.40327.06721-.78422.15683-1.05306.26885-.29133.13442-.44816.24644-.49297.35846-.04481.0897-.04481.17931.11202.33614.15683.17923.44816.35846.82902.53778.73941.35846,1.63573.62739,2.08381.80662.17931.08962.24653.33606.13442.51537-.20163.26885-.6049.40327-.96345.47048-.38086.08962-.87383.13442-1.3444.13442-.94104,0-2.039-.13442-2.59909-.42567-.17931-.08962-.24653-.29133-.15691-.44816Z"/><path class="cls-1" d="M33.52566,53.62972c.73941-.94104,1.81496-2.17342,2.91283-3.36099-.08962.0224-.15683.0224-.22404.0224-2.0614.17923-1.77204.07046-3.83345.40652-.44808.04481-.51537-.51529-.08962-.60499,2.08381-.35846,1.79445-.24961,3.85585-.42892l.91864-.06721c1.27718-1.3668,1.49003-1.44928,2.22944-2.07667.31365-.35854.87383.04481.47048.47048-.71701.58258-.68333.4187-1.73639,1.53898,2.12861-.15683,1.16514-.11676,2.80087-.11676,2.06132-.0224,2.50542-.06394,3.04311.04807.17931.08962.26893.26885.22412.44816-.04481.17923-.24653.24644-.40335.22404-.35846-.11202-.39921-.09288-2.05726-.09288h-.80662c-1.77015,0-1.03081-.01767-3.42826.16157-1.23238,1.32199-2.46475,2.7336-3.33859,3.83147-2.39746,3.00253-3.3637,4.14848-4.28234,6.12027-.31374.51537-.80662.11202-.58258-.33614,1.43401-2.68871,2.87074-4.35011,4.32715-6.18739Z"/><path class="cls-1" d="M35.56912,54.39153c.11202-.15683.33606-.15683.47048-.04481s.15683.33606.04481.47056l-.73941.87383c1.00834-.51537,3.49541-1.59092,4.57096-1.3892.42567.08962.44808.51537.24644.76181-.31365.40327-1.05315.40327-.71701-.08962l.06721-.06721h-.08962c-1.72526.17923-3.98838,1.41161-5.26548,2.30784-.22412.15683-.47056.47056-1.09795,1.12027-.24644.29133-.71701,0-.56018-.33606.06721-.20163.47056-.78422,3.06974-3.60743Z"/><path class="cls-1" d="M40.36378,57.66282c-.04481-.33606.06721-.73941.24644-1.12027.40335-.78422,1.18757-1.65805,2.21823-2.12861.13442-.04481.26893-.0224.38095.04481l.0224.0224c.06721-.24644.22404-.33606.47056-.33606.06721,0,.13442.0224.22404.04481.42567.15683.62739.40327.64979.71701v.0224c.58258.26885,1.23229.35846,1.88209.35846.60499,0,1.23238-.08962,1.77015-.20163.17923-.04481.38086.04481.44808.20163.04481.17923-.04481.35854-.20163.40335-.71701.15683-1.3444.22404-1.92698.22404-.73941,0-1.38912-.11202-1.99411-.29125l-.0224.04481c-.1121.35846-.29133.73941-.53778,1.05306-.53778.6946-1.74775,1.83736-2.86802,1.70294-.49297-.0673-.73941-.38095-.76181-.7619ZM43.92641,55.35498c-.33614-.22404-.51537-.38086-.60499-.53769l-.04481.06721c-.04481.04481-.06721.04481-.11202.06721-.38095.15683-.94113.53769-1.45641,1.09787-.53778.60499-1.00834,1.63573-.53778,1.77015.64979.17923,1.70286-.73941,2.26304-1.45641.24644-.35854.44816-.73941.49297-1.00834Z"/><path class="cls-1" d="M48.92127,58.43559c-.38095.06721-1.48989.31084-1.75882-.02521v-.0224l.52771-.47863-.58258.62739c-.11202.15683-.22404.26885-.31365.33606-.0224,0-.04481.04481-.11202.06721-.0224,0-.17931.06721-.33614-.04481s-.15683-.26885-.15683-.29125c0-.06721.0224-.11202.0224-.13442.04481-.15691.20163-.44816.40327-.8067l.85151-1.43401c.6946-1.14268,1.61324-2.57669,2.59909-4.0331,1.90458-2.89043,2.36368-3.25004,3.30473-4.12396.13442-.11202.35854-.11202.47056.0224.13442.13451.13442.35854,0,.49297-.87383.78422-1.26573,1.03181-3.21511,3.96705-.96345,1.45641-1.88217,2.89043-2.57677,4.03319l.13451-.13442c.22404-.24653.49288-.47056.73941-.71701.53769-.47056,1.07547-.91864,1.54603-1.25478.42567-.29125.91864-.58258,1.32199-.49297.17923.0224.33606.13451.42567.31374l.04481.08962c.24653.6946-.47048,1.68045-1.20989,2.39746l-.59113.61798c1.23238-.17931,3.90723-1.447,5.18442-2.14161.15683-.08962.35854-.0224.44816.13442.08962.17931.0224.38095-.13451.47056-2.03891,1.07547-4.08951,2.14231-6.09333,2.31527M49.06789,57.64321l.30374-.16874c.31639-.16874.50397-.48272.94011-.90951.38567-.37741.78422-.78422,1.03066-1.16517.20163-.31365.29125-.53769.29125-.6722v-.08962h-.04481c-.11202.0224-.33606.11202-.73941.40335-.44808.29125-.96345.71701-1.45641,1.18749l-.76181.71701-1.02059.9716.04481.0224c.06721.06721.92566-.1165,1.19864-.19882l.21383-.09779Z"/><path class="cls-1" d="M54.18776,57.77492c-.17923-.20172-.24644-.40335-.24644-.62739,0-.24653.08962-.51537.26893-.73941.26885-.40335.76181-.78422,1.34431-1.07555.71701-.35846,1.63573-.60499,2.55437-.60499.49297,0,.98585.06721,1.47882.24653l.22404.08962h.0224l.53778-.38095.0224-.0224.04481-.0224c.04481-.04481.06721-.06721.08962-.06721v-.0224c.33614-.24644.73941.24644.42576.51537l-.06721.06721-.06721.04481-.0224.0224c-.22412.20163-.6722.60499-1.00834,1.03066-.24644.29133-.38086.53778-.38086.71701-.0224.0673,0,.0897,0,.1121.0224.0224.06721.06721.22404.11202.51537.13442,1.47882-.13442,2.55437-.62739,1.00825-.44816,1.90449-1.00834,2.19582-1.20997.15683-.11202.35846-.08962.47048.06721.11202.13442.08962.35854-.06721.47056-.33606.24644-1.29959.82902-2.33025,1.29959-.98585.44808-2.21823.87383-3.00245.64979-.51537-.15691-.78422-.51537-.71701-.96353.0224-.13442.06721-.26885.11202-.40327l.0224-.04481-.51537.29125-.51529.26885c-.6946.35854-1.43401.6722-2.039.87392-.51537.15683-1.18757.31365-1.54603,0l-.0673-.06721ZM55.59937,57.19234c.56018-.17923,1.25478-.47056,1.92698-.82902.51537-.24653,1.03074-.53778,1.47882-.80662l.06721-.04489-.17923-.04481c-.24644-.04481-.51537-.06721-.78422-.06721-.80662,0-1.59084.22412-2.24063.53778-.53778.26885-.91864.58258-1.12036.87383-.08962.13442-.17923.31374-.11202.44816l.04481.04481c0,.0224.04481.04481.24644.04481.17931-.0224.40335-.06721.6722-.15683Z"/><path class="cls-1" d="M65.27874,54.39153c.11202-.15683.33606-.15683.47048-.04481s.15683.33606.04481.47056l-.73941.87383c1.00834-.51537,3.49541-1.59092,4.57096-1.3892.42567.08962.44808.51537.24644.76181-.31365.40327-1.05315.40327-.71701-.08962l.06721-.06721h-.08962c-1.72526.17923-3.98838,1.41161-5.26548,2.30784-.22412.15683-.47056.47056-1.09795,1.12027-.24644.29133-.71701,0-.56018-.33606.06721-.20163.47056-.78422,3.06974-3.60743Z"/><path class="cls-1" d="M69.80447,57.77492c-.17923-.20172-.24644-.40335-.24644-.62739,0-.24653.08962-.51537.26885-.73941.26893-.40335.7619-.78422,1.3444-1.07555.71701-.35846,1.63573-.60499,2.55437-.60499.49297,0,.98585.06721,1.47882.24653l.22404.08962h.0224l.53778-.38095.0224-.0224.04481-.0224c.04481-.04481.06721-.06721.08962-.06721v-.0224c.33614-.24644.73941.24644.42576.51537l-.06721.06721-.06721.04481-.0224.0224c-.22412.20163-.6722.60499-1.00834,1.03066-.24644.29133-.38086.53778-.38086.71701-.0224.0673,0,.0897,0,.1121.0224.0224.06721.06721.22404.11202.51537.13442,1.47882-.13442,2.55437-.62739,1.00825-.44816,1.90449-1.00834,2.19582-1.20997.15683-.11202.35846-.08962.47048.06721.1121.13442.08962.35854-.06721.47056-.33606.24644-1.29959.82902-2.33025,1.29959-.98585.44808-2.21823.87383-3.00245.64979-.51537-.15691-.78422-.51537-.71701-.96353.0224-.13442.06721-.26885.11202-.40327l.0224-.04481-.51537.29125-.51529.26885c-.6946.35854-1.43401.6722-2.039.87392-.51537.15683-1.18757.31365-1.54603,0l-.0673-.06721ZM71.21608,57.19234c.56018-.17923,1.25478-.47056,1.92698-.82902.51537-.24653,1.03074-.53778,1.47882-.80662l.06721-.04489-.17923-.04481c-.24644-.04481-.51537-.06721-.78422-.06721-.80662,0-1.59084.22412-2.24063.53778-.53778.26885-.91864.58258-1.12036.87383-.08962.13442-.17923.31374-.11202.44816l.04481.04481c0,.0224.04481.04481.24653.04481.17923-.0224.40327-.06721.67211-.15683Z"/><path class="cls-1" d="M78.63224,57.43878c.0897-.15683.29133-.22404.44816-.15683.42576.22404,1.3668.35846,2.30784.35846.33614,0,.6722-.0224.94113-.06721l.20163-.04481-.15683-.04481c-.38095-.15683-.8067-.31365-1.18757-.49288-.38095-.20172-.76181-.42576-1.03066-.6946-.26893-.26893-.42576-.6722-.22412-1.07555.31374-.60499,1.23238-.87383,2.0614-1.00825.56018-.08962,1.18757-.1121,1.77015-.1121.33606,0,.67211,0,.96345.02249.35846.0224.42576.49288.11202.62731l-.38086.24653c-.13451.08962-.20172.17923-.24653.22404l-.0224.04481v.0224c-.0224.15683-.15683.26893-.31365.29133-.17931,0-.33614-.13451-.35854-.31374,0-.11202.0224-.17923.04481-.24644l.08962-.17923.0673-.0673h-.29133c-.44816.0224-.91864.04489-1.3444.1121-.40327.06721-.78422.15683-1.05306.26885-.29133.13442-.44816.24644-.49297.35846-.04481.0897-.04481.17931.11202.33614.15683.17923.44816.35846.82902.53778.73941.35846,1.63573.62739,2.08381.80662.17931.08962.24653.33606.13442.51537-.20163.26885-.6049.40327-.96345.47048-.38086.08962-.87383.13442-1.3444.13442-.94104,0-2.039-.13442-2.59909-.42567-.17931-.08962-.24653-.29133-.15691-.44816Z"/></svg>