<?xml version="1.0" encoding="UTF-8"?><svg id="Layer_1" xmlns="http://www.w3.org/2000/svg" viewBox="0 0 586.98217 136.86051"><defs><style>.cls-1{fill:#ff6f20;}</style></defs><path class="cls-1" d="M172.90334,15.41131v38.43871h-8.95165v-24.05222l-11.31324,13.83813h-1.75718l-11.42048-13.89175v24.10584h-8.95165V15.41131h8.07184l13.12404,16.36301,13.12404-16.36301h8.07427Z"/><path class="cls-1" d="M178.72082,40.28728c0-8.45691,5.76629-14.16714,14.88123-14.16714,9.17099,0,14.93728,5.71024,14.93728,14.16714s-5.76629,14.16714-14.93728,14.16714c-9.11494,0-14.88123-5.71024-14.88123-14.16714ZM199.97275,40.28728c0-3.95305-2.52489-6.86545-6.37071-6.86545-3.78733,0-6.31465,2.91239-6.31465,6.86545s2.52732,6.86301,6.31465,6.86301c3.84582,0,6.37071-2.90996,6.37071-6.86301Z"/><path class="cls-1" d="M243.3808,40.28728c0,8.34723-5.38122,14.11109-13.01437,14.11109-3.68009,0-6.75334-1.31606-9.00526-3.78733l-.54836,3.23897h-7.46986V15.41131h8.62263v13.89418c2.19587-2.03258,5.05221-3.13174,8.40085-3.13174,7.63315,0,13.01437,5.76629,13.01437,14.11353ZM234.81423,40.28728c0-4.06516-2.63456-6.86545-6.48038-6.86545-3.78733,0-6.42432,2.80028-6.42432,6.86545,0,4.06273,2.63699,6.86301,6.42432,6.86301,3.84582,0,6.48038-2.80028,6.48038-6.86301Z"/><path class="cls-1" d="M247.3826,19.36436c0-2.74423,2.08864-4.72076,5.05221-4.72076,2.96601,0,5.05221,1.97653,5.05221,4.72076,0,2.74667-2.0862,4.66958-5.05221,4.66958-2.96357,0-5.05221-1.92291-5.05221-4.66958ZM248.09668,26.72455h8.62263v27.12546h-8.62263v-27.12546Z"/><path class="cls-1" d="M263.02909,15.41131h8.62263v38.43871h-8.62263V15.41131Z"/><path class="cls-1" d="M306.50295,26.72455v27.12546h-7.46986l-.54836-3.23897c-2.25193,2.47127-5.32761,3.78733-9.00526,3.78733-7.63315,0-12.96076-5.76386-12.96076-14.11109s5.32761-14.11353,12.96076-14.11353c3.67766,0,6.80939,1.3185,9.00526,3.73371l.54836-3.18292h7.46986ZM297.98999,40.28728c0-4.06516-2.63456-6.86545-6.48038-6.86545-3.78733,0-6.42432,2.80028-6.42432,6.86545,0,4.06273,2.63699,6.86301,6.42432,6.86301,3.84582,0,6.48038-2.80028,6.48038-6.86301Z"/><path class="cls-1" d="M340.16728,26.72455v27.12546h-7.46742l-.5508-3.1293c-2.03014,2.3616-5.05221,3.73371-8.62019,3.73371-6.64367,0-10.92817-4.61352-10.92817-12.40996v-15.31992h8.62263v14.82517c0,3.51437,1.86686,5.60057,4.83043,5.60057,3.29502,0,5.4909-2.52489,5.4909-6.20498v-14.22076h8.62263Z"/><path class="cls-1" d="M344.52246,50.94006l3.29502-5.93202c2.63699,1.5939,6.37071,2.52732,9.7754,2.52732,2.30554,0,3.56799-.65803,3.56799-1.92291,0-1.26244-1.15277-1.92047-4.28207-2.13982-6.86545-.38507-11.25719-3.62404-11.25719-8.62263,0-5.38122,4.72319-8.83954,12.19062-8.83954,4.33812,0,8.34723,1.15277,11.03785,2.90996l-3.35108,5.76629c-2.03014-1.15521-4.50141-1.75718-7.30413-1.75718-2.74423,0-4.1724.60198-4.1724,1.97653,0,1.09672,1.0431,1.64751,3.73371,1.92047,7.63315.60441,11.91766,3.46075,11.91766,8.78592,0,5.54695-4.72319,8.95165-12.63174,8.95165-4.99615,0-9.22461-1.37211-12.51963-3.62404Z"/><path class="cls-1" d="M422.65744,31.11629v17.13315c-3.89944,4.1724-9.66329,6.48038-16.52874,6.48038-12.30029,0-20.26245-7.90855-20.26245-20.09916,0-11.91522,8.45691-20.15278,20.92292-20.15278,5.87353,0,10.65278,1.97653,14.65945,6.20498l-5.43484,5.38122c-2.41765-2.41521-5.82235-3.78733-9.28066-3.78733-7.41381,0-11.97127,4.72076-11.97127,12.35391,0,7.46742,4.61352,12.35634,11.5862,12.35634,3.57042,0,6.59005-.98948,8.67625-2.80028v-5.87596h-10.43343v-7.19446h18.06658Z"/><path class="cls-1" d="M457.4063,26.72455v27.12546h-7.46986l-.54836-3.23897c-2.25193,2.47127-5.32761,3.78733-9.00526,3.78733-7.63315,0-12.96076-5.76386-12.96076-14.11109s5.32761-14.11353,12.96076-14.11353c3.67766,0,6.80939,1.3185,9.00526,3.73371l.54836-3.18292h7.46986ZM448.89334,40.28728c0-4.06516-2.63456-6.86545-6.48038-6.86545-3.78733,0-6.42432,2.80028-6.42432,6.86545,0,4.06273,2.63699,6.86301,6.42432,6.86301,3.84582,0,6.48038-2.80028,6.48038-6.86301Z"/><path class="cls-1" d="M482.98174,52.80691c-2.30554,1.15277-4.61108,1.59146-7.19203,1.59146-5.54695,0-9.60968-2.74423-9.60968-10.5431v-10.26771h-4.61352v-6.86301h4.61352v-6.75578l8.56658-.93343v7.6892h6.75334v6.86301h-6.75334v10.26771c0,2.25193,1.20639,3.24141,3.07324,3.24141,1.04554,0,2.25193-.33145,3.13174-.77014l2.03014,6.48038Z"/><path class="cls-1" d="M513.60695,42.86822h-19.93344c.49474,2.74423,3.07568,4.66714,7.02874,4.66714,2.63699,0,5.38366-.82376,7.25052-2.30554l4.50141,4.83043c-3.07568,2.85634-7.41381,4.4478-12.19062,4.4478-9.5,0-15.37597-5.43484-15.37597-14.16714,0-8.45691,5.87596-14.22076,14.60827-14.22076,10.10442,0,15.70498,6.75334,14.11109,16.74808ZM493.72956,37.92569h11.97127c-.21934-3.1293-2.41765-4.99615-5.93202-4.99615-3.45831,0-5.71024,1.8108-6.03925,4.99615Z"/><path class="cls-1" d="M540.87864,28.81075l-3.62404,6.31465c-1.53784-.98948-2.74667-1.37211-4.22845-1.37211-3.56799,0-5.92958,2.30554-5.92958,6.91906v13.17766h-8.62263v-27.12546h7.52348l.65803,3.4047c1.86929-2.85634,4.45023-4.00911,7.25052-4.00911,2.41521,0,5.10583.87737,6.97268,2.69061Z"/><path class="cls-1" d="M543.14031,19.36436c0-2.74423,2.08864-4.72076,5.05221-4.72076,2.96601,0,5.05221,1.97653,5.05221,4.72076,0,2.74667-2.0862,4.66958-5.05221,4.66958-2.96357,0-5.05221-1.92291-5.05221-4.66958ZM543.8544,26.72455h8.62263v27.12546h-8.62263v-27.12546Z"/><path class="cls-1" d="M557.16366,40.28728c0-8.45691,5.76629-14.16714,14.88123-14.16714,9.17099,0,14.93728,5.71024,14.93728,14.16714s-5.76629,14.16714-14.93728,14.16714c-9.11494,0-14.88123-5.71024-14.88123-14.16714ZM578.4156,40.28728c0-3.95305-2.52489-6.86545-6.37071-6.86545-3.78733,0-6.31465,2.91239-6.31465,6.86545s2.52732,6.86301,6.31465,6.86301c3.84582,0,6.37071-2.90996,6.37071-6.86301Z"/><path class="cls-1" d="M163.62268,84.09746c0,8.45691-5.71268,13.78451-14.71794,13.78451h-9.39033v10.87212h-9.00526v-38.43871h18.3956c9.00526,0,14.71794,5.32761,14.71794,13.78207ZM154.67104,84.15352c0-3.57042-2.41521-5.87596-6.20498-5.87596h-9.00526v11.75193h9.00526c3.78977,0,6.20498-2.30554,6.20498-5.87596Z"/><path class="cls-1" d="M195.8954,81.62863v27.12546h-7.46986l-.54836-3.23897c-2.25193,2.47127-5.32761,3.78733-9.00526,3.78733-7.63315,0-12.96076-5.76386-12.96076-14.11109s5.32761-14.11353,12.96076-14.11353c3.67766,0,6.80939,1.3185,9.00526,3.73371l.54836-3.18292h7.46986ZM187.38244,95.19136c0-4.06516-2.63456-6.86545-6.48038-6.86545-3.78733,0-6.42432,2.80028-6.42432,6.86545,0,4.06273,2.63699,6.86301,6.42432,6.86301,3.84582,0,6.48038-2.80028,6.48038-6.86301Z"/><path class="cls-1" d="M200.27496,105.84414l3.29502-5.93202c2.63699,1.5939,6.37071,2.52732,9.7754,2.52732,2.30554,0,3.56799-.65803,3.56799-1.92291,0-1.26244-1.15277-1.92047-4.28207-2.13982-6.86545-.38507-11.25719-3.62404-11.25719-8.62263,0-5.38122,4.72319-8.83954,12.19062-8.83954,4.33812,0,8.34723,1.15277,11.03785,2.90996l-3.35108,5.76629c-2.03258-1.15521-4.50141-1.75718-7.3017-1.75718-2.74667,0-4.17484.60198-4.17484,1.97653,0,1.09672,1.0431,1.64751,3.73371,1.92047,7.63315.60441,11.91766,3.46075,11.91766,8.78592,0,5.54695-4.72319,8.95165-12.63174,8.95165-4.99615,0-9.22461-1.37211-12.51963-3.62404Z"/><path class="cls-1" d="M230.10322,70.31539h8.62263v38.43871h-8.62263v-38.43871Z"/><path class="cls-1" d="M273.57707,81.62863v27.12546h-7.46986l-.54836-3.23897c-2.25193,2.47127-5.32761,3.78733-9.00526,3.78733-7.63315,0-12.96076-5.76386-12.96076-14.11109s5.32761-14.11353,12.96076-14.11353c3.67766,0,6.80939,1.3185,9.00526,3.73371l.54836-3.18292h7.46986ZM265.06411,95.19136c0-4.06516-2.63456-6.86545-6.48038-6.86545-3.78733,0-6.42432,2.80028-6.42432,6.86545,0,4.06273,2.63699,6.86301,6.42432,6.86301,3.84582,0,6.48038-2.80028,6.48038-6.86301Z"/><path class="cls-1" d="M307.24384,81.62863v27.12546h-7.46742l-.5508-3.1293c-2.03014,2.3616-5.05221,3.73371-8.62019,3.73371-6.64367,0-10.92817-4.61352-10.92817-12.40996v-15.31992h8.62263v14.82517c0,3.51437,1.86686,5.60057,4.83043,5.60057,3.29502,0,5.4909-2.52489,5.4909-6.20498v-14.22076h8.62263Z"/><path class="cls-1" d="M341.79773,112.92649c0,6.91906-5.92958,11.42291-15.04452,11.42291-9.39033,0-15.2663-5.21793-14.49616-12.9047h8.29118c-.16573,3.62404,2.14225,5.65662,6.20498,5.65662,3.67766,0,6.14893-1.81324,6.14893-4.50385,0-2.74423-2.13982-4.33812-6.03925-4.33812-9.06132,0-14.93728-5.38122-14.93728-13.72846,0-7.96216,6.15136-13.61635,14.88123-13.61635,2.19831,0,4.28451.43869,6.15136,1.31606l3.18535-3.95305,6.31465,4.55747-3.62404,4.22845c1.86686,2.14225,2.74423,4.50385,2.74423,7.46742,0,4.06516-2.03014,7.57953-5.54451,9.7754,3.67766,1.64751,5.76386,4.72319,5.76386,8.62019ZM333.17754,94.53089c0-3.84338-2.52489-6.36827-6.37071-6.36827-3.84338,0-6.36827,2.52489-6.36827,6.36827,0,3.84582,2.58094,6.42676,6.36827,6.42676,3.84582,0,6.37071-2.58094,6.37071-6.42676Z"/><path class="cls-1" d="M345.3121,95.19136c0-8.45691,5.76629-14.16714,14.88123-14.16714,9.17099,0,14.93728,5.71024,14.93728,14.16714s-5.76629,14.16714-14.93728,14.16714c-9.11494,0-14.88123-5.71024-14.88123-14.16714ZM366.56403,95.19136c0-3.95305-2.52489-6.86545-6.37071-6.86545-3.78733,0-6.31465,2.91239-6.31465,6.86545s2.52732,6.86301,6.31465,6.86301c3.84582,0,6.37071-2.90996,6.37071-6.86301Z"/><path class="cls-1" d="M377.73348,105.84414l3.29502-5.93202c2.63699,1.5939,6.37071,2.52732,9.7754,2.52732,2.30554,0,3.56799-.65803,3.56799-1.92291,0-1.26244-1.15277-1.92047-4.28207-2.13982-6.86545-.38507-11.25719-3.62404-11.25719-8.62263,0-5.38122,4.72319-8.83954,12.19062-8.83954,4.33812,0,8.34723,1.15277,11.03785,2.90996l-3.35108,5.76629c-2.03258-1.15521-4.50141-1.75718-7.3017-1.75718-2.74667,0-4.17484.60198-4.17484,1.97653,0,1.09672,1.0431,1.64751,3.73371,1.92047,7.63315.60441,11.91766,3.46075,11.91766,8.78592,0,5.54695-4.72319,8.95165-12.63174,8.95165-4.99615,0-9.22461-1.37211-12.51963-3.62404Z"/><path class="cls-1" d="M44.89654.27418l-.47418-.27418L0,25.65464v51.3105l41.30281,23.83348-28.69986,16.59637-.9482.52399v18.94152l2.81993-1.62192,43.07477-24.88146.24966-.14988.94836-.52399v-15.34855l30.12239-17.36956V25.65464L44.89654.27418ZM74.39502,68.60451l-15.64756,9.03451v-17.76925l-16.42135-9.53291v34.36501l-27.87626-16.09737v-34.61421l29.97251-17.29461,29.97266,17.29461v34.61421Z"/></svg>