<?xml version="1.0" encoding="UTF-8"?><svg id="Layer_1" xmlns="http://www.w3.org/2000/svg" viewBox="0 0 740.34777 166.43622"><defs><style>.cls-1{fill:#493b3b;}</style></defs><path class="cls-1" d="M138.70325,39.81538V7.98864c0-4.20137-3.41533-7.61624-7.61659-7.61624H0v57.55298h4.33615c1.38075,0,2.55167.03841,3.68324.15351,22.98279,1.86094,40.99713,21.40966,40.99713,44.52687v1.26611h34.14773v42.53162h89.668v-4.35476c0-23.11709,18.05182-42.66593,41.11141-44.52687,1.05476-.0959,2.18728-.15351,3.56802-.15351h4.35488v-57.55298h-83.16331ZM8.78657,49.44595c-.03841,0-.07681-.0192-.11522-.0192V9.04376h120.15122c.6529,0,1.18965.53722,1.18965,1.18942v84.90985H57.16986c-3.45374-24.40253-23.55888-43.70195-48.38329-45.69708ZM213.17647,88.88892c-25.95598,2.09114-46.73276,22.9637-48.84322,48.82414h-64.57475l38.023-33.12878.90208-.72901.01967-1.22783v-54.1215h74.47322v40.38299Z"/><path class="cls-1" d="M302.04959,6.03632v23.36216h2.93198l35.51723-23.36216h16.20738l-40.17281,26.46463v2.8458l40.94842,28.44863h-16.81064l-35.00016-24.39632h-3.62142v24.39632h-12.24125V6.03632h12.24125Z"/><path class="cls-1" d="M405.73301,63.79538v-7.24096h-2.24067c-3.2767,4.65557-9.65586,7.9304-19.13936,7.9304h-2.06831c-14.65615,0-21.89711-7.24096-21.89711-20.86296v-23.53452h12.06889v21.81093c0,8.27699,4.65557,13.18923,15.43177,13.18923h1.98213c10.25912,0,15.86267-5.0846,15.86267-13.18923v-21.81093h12.06889v43.70804h-12.06889Z"/><path class="cls-1" d="M465.73649,19.3979c14.48192,0,25.94755,7.15478,25.94755,22.15565v.8618c0,15.17323-11.46563,22.06947-25.94755,22.06947h-2.58726c-9.39732,0-16.03503-2.93011-20.00116-8.27511h-2.06831v28.27627h-12.06889V20.08734h12.06889v7.67186h2.06831c4.31085-5.51737,11.03474-8.36129,20.00116-8.36129h2.58726ZM441.07975,41.55355v.8618c0,8.70789,7.84609,12.93069,18.01716,12.93069h2.50108c10.69002,0,18.01716-4.56752,18.01716-12.93069v-.8618c0-8.36317-7.32714-13.01687-18.01716-13.01687h-2.50108c-10.3453,0-18.01716,4.39516-18.01716,13.01687Z"/><path class="cls-1" d="M507.71157,1.46693c3.44906,0,6.37916,2.24067,6.37916,5.51737,0,3.361-2.93011,5.51737-6.37916,5.51737h-1.12033c-3.53524,0-6.29298-2.15636-6.29298-5.51737,0-3.2767,2.75775-5.51737,6.29298-5.51737h1.12033ZM513.14276,20.08734v43.70804h-12.06889V20.08734h12.06889Z"/><path class="cls-1" d="M551.62944,19.3979c15.60413,0,26.98358,4.22467,26.98358,14.65615v.94798h-12.06889v-.94798c0-5.17265-6.29486-7.32901-14.91469-7.32901h-2.58726c-8.96455,0-14.22338,1.72547-14.22338,5.60355,0,4.56939,5.17265,5.34501,18.87895,5.94827,19.05318.94985,26.03561,4.31085,26.03561,12.24312v.60326c0,8.79219-9.56968,13.36158-27.58684,13.36158h-2.58539c-18.10521,0-27.3283-4.56939-27.3283-14.48192v-1.03603h12.06889v.94798c0,4.91411,4.82793,7.24283,15.25941,7.24283h2.58539c11.03474,0,15.51795-1.72547,15.51795-5.86209,0-4.22467-5.34501-5.34501-19.91498-6.03445-16.81064-.68944-24.99958-3.53524-24.99958-12.15694v-.60326c0-9.22309,11.46563-13.10305,26.29227-13.10305h2.58726ZM545.25028,13.44964l-11.98271-12.93069h10.7762l7.24096,7.84422,7.32714-7.84422h10.25912l-12.15507,12.93069h-11.46563Z"/><path class="cls-1" d="M601.01784,0v37.32888h3.96613l24.74104-17.24154h15.51795l-27.24212,19.31172v3.10247l28.87953,21.29385h-16.37974l-25.51665-17.93098h-3.96613v17.93098h-12.06889V0h12.06889Z"/><path class="cls-1" d="M660.05461,1.46693c3.44906,0,6.37916,2.24067,6.37916,5.51737,0,3.361-2.93011,5.51737-6.37916,5.51737h-1.12033c-3.53524,0-6.29298-2.15636-6.29298-5.51737,0-3.2767,2.75775-5.51737,6.29298-5.51737h1.12033ZM665.4858,20.08734v43.70804h-12.06889V20.08734h12.06889Z"/><path class="cls-1" d="M707.26604,19.3979c17.4139,0,30.08605,7.4995,30.08605,22.15565v.8618c0,14.82851-12.67215,22.06947-30.08605,22.06947h-2.58726c-17.50008,0-30.08605-7.24096-30.08605-22.06947v-.8618c0-14.65615,12.58597-22.15565,30.08605-22.15565h2.58726ZM686.66163,41.55355v.8618c0,7.84609,6.12062,12.93069,18.01716,12.93069h2.58726c11.89653,0,18.01716-5.0846,18.01716-12.93069v-.8618c0-7.84422-6.12062-13.01687-18.01716-13.01687h-2.58726c-11.89653,0-18.01716,5.17265-18.01716,13.01687Z"/><path class="cls-1" d="M300.41967,104.59674v7.11918h1.82101c2.98069-4.88413,9.18937-7.78239,17.79983-7.78239h.82807c7.94726,0,13.32786,2.73339,16.39098,7.78239h2.48235c3.14743-4.88413,9.2718-7.78239,16.97176-7.78239h.82807c12.33492,0,19.61897,5.13331,19.61897,18.79277v23.84177h-11.58928v-22.51723c0-7.28405-4.30523-11.09281-12.91383-11.09281h-.82807c-8.114,0-13.08056,3.97363-13.08056,11.25768v22.35236h-11.58928v-22.51723c0-6.95432-4.30523-11.09281-12.83139-11.09281h-.82807c-8.11212,0-13.08056,4.05606-13.08056,11.09281v22.51723h-11.58928v-41.97134h11.58928Z"/><path class="cls-1" d="M430.55086,146.56807v-6.95432h-2.15262c-3.14556,4.4701-9.2718,7.61565-18.37874,7.61565h-1.98588c-14.0735,0-21.02782-6.95245-21.02782-20.03301v-22.59966h11.58928v20.94352c0,7.94726,4.4701,12.66653,14.81914,12.66653h1.90344c9.85258,0,15.23318-4.88413,15.23318-12.66653v-20.94352h11.58928v41.97134h-11.58928Z"/><path class="cls-1" d="M502.17359,104.59674v10.26474l-34.27138,21.19269v1.98775h34.93459v8.52616h-51.73961v-10.18231l34.27138-21.27512v-1.90532h-33.69247v-8.60859h50.4975Z"/><path class="cls-1" d="M518.05874,86.71353c3.31042,0,6.12437,2.15262,6.12437,5.29911,0,3.22986-2.81395,5.29817-6.12437,5.29817h-1.07724c-3.39473,0-6.04381-2.06831-6.04381-5.29817,0-3.14649,2.64909-5.29911,6.04381-5.29911h1.07724ZM523.27261,104.59674v41.97134h-11.58928v-41.97134h11.58928Z"/><path class="cls-1" d="M562.68478,103.93353c15.56291,0,28.0627,6.95432,28.0627,21.35943v2.56665h-47.84841c.41404,7.36648,6.62271,11.58928,17.30149,11.58928h2.48422c8.77346,0,14.8997-2.15262,16.96989-7.11918h10.59634c-1.82101,8.27886-10.43148,14.8997-27.56623,14.8997h-2.48422c-15.72965,0-28.14701-6.53841-28.14701-21.10838v-.82807c0-14.40511,12.33492-21.35943,28.14701-21.35943h2.48422ZM543.14637,121.23689h36.59073c-1.24211-6.04381-7.78052-9.52097-16.96989-9.52097h-2.56665c-9.76827,0-15.81208,3.39473-17.05419,9.52097Z"/><path class="cls-1" d="M610.93599,104.59674v45.4485c0,9.68584-4.8017,16.39098-18.29443,16.39098h-8.11212v-9.76827h6.78758c5.95951,0,8.02969-2.98069,8.02969-7.94726v-44.12395h11.58928ZM605.72213,86.71353c3.31042,0,6.12437,2.15262,6.12437,5.29911,0,3.22986-2.81395,5.29817-6.12437,5.29817h-1.07724c-3.39473,0-6.04381-2.06831-6.04381-5.29817,0-3.14649,2.64909-5.29911,6.04381-5.29911h1.07724Z"/><path class="cls-1" d="M664.52846,146.56807v-6.95432h-2.15262c-3.14556,4.4701-9.2718,7.61565-18.37874,7.61565h-1.98588c-14.0735,0-21.02782-6.95245-21.02782-20.03301v-22.59966h11.58928v20.94352c0,7.94726,4.4701,12.66653,14.81914,12.66653h1.90344c9.85258,0,15.23318-4.88413,15.23318-12.66653v-20.94352h11.58928v41.97134h-11.58928Z"/><path class="cls-1" d="M713.36044,103.93353c14.98401,0,25.91196,4.05793,25.91196,14.0735v.91051h-11.58928v-.91051c0-4.96657-6.04381-7.03675-14.32267-7.03675h-2.48235c-8.61047,0-13.65947,1.65615-13.65947,5.38248,0,4.38579,4.96657,5.13143,18.12956,5.71221,18.29443.91051,24.99958,4.13849,24.99958,11.75415v.5789c0,8.4456-9.18749,12.83139-26.49086,12.83139h-2.48235c-17.3858,0-26.24356-4.38579-26.24356-13.90676v-.99294h11.59116v.91051c0,4.71927,4.63496,6.95432,14.6524,6.95432h2.48235c10.59634,0,14.90158-1.65615,14.90158-5.62978,0-4.05606-5.13143-5.13331-19.1225-5.79464-16.14369-.66321-24.00851-3.39473-24.00851-11.67359v-.5789c0-8.85776,11.01038-12.58409,25.25062-12.58409h2.48235Z"/></svg>