<?xml version="1.0" encoding="UTF-8"?><svg id="Layer_1" xmlns="http://www.w3.org/2000/svg" viewBox="0 0 444.30432 246.22856"><defs><style>.cls-1{fill:#fff;}.cls-2{fill:#ffd100;}</style></defs><polygon class="cls-2" points="416.05017 119.34535 417.52127 128.39883 417.63739 129.11263 419.60343 141.214 419.77072 142.24783 418.7139 142.24783 405.30097 142.24783 404.05606 142.24783 404.07801 142.19923 419.74042 142.19923 416.03412 119.34386 416.05017 119.34535 416.05017 119.34535"/><path class="cls-1" d="M98.09291,101.92463h20.85255c-2.22796,15.28107-4.43836,30.56513-6.65676,45.84762h29.3343c-.90485,6.20602-1.8075,12.41277-2.70282,18.62013h-51.80037c3.1189-21.48914,6.23084-42.97954,9.35851-64.46774,0,0,1.61459,0,1.61459,0ZM114.76027,105.55982h-15.15357l-8.30281,57.19759h44.48606l1.64751-11.35045h-29.33251c2.21297-15.28326,4.43649-30.56466,6.65532-45.84714h0ZM155.52724,101.92463h20.87959c-3.13243,21.48678-6.2579,42.9764-9.35779,64.46774h-22.49417c3.10468-21.49095,6.23013-42.97986,9.35777-64.46774h1.61461-.00002ZM172.22125,105.55982h-15.18024l-8.3028,57.19759h15.18059l8.30244-57.19759h0ZM187.97573,101.92463h18.61986l15.91479,29.72651,4.31525-29.72651h21.37634c-3.12582,21.4882-6.23993,42.9786-9.35847,64.46774h-20.38969c-5.28293-9.82596-10.55887-19.6557-15.83813-29.48361-1.42645,9.82793-2.85698,19.65508-4.27902,29.48361h-21.33398c3.11882-21.48914,6.2308-42.97954,9.35851-64.46774h1.61459-.00003ZM204.38039,105.55982h-14.8909l-8.30244,57.19759h14.01971l4.70903-32.44308,2.95892-.67754,17.79205,33.12062h15.04762l8.30276-57.19759h-14.06235l-4.74631,32.69904-2.96217.67068-17.86591-33.36972h-.00003ZM258.60965,101.92463h52.40601l-2.41168,16.62253h-31.52795l-.87637,6.03904h29.24667c-.77258,5.34798-1.55029,10.6951-2.32877,16.04228h-29.24664l-1.21204,8.34734h32.44809c-.83875,5.80608-1.68289,11.61134-2.5278,17.41655h-54.94342c3.12585-21.48804,6.24036-42.97836,9.35892-64.46774,0,0,1.61499,0,1.61499,0ZM306.83231,105.55982h-46.7085l-8.30356,57.19759h47.63049l1.47324-10.14648h-32.44958l2.26703-15.61748h29.24783l1.27341-8.77222h-29.24667l1.93134-13.30911h31.52756l1.35742-9.3523h0ZM320.09363,101.92463h20.83536c-.9498,6.57437-1.90717,13.14748-2.86136,19.72098,6.59174-6.5735,13.18826-13.1426,19.77521-19.72098h26.43646l.92493,2.72523-24.94531,22.4492,15.59305,33.45923c10.18152-19.5444,20.37216-39.08447,30.54416-58.63367h23.02417c4.98196,21.48426,9.92838,42.97751,14.88403,64.46774h-23.53384l-1.53018-10.04265h-18.68341l-4.40436,10.04265h-44.89554c-2.8913-7.90387-5.79837-15.80225-8.69809-23.7032l-8.69293,7.89806-2.2944,15.80515h-22.45251c3.13275-21.48694,6.24905-42.97726,9.35852-64.46774h1.61606ZM336.74558,105.55982h-15.13815l-8.30316,57.19759h15.13815l1.94745-13.41695.45038-.8376c4.43433-4.03618,8.87598-8.06433,13.3143-12.09641l9.67157,26.35095h19.00116c-5.66751-12.16068-11.323-24.32794-17.00043-36.48391l23.01685-20.71368h-19.5813l-22.96939,22.90509-2.6937-1.22993,3.14624-21.67516h.00003ZM399.44419,152.71468h22.93259l1.53128,10.04272h15.81223l-13.20471-57.19759h-17.96381l-29.79605,57.19759h15.07059l4.40326-10.04272h1.21463ZM416.64121,139.55753l-2.24725-13.83052-6.2352,13.83052h8.48245ZM417.01859,119.16853c1.30118,8.00793,2.60529,16.0153,3.90137,24.02411h-18.34146l11.27667-25.01154,3.04144.23856.12198.74887h0Z"/><path class="cls-1" d="M308.85803,194.405l-24.17496,19.11098-218.82565.22902h-.03813c-9.44094,0-18.38572-4.08424-24.5694-11.20955-6.19642-7.1507-8.97017-16.60437-7.62147-25.95624L56.60735,17.20243,78.37754,0l-25.86724,179.30202c-.55984,3.91891.55984,7.73601,3.15552,10.72612,2.5956,2.99004,6.19642,4.63136,10.15346,4.63136h.01274l243.02602-.25449v-.00002Z"/><path class="cls-1" d="M267.70987,226.92677l-24.17497,19.1109-183.87392.19089h-.0636c-17.29142,0-33.70499-7.49426-45.02909-20.54875C3.23154,212.58717-1.85793,195.25755.61046,178.13145L19.59416,46.45413l21.77018-17.20243-21.85926,151.60264c-1.67953,11.64211,1.76861,23.42424,9.47915,32.31808,7.71054,8.88116,18.85649,13.97064,30.61315,13.97064h.03821l208.07431-.21628-.00003-.00002Z"/></svg>