<svg width="238" height="121" viewBox="0 0 238 121" fill="none" xmlns="http://www.w3.org/2000/svg">
<path d="M229.598 68.3091C234.238 68.3091 238 64.5475 238 59.9073C238 55.2672 234.238 51.5056 229.598 51.5056C224.958 51.5056 221.196 55.2672 221.196 59.9073C221.196 64.5475 224.958 68.3091 229.598 68.3091Z" fill="white"/>
<path d="M144.118 49.7157V50.7758H139.99V49.492C139.99 45.9775 138.65 43.9124 135.526 43.9124C132.401 43.9124 131.062 45.9774 131.062 49.4362C131.062 58.1966 144.174 59.0336 144.174 70.0262C144.174 75.9402 141.329 79.79 135.358 79.79C129.388 79.79 126.598 75.9402 126.598 70.0262V67.7939H130.671V70.2492C130.671 73.7645 132.122 75.8287 135.247 75.8287C138.371 75.8287 139.822 73.7645 139.822 70.2492C139.822 61.5446 126.765 60.7076 126.765 49.7157C126.765 43.6894 129.555 39.9512 135.414 39.9512C141.329 39.9512 144.118 43.8009 144.118 49.7157Z" fill="white"/>
<path d="M151.267 70.1934C151.267 73.7087 152.662 75.8287 155.843 75.8287C158.968 75.8287 160.363 73.7087 160.363 70.1934V40.3414H164.436V69.9697C164.436 75.8845 161.702 79.8458 155.676 79.8458C149.705 79.8458 146.971 75.8845 146.971 69.9697V40.3414H151.267V70.1934Z" fill="white"/>
<path d="M184.782 49.7157V50.7758H180.653V49.492C180.653 45.9775 179.314 43.9124 176.189 43.9124C173.064 43.9124 171.725 45.9774 171.725 49.4362C171.725 58.1966 184.838 59.0336 184.838 70.0262C184.838 75.9402 181.992 79.79 176.021 79.79C170.051 79.79 167.261 75.9402 167.261 70.0262V67.7939H171.335V70.2492C171.335 73.7645 172.785 75.8287 175.91 75.8287C179.034 75.8287 180.485 73.7645 180.485 70.2492C180.485 61.5446 167.428 60.7076 167.428 49.7157C167.428 43.6894 170.218 39.9512 176.077 39.9512C181.992 39.9512 184.782 43.8009 184.782 49.7157Z" fill="white"/>
<path d="M192.065 61.8234V79.3997H187.712V40.3414H192.065V57.9178H201.662V40.3414H206.014V79.3997H201.662V61.8234H192.065Z" fill="white"/>
<path d="M213.716 40.3414V79.3997H209.364V40.3414H213.716Z" fill="white"/>
<path d="M6.1378 40.3414V70.4722C6.1378 73.262 7.36544 74.2662 9.31821 74.2662C11.2713 74.2662 12.4986 73.262 12.4986 70.4722V40.3414H18.3015V70.0819C18.3015 76.3312 15.1769 79.9023 9.15095 79.9023C3.12465 79.9023 0 76.3312 0 70.0819V40.3414H6.1378Z" fill="white"/>
<path d="M33.6387 79.3997C33.6387 78.3275 33.6475 77.7815 33.6475 74.6015V68.4637C33.6475 64.8369 32.4202 63.4974 29.6305 63.4974H27.5101V79.3997H21.3723V40.3414H30.6347C36.9955 40.3414 39.7296 43.2992 39.7296 49.3247V52.394C39.7296 56.4111 38.4462 59.0336 35.7122 60.3173C38.7811 61.6004 39.7853 64.5574 39.7853 68.6309V74.6572C39.7853 76.5542 39.7869 77.7641 39.7869 79.3997H33.6387ZM27.5101 45.921V57.9178H29.9092C32.1969 57.9178 33.5918 56.9136 33.5918 53.7885V49.9387C33.5918 47.149 32.6432 45.921 30.4671 45.921H27.5101Z" fill="white"/>
<path d="M61.3417 49.3247V50.72C61.3417 54.737 60.1141 57.3038 57.3801 58.5876C60.6723 59.8706 61.9553 62.8276 61.9553 66.9569V70.1377C61.9553 76.1632 58.7749 79.3997 52.6375 79.3997H42.9844V40.3414H52.2469C58.6077 40.3414 61.3417 43.2992 61.3417 49.3247ZM49.1222 45.921V56.2438H51.5214C53.809 56.2438 55.2039 55.2395 55.2039 52.1145V49.9387C55.2039 47.149 54.2554 45.921 52.0793 45.921H49.1222ZM49.1222 61.8234V73.8202H52.6375C54.7018 73.8202 55.8179 72.8717 55.8179 69.9697V66.5666C55.8179 62.9399 54.646 61.8234 51.8562 61.8234L49.1222 61.8234Z" fill="white"/>
<path d="M84.8061 79.3997H78.6129L77.5526 72.3134H70.0199L68.9599 79.3997H63.3242L69.5735 40.3414H78.5568L84.8061 79.3997ZM70.8011 67.0126H76.7156L73.7585 47.2605L70.8011 67.0126Z" fill="white"/>
<path d="M92.6088 51.1103V79.3997H87.085V40.3414H94.7849L101.09 63.7204V40.3414H106.558V79.3997H100.253L92.6088 51.1103Z" fill="white"/>
<path d="M117.744 0.256029C118.575 0.672479 119.133 1.54205 119.109 2.52825L118.803 26.6632L114.513 24.5143L114.238 2.44535C114.223 1.07885 115.329 -0.0236078 116.691 0.000384299C117.069 0.00693152 117.427 0.0970511 117.744 0.256029Z" fill="white"/>
<path d="M114.558 28.221L118.757 30.324L118.744 31.1117L117.627 119.355C117.62 119.9 117.164 120.33 116.623 120.305C116.107 120.281 115.693 119.855 115.688 119.334L114.631 33.9796L114.622 33.2901L114.586 30.2624L114.558 28.221Z" fill="white"/>
<path d="M131.381 97.4491C130.424 97.4491 129.581 97.2348 128.855 96.8063C128.129 96.3778 127.563 95.7705 127.157 94.9845C126.751 94.1985 126.549 93.2693 126.549 92.1969C126.549 91.0924 126.759 90.146 127.181 89.3577C127.603 88.5694 128.174 87.9656 128.896 87.5462C129.618 87.1269 130.433 86.9172 131.34 86.9172C131.918 86.9172 132.457 87.0008 132.959 87.1681C133.461 87.3354 133.907 87.5749 134.296 87.8865C134.686 88.1982 135.006 88.566 135.255 88.9899C135.505 89.4138 135.664 89.8824 135.733 90.3957H133.595C133.526 90.1437 133.427 89.9191 133.296 89.722C133.165 89.525 133.006 89.3554 132.818 89.2133C132.63 89.0712 132.416 88.9635 132.175 88.8902C131.935 88.8169 131.668 88.7802 131.375 88.7802C130.838 88.7802 130.367 88.9131 129.962 89.1789C129.556 89.4448 129.241 89.8309 129.017 90.3373C128.792 90.8438 128.68 91.4567 128.68 92.1763C128.68 92.8958 128.791 93.5099 129.013 94.0187C129.235 94.5274 129.551 94.9158 129.958 95.1839C130.366 95.452 130.848 95.5861 131.402 95.5861C131.892 95.5861 132.316 95.4956 132.674 95.3145C133.031 95.1335 133.305 94.878 133.495 94.548C133.686 94.218 133.781 93.8307 133.781 93.3862L134.234 93.4481H131.56V91.8532H135.829V93.1387C135.829 94.0232 135.638 94.7875 135.255 95.4314C134.873 96.0753 134.347 96.5726 133.678 96.9232C133.008 97.2738 132.243 97.4491 131.381 97.4491Z" fill="white"/>
<path d="M139.473 97.4491C138.987 97.4491 138.552 97.3643 138.167 97.1947C137.782 97.0251 137.479 96.7719 137.259 96.4351C137.039 96.0982 136.929 95.68 136.929 95.1805C136.929 94.7542 137.007 94.399 137.163 94.1149C137.319 93.8307 137.532 93.6016 137.802 93.4274C138.073 93.2533 138.381 93.1215 138.727 93.0322C139.073 92.9428 139.436 92.8798 139.817 92.8431C140.261 92.7973 140.619 92.7549 140.889 92.7159C141.159 92.677 141.357 92.6162 141.48 92.5337C141.604 92.4512 141.666 92.3275 141.666 92.1625V92.1281C141.666 91.9173 141.619 91.7374 141.525 91.5885C141.431 91.4395 141.295 91.325 141.116 91.2448C140.937 91.1646 140.719 91.1244 140.463 91.1244C140.202 91.1244 139.974 91.1646 139.779 91.2448C139.584 91.325 139.426 91.4327 139.304 91.5679C139.183 91.7031 139.097 91.8555 139.047 92.025L137.156 91.7844C137.262 91.3261 137.463 90.9342 137.761 90.6089C138.059 90.2835 138.439 90.0348 138.902 89.863C139.365 89.6911 139.892 89.6052 140.483 89.6052C140.914 89.6052 141.323 89.6556 141.711 89.7564C142.098 89.8572 142.443 90.0131 142.745 90.2239C143.048 90.4347 143.285 90.7017 143.457 91.0248C143.629 91.3479 143.714 91.734 143.714 92.1831V97.3047H141.755V96.246H141.693C141.57 96.4843 141.406 96.694 141.202 96.875C140.998 97.0561 140.754 97.197 140.47 97.2978C140.186 97.3987 139.853 97.4491 139.473 97.4491ZM140.05 96.0123C140.376 96.0123 140.66 95.9481 140.903 95.8198C141.146 95.6915 141.336 95.5196 141.473 95.3042C141.611 95.0888 141.68 94.8459 141.68 94.5755V93.7712C141.615 93.8078 141.526 93.8445 141.411 93.8812C141.297 93.9178 141.166 93.9499 141.02 93.9774C140.873 94.0049 140.725 94.0301 140.576 94.053C140.427 94.0759 140.291 94.0966 140.167 94.1149C139.92 94.1516 139.7 94.21 139.507 94.2902C139.315 94.3704 139.166 94.4781 139.06 94.6133C138.955 94.7485 138.902 94.9169 138.902 95.1186C138.902 95.3111 138.952 95.4738 139.05 95.6067C139.149 95.7396 139.284 95.8404 139.456 95.9092C139.628 95.9779 139.826 96.0123 140.05 96.0123Z" fill="white"/>
<path d="M148.437 97.4628C147.819 97.4628 147.27 97.3723 146.791 97.1913C146.312 97.0102 145.922 96.7479 145.622 96.4041C145.322 96.0604 145.133 95.6479 145.055 95.1667L146.987 94.9055C147.074 95.2538 147.241 95.5173 147.489 95.6961C147.736 95.8748 148.066 95.9642 148.479 95.9642C148.868 95.9642 149.175 95.8897 149.4 95.7407C149.624 95.5918 149.737 95.4027 149.737 95.1736C149.737 94.9765 149.655 94.815 149.493 94.6889C149.33 94.5629 149.086 94.4655 148.76 94.3968L147.447 94.1355C146.714 93.9843 146.164 93.7276 145.797 93.3656C145.431 93.0035 145.248 92.536 145.248 91.9632C145.248 91.4819 145.379 91.0649 145.643 90.712C145.906 90.3591 146.278 90.0864 146.756 89.8939C147.235 89.7014 147.796 89.6052 148.437 89.6052C149.051 89.6052 149.583 89.6922 150.032 89.8664C150.481 90.0406 150.842 90.288 151.115 90.6089C151.388 90.9297 151.561 91.3078 151.634 91.7432L149.798 91.9975C149.734 91.7271 149.591 91.506 149.369 91.3341C149.147 91.1623 148.85 91.0763 148.479 91.0763C148.135 91.0763 147.852 91.1485 147.63 91.2929C147.407 91.4372 147.296 91.624 147.296 91.8532C147.296 92.0456 147.372 92.2072 147.523 92.3378C147.674 92.4684 147.922 92.5681 148.265 92.6369L149.64 92.9118C150.383 93.0585 150.934 93.3014 151.294 93.6405C151.653 93.9797 151.833 94.422 151.833 94.9673C151.833 95.4669 151.689 95.9034 151.4 96.2769C151.112 96.6505 150.712 96.9415 150.201 97.15C149.69 97.3586 149.102 97.4628 148.437 97.4628Z" fill="white"/>
<path d="M157.079 89.7152V91.2894H152.473V89.7152H157.079ZM153.58 87.8521H155.628V95.0567C155.628 95.2996 155.682 95.4772 155.79 95.5895C155.897 95.7018 156.077 95.7579 156.329 95.7579C156.421 95.7579 156.539 95.7499 156.683 95.7339C156.828 95.7178 156.939 95.7029 157.017 95.6892L157.244 97.2497C157.037 97.3001 156.822 97.3356 156.597 97.3563C156.373 97.3769 156.155 97.3872 155.944 97.3872C155.165 97.3872 154.576 97.2073 154.178 96.8475C153.779 96.4878 153.58 95.9619 153.58 95.2698V87.8521Z" fill="white"/>
<path d="M158.35 97.3047V89.7152H160.337V91.0282H160.406C160.543 90.5653 160.773 90.2159 161.093 89.9798C161.414 89.7438 161.795 89.6258 162.235 89.6258C162.345 89.6258 162.459 89.6304 162.578 89.6395C162.698 89.6487 162.801 89.6625 162.888 89.6808V91.4957C162.801 91.4682 162.671 91.4464 162.499 91.4304C162.327 91.4143 162.161 91.4063 162.001 91.4063C161.698 91.4063 161.425 91.4728 161.179 91.6057C160.934 91.7386 160.743 91.9265 160.605 92.1694C160.468 92.4123 160.399 92.6987 160.399 93.0287V97.3047L158.35 97.3047Z" fill="white"/>
<path d="M167.122 97.456C166.357 97.456 165.694 97.2921 165.132 96.9644C164.571 96.6367 164.138 96.1784 163.833 95.5895C163.528 95.0006 163.376 94.3166 163.376 93.5374C163.376 92.7492 163.528 92.0605 163.833 91.4716C164.138 90.8827 164.571 90.4244 165.132 90.0967C165.694 89.769 166.357 89.6052 167.122 89.6052C167.883 89.6052 168.544 89.769 169.106 90.0967C169.667 90.4244 170.1 90.8827 170.405 91.4716C170.71 92.0605 170.862 92.7492 170.862 93.5374C170.862 94.3166 170.71 95.0006 170.405 95.5895C170.1 96.1784 169.667 96.6367 169.106 96.9644C168.544 97.2921 167.883 97.456 167.122 97.456ZM167.122 95.8335C167.48 95.8335 167.781 95.735 168.026 95.5379C168.272 95.3409 168.458 95.0693 168.587 94.7233C168.715 94.3773 168.779 93.9797 168.779 93.5306C168.779 93.0768 168.715 92.6781 168.587 92.3344C168.458 91.9906 168.272 91.7203 168.026 91.5232C167.781 91.3261 167.48 91.2276 167.122 91.2276C166.765 91.2276 166.462 91.3261 166.215 91.5232C165.968 91.7203 165.781 91.9906 165.655 92.3344C165.529 92.6781 165.466 93.0768 165.466 93.5306C165.466 93.9797 165.529 94.3773 165.655 94.7233C165.781 95.0693 165.966 95.3409 166.212 95.5379C166.457 95.735 166.76 95.8335 167.122 95.8335Z" fill="white"/>
<path d="M176.499 97.4353C176.105 97.4353 175.765 97.37 175.479 97.2394C175.192 97.1088 174.955 96.9415 174.767 96.7376C174.579 96.5336 174.432 96.3216 174.327 96.1017H174.245V97.3047H172.23V87.0616H174.279V90.9457H174.334C174.444 90.7257 174.591 90.5138 174.774 90.3098C174.957 90.1059 175.191 89.9374 175.475 89.8045C175.759 89.6716 176.105 89.6052 176.513 89.6052C177.095 89.6052 177.621 89.7553 178.091 90.0555C178.561 90.3556 178.935 90.7956 179.215 91.3754C179.494 91.9551 179.634 92.6689 179.634 93.5168C179.634 94.3509 179.498 95.059 179.225 95.6411C178.952 96.2231 178.58 96.6677 178.108 96.9747C177.636 97.2818 177.1 97.4353 176.499 97.4353ZM175.888 95.7854C176.245 95.7854 176.545 95.6903 176.788 95.5001C177.031 95.3099 177.215 95.0441 177.342 94.7027C177.468 94.3612 177.531 93.9637 177.531 93.5099C177.531 93.0608 177.468 92.6667 177.342 92.3275C177.215 91.9884 177.031 91.7248 176.788 91.5369C176.545 91.349 176.245 91.2551 175.888 91.2551C175.539 91.2551 175.24 91.3479 174.99 91.5335C174.741 91.7191 174.55 91.9803 174.42 92.3172C174.289 92.6541 174.224 93.0516 174.224 93.5099C174.224 93.9682 174.29 94.367 174.423 94.7061C174.556 95.0453 174.748 95.3099 174.997 95.5001C175.247 95.6903 175.544 95.7854 175.888 95.7854Z" fill="white"/>
<path d="M183.291 97.4491C182.806 97.4491 182.37 97.3643 181.985 97.1947C181.6 97.0251 181.298 96.7719 181.078 96.4351C180.858 96.0982 180.748 95.68 180.748 95.1805C180.748 94.7542 180.826 94.399 180.982 94.1149C181.137 93.8307 181.351 93.6016 181.621 93.4274C181.891 93.2533 182.2 93.1215 182.546 93.0322C182.892 92.9428 183.255 92.8798 183.635 92.8431C184.08 92.7973 184.437 92.7549 184.708 92.7159C184.978 92.677 185.175 92.6162 185.299 92.5337C185.423 92.4512 185.484 92.3275 185.484 92.1625V92.1281C185.484 91.9173 185.438 91.7374 185.344 91.5885C185.25 91.4395 185.113 91.325 184.935 91.2448C184.756 91.1646 184.538 91.1244 184.281 91.1244C184.02 91.1244 183.792 91.1646 183.597 91.2448C183.403 91.325 183.245 91.4327 183.123 91.5679C183.002 91.7031 182.916 91.8555 182.865 92.025L180.975 91.7844C181.08 91.3261 181.282 90.9342 181.58 90.6089C181.878 90.2835 182.258 90.0348 182.721 89.863C183.184 89.6911 183.711 89.6052 184.302 89.6052C184.733 89.6052 185.142 89.6556 185.529 89.7564C185.916 89.8572 186.261 90.0131 186.564 90.2239C186.866 90.4347 187.103 90.7017 187.275 91.0248C187.447 91.3479 187.533 91.734 187.533 92.1831V97.3047H185.574V96.246H185.512C185.388 96.4843 185.224 96.694 185.02 96.875C184.816 97.0561 184.572 97.197 184.288 97.2978C184.004 97.3987 183.672 97.4491 183.291 97.4491ZM183.869 96.0123C184.194 96.0123 184.479 95.9481 184.721 95.8198C184.964 95.6915 185.155 95.5196 185.292 95.3042C185.429 95.0888 185.498 94.8459 185.498 94.5755V93.7712C185.434 93.8078 185.345 93.8445 185.23 93.8812C185.116 93.9178 184.985 93.9499 184.838 93.9774C184.692 94.0049 184.544 94.0301 184.395 94.053C184.246 94.0759 184.11 94.0966 183.986 94.1149C183.738 94.1516 183.518 94.21 183.326 94.2902C183.133 94.3704 182.984 94.4781 182.879 94.6133C182.774 94.7485 182.721 94.9169 182.721 95.1186C182.721 95.3111 182.77 95.4738 182.869 95.6067C182.967 95.7396 183.102 95.8404 183.274 95.9092C183.446 95.9779 183.644 96.0123 183.869 96.0123Z" fill="white"/>
<path d="M189.217 97.3047V89.7152H191.204V91.0282H191.273C191.41 90.5653 191.64 90.2159 191.96 89.9798C192.281 89.7438 192.662 89.6258 193.102 89.6258C193.212 89.6258 193.326 89.6304 193.445 89.6395C193.564 89.6487 193.668 89.6625 193.755 89.6808V91.4957C193.668 91.4682 193.538 91.4464 193.366 91.4304C193.194 91.4143 193.028 91.4063 192.868 91.4063C192.565 91.4063 192.291 91.4728 192.046 91.6057C191.801 91.7386 191.61 91.9265 191.472 92.1694C191.335 92.4123 191.266 92.6987 191.266 93.0287V97.3047L189.217 97.3047Z" fill="white"/>
<path d="M196.834 97.4491C196.349 97.4491 195.913 97.3643 195.528 97.1947C195.143 97.0251 194.841 96.7719 194.621 96.4351C194.401 96.0982 194.291 95.68 194.291 95.1805C194.291 94.7542 194.369 94.399 194.525 94.1149C194.68 93.8307 194.893 93.6016 195.164 93.4274C195.434 93.2533 195.742 93.1215 196.089 93.0322C196.435 92.9428 196.798 92.8798 197.178 92.8431C197.623 92.7973 197.98 92.7549 198.251 92.7159C198.521 92.677 198.718 92.6162 198.842 92.5337C198.966 92.4512 199.027 92.3275 199.027 92.1625V92.1281C199.027 91.9173 198.98 91.7374 198.886 91.5885C198.793 91.4395 198.656 91.325 198.477 91.2448C198.299 91.1646 198.081 91.1244 197.824 91.1244C197.563 91.1244 197.335 91.1646 197.14 91.2448C196.946 91.325 196.787 91.4327 196.666 91.5679C196.545 91.7031 196.459 91.8555 196.408 92.025L194.518 91.7844C194.623 91.3261 194.825 90.9342 195.123 90.6089C195.421 90.2835 195.801 90.0348 196.264 89.863C196.727 89.6911 197.254 89.6052 197.845 89.6052C198.276 89.6052 198.685 89.6556 199.072 89.7564C199.459 89.8572 199.804 90.0131 200.107 90.2239C200.409 90.4347 200.646 90.7017 200.818 91.0248C200.99 91.3479 201.076 91.734 201.076 92.1831V97.3047H199.117V96.246H199.055C198.931 96.4843 198.767 96.694 198.563 96.875C198.359 97.0561 198.115 97.197 197.831 97.2978C197.547 97.3987 197.215 97.4491 196.834 97.4491ZM197.412 96.0123C197.737 96.0123 198.021 95.9481 198.264 95.8198C198.507 95.6915 198.697 95.5196 198.835 95.3042C198.972 95.0888 199.041 94.8459 199.041 94.5755V93.7712C198.977 93.8078 198.888 93.8445 198.773 93.8812C198.658 93.9178 198.528 93.9499 198.381 93.9774C198.235 94.0049 198.087 94.0301 197.938 94.053C197.789 94.0759 197.652 94.0966 197.529 94.1149C197.281 94.1516 197.061 94.21 196.869 94.2902C196.676 94.3704 196.527 94.4781 196.422 94.6133C196.317 94.7485 196.264 94.9169 196.264 95.1186C196.264 95.3111 196.313 95.4738 196.412 95.6067C196.51 95.7396 196.645 95.8404 196.817 95.9092C196.989 95.9779 197.187 96.0123 197.412 96.0123Z" fill="white"/>
<path d="M205.799 97.4628C205.18 97.4628 204.631 97.3723 204.152 97.1913C203.673 97.0102 203.284 96.7479 202.984 96.4041C202.684 96.0604 202.495 95.6479 202.417 95.1667L204.348 94.9055C204.435 95.2538 204.603 95.5173 204.85 95.6961C205.098 95.8748 205.428 95.9642 205.84 95.9642C206.23 95.9642 206.537 95.8897 206.761 95.7407C206.986 95.5918 207.098 95.4027 207.098 95.1736C207.098 94.9765 207.017 94.815 206.854 94.6889C206.691 94.5629 206.447 94.4655 206.122 94.3968L204.809 94.1355C204.076 93.9843 203.526 93.7276 203.159 93.3656C202.792 93.0035 202.609 92.536 202.609 91.9632C202.609 91.4819 202.741 91.0649 203.004 90.712C203.268 90.3591 203.639 90.0864 204.118 89.8939C204.597 89.7014 205.157 89.6052 205.799 89.6052C206.413 89.6052 206.945 89.6922 207.394 89.8664C207.843 90.0406 208.204 90.288 208.477 90.6089C208.749 90.9297 208.922 91.3078 208.996 91.7432L207.16 91.9975C207.096 91.7271 206.953 91.506 206.73 91.3341C206.508 91.1623 206.211 91.0763 205.84 91.0763C205.496 91.0763 205.213 91.1485 204.991 91.2929C204.769 91.4372 204.658 91.624 204.658 91.8532C204.658 92.0456 204.733 92.2072 204.885 92.3378C205.036 92.4684 205.283 92.5681 205.627 92.6369L207.002 92.9118C207.744 93.0585 208.296 93.3014 208.655 93.6405C209.015 93.9797 209.195 94.422 209.195 94.9673C209.195 95.4669 209.051 95.9034 208.762 96.2769C208.473 96.6505 208.073 96.9415 207.562 97.15C207.051 97.3586 206.463 97.4628 205.799 97.4628Z" fill="white"/>
</svg>
