<?xml version="1.0" encoding="UTF-8"?><svg id="Layer_1" xmlns="http://www.w3.org/2000/svg" viewBox="0 0 1660.59572 210.17723"><defs><style>.cls-1{fill:#fff;}</style></defs><path class="cls-1" d="M435.82652,62.93185l-45.32468,107.12803h-26.02167l-45.53793-107.12803h26.4556l14.96359,36.64955,17.12955,45.3247,17.35028-45.32469,14.95984-36.64955s26.02542,0,26.02542,0Z"/><path class="cls-1" d="M552.58363,62.93185v107.12803h-21.68225l-.21698-14.31267c-8.24121,10.4109-22.55386,16.69936-39.03625,16.69936-31.44223,0-53.1282-22.98779-53.1282-55.94884,0-32.96477,21.68597-55.94884,53.1282-55.94884,16.69937,0,30.79504,6.28845,39.03625,16.69562l.21698-14.31267h21.68225ZM528.29775,116.49773c0-19.9502-13.44476-33.82892-32.74405-33.82892-19.30301,0-32.7478,13.87872-32.7478,33.82892s13.44479,33.82892,32.7478,33.82892c19.29929,0,32.74405-13.87872,32.74405-33.82892Z"/><path class="cls-1" d="M574.83821,32.14054c0-8.89211,6.50543-15.18055,15.39752-15.18055,9.32605,0,15.83148,6.28845,15.83148,15.18055,0,8.45817-6.50543,14.74661-15.83148,14.74661-8.89209,0-15.39752-6.28845-15.39752-14.74661ZM578.09279,62.93185h24.28589v107.12803h-24.28589V62.93185Z"/><path class="cls-1" d="M619.88234,156.83208l11.27509-17.56725c9.54303,7.59029,23.63873,11.92972,37.73444,11.92972,13.66174,0,21.46899-4.33945,21.46899-12.1467,0-7.58655-6.93933-11.27506-23.42175-13.01084-27.97443-2.59992-43.80212-14.31267-43.80212-32.96103,0-19.51625,18.64838-32.74406,46.40582-32.74406,16.26166,0,30.57434,4.11873,42.50409,12.35992l-10.62787,17.35027c-9.53931-6.07521-19.73322-9.10908-30.79132-9.10908-15.39752,0-23.63873,4.3357-23.63873,12.14295,0,6.93936,6.28845,10.62788,21.90295,12.35992,31.65918,3.47155,45.5379,13.66175,45.5379,33.82893,0,19.95393-18.4314,33.39871-46.18884,33.39871-17.99744,0-34.0459-5.20734-48.35858-15.83147h-.00006Z"/><path class="cls-1" d="M729.09779,32.14054c0-8.89211,6.50543-15.18055,15.39752-15.18055,9.32605,0,15.83148,6.28845,15.83148,15.18055,0,8.45817-6.50543,14.74661-15.83148,14.74661-8.89209,0-15.39752-6.28845-15.39752-14.74661ZM732.35237,62.93185h24.28589v107.12803h-24.28589V62.93185Z"/><path class="cls-1" d="M893.73836,200.63795c-6.93933,6.07147-15.83148,9.53928-24.72357,9.53928-13.01086,0-21.25201-7.15633-21.25201-18.86534,0-9.10909,4.99036-17.1333,14.96356-23.42175l-.21698-11.709c-9.10535,10.62415-21.68597,16.04845-36.42883,16.04845-27.32349,0-45.10773-19.51999-45.10773-50.09433v-59.20341h24.28961v57.68461c0,18.86534,9.53931,29.71019,25.15381,29.71019,17.78046,0,29.71021-13.01083,29.71021-31.01202v-56.38278h24.28589v107.12803c-13.01086,6.28845-16.69562,10.40717-16.69562,15.6145,0,4.11873,3.03387,6.50542,7.58655,6.50542,3.25458,0,6.50916-1.30183,9.54303-3.47154l8.89209,11.92972v-.00002Z"/><path class="cls-1" d="M1074.59938,62.93185v107.12803h-21.68225l-.21692-14.31267c-8.24121,10.4109-22.55383,16.69936-39.03625,16.69936-31.44226,0-53.12817-22.98779-53.12817-55.94884,0-32.96477,21.68597-55.94884,53.12817-55.94884,16.69934,0,30.79504,6.28845,39.03625,16.69562l.21692-14.31267h21.68225ZM1050.31349,116.49773c0-19.9502-13.44482-33.82892-32.74408-33.82892-19.30304,0-32.7478,13.87872-32.7478,33.82892s13.44476,33.82892,32.7478,33.82892c19.29926,0,32.74408-13.87872,32.74408-33.82892Z"/><path class="cls-1" d="M1271.14235,107.38865v62.67123h-24.28589v-60.71848c0-17.1333-7.80725-26.67259-22.33691-26.67259-16.04846,0-26.67261,11.27506-26.67261,27.97442v59.41665h-24.28967v-60.71848c0-17.1333-8.02417-26.67259-22.55017-26.67259-15.83142,0-26.67627,11.27506-26.67627,27.97442v59.41665h-24.28589V62.93185h21.68591l.21692,12.58063c7.80725-9.97697,18.21448-14.74661,31.65918-14.74661,15.18054,0,27.97437,7.15633,34.69678,18.86534,8.45813-12.57689,21.46899-18.86534,38.16833-18.86534,27.54053,0,44.67004,17.56351,44.67004,46.62278h.00024Z"/><path class="cls-1" d="M1379.04103,147.50603v22.55386h-92.16443v-9.54301l54.64697-75.46509h-50.9585v-22.11992h88.04199v8.89211l-54.86401,75.68206h55.29797v-.00002ZM1327.64479,48.62292l-31.44226-30.36111h24.50293l13.87866,12.79386,14.0957-12.79386h24.28967l-31.229,30.36111h-14.0957Z"/><path class="cls-1" d="M1393.39858,32.14054c0-8.89211,6.50537-15.18055,15.39758-15.18055,9.32605,0,15.83142,6.28845,15.83142,15.18055,0,8.45817-6.50537,14.74661-15.83142,14.74661-8.89209,0-15.39758-6.28845-15.39758-14.74661ZM1396.65309,62.93185h24.28589v107.12803h-24.28589V62.93185Z"/><path class="cls-1" d="M1547.99855,62.93185v107.12803h-21.68591l-.21692-13.87872c-9.10535,10.62415-21.68591,16.04845-36.42883,16.04845-27.32349,0-45.10767-19.51999-45.10767-50.09433v-59.20341h24.28967v57.68461c0,18.86534,9.53931,29.71019,25.15381,29.71019,17.78052,0,29.71021-13.01083,29.71021-31.01202v-56.38278h24.28589-.00024Z"/><path class="cls-1" d="M1566.04836,156.83208l11.27502-17.56725c9.54297,7.59029,23.63867,11.92972,37.73438,11.92972,13.66174,0,21.46899-4.33945,21.46899-12.1467,0-7.58655-6.93933-11.27506-23.42175-13.01084-27.97437-2.59992-43.80212-14.31267-43.80212-32.96103,0-19.51625,18.64832-32.74406,46.40576-32.74406,16.26538,0,30.57434,4.11873,42.50403,12.35992l-10.62793,17.35027c-9.53931-6.07521-19.73328-9.10908-30.79126-9.10908-15.39758,0-23.63867,4.3357-23.63867,12.14295,0,6.93936,6.28845,10.62788,21.90295,12.35992,31.65918,3.47155,45.53796,13.66175,45.53796,33.82893,0,19.95393-18.4314,33.39871-46.18884,33.39871-17.99744,0-34.0459-5.20734-48.35852-15.83147Z"/><path class="cls-1" d="M132.34178,173.4669c-.61166-.27802-1.08424-.86098-1.1581-1.58319-.02451-.23956-.00098-.48524.07281-.71231l.39082-.69501c2.79526-5.21992,4.99376-10.81551,6.47639-16.75082.65404-2.39983,1.13487-4.58733,1.50818-6.64279.19473-.94431,1.10278-1.57117,2.04375-1.40041,11.73947,2.15279,21.41898,2.93684,28.80005-1.17149,10.0202-6.10362,18.2195-17.41667,22.50919-31.07574,1.7086-6.10438,4.43233-20.81841-5.35255-30.0002-8.78522-8.4344-22.51289-11.01633-33.34995-6.72422-1.12262.43165-2.21114.95593-3.26855,1.54941-12.34236,6.68169-19.70744,22.11368-22.74907,47.26229-.35912,2.90483-.49563,5.37276-.64199,7.7444-.30161,4.89133-.6076,9.97769-2.53321,17.05238-5.85248,23.56476-25.48627,41.17473-47.66102,43.44264-1.39513.14268-2.7949.2372-4.20199.26007-2.42237.07687-4.83533.00801-7.20998-.16206-16.29427-1.2989-31.07182-8.6814-41.40995-20.89424-11.44237-13.50726-15.88796-31.54755-12.22836-49.46746,4.39769-20.20849,17.89956-34.56647,29.82449-47.23241,3.24467-3.44203,6.28761-6.71865,9.09023-9.96952l.56865-.61825c7.07288-7.35669,14.64493-22.66507,4.94272-32.46288l-.21962-.24453c-3.89166-4.07323-11.27715-5.23786-16.12585-2.50634-8.44031,4.67827-11.41699,15.96743-11.45064,25.61943-.00033.94816-.72256,1.72689-1.66802,1.75001l-25.52918.83697c-.96942.02676-1.80095-.73901-1.80584-1.73529C-.25858,33.68049,9.52974,14.38024,26.34815,5.12617,42.52489-3.9887,64.5413-.6751,77.52139,12.89443c21.34624,21.70622,13.6837,53.47541-4.45999,72.58478-3.15023,3.6519-6.50289,7.22719-9.72337,10.66793-10.26002,10.89132-19.92661,21.16305-22.5718,33.31776-1.86065,9.13399.23531,17.98436,5.98333,24.75957,2.68213,3.17644,5.97877,5.70737,9.73805,7.53479,4.75626,2.30809,10.19565,3.45222,15.9107,3.25694l.36352-.01344c12.23706-.10881,21.63945-11.30164,24.21151-21.79588l.08842-.32469c1.164-4.29958,1.33827-7.11192,1.60537-11.39217.14329-2.6395.34571-5.64934.78706-9.41222,3.36988-27.87942,11.77343-47.89005,25.58424-60.65156,3.59396-3.35671,7.58093-6.19472,11.93195-8.5597,22.10902-12.41882,51.89442-8.46633,70.62447,9.52154,14.7874,13.89493,19.79774,36.03306,13.26324,59.10748l-.10997.35181-.16251.55179c-1.80305,5.89452-1.39156,12.2935,1.45226,17.76141,4.71118,8.99702,15.04208,20.18774,37.70404,24.82132.9194.19788,1.54431,1.08092,1.37323,2.02161l-4.64874,25.11836c-.19504.94434-1.12476,1.59715-2.06812,1.40289-27.54247-5.54295-44.32146-19.18674-53.98279-33.33896-.62502-.8842-1.85458-1.02544-2.62766-.26524-3.85524,3.65044-8.04581,6.87355-12.53607,9.54469l-.2952.19987c-17.59653,9.96494-37.14215,6.81277-51.99632,3.90819l-.61844-.10645-.00002.00005Z"/></svg>