<svg width="250" height="217" viewBox="0 0 250 217" fill="none" xmlns="http://www.w3.org/2000/svg">
<g clip-path="url(#clip0_88_1209)">
<path d="M62.7421 109.556L46.5874 147.739H37.3127L21.082 109.556H30.5114L35.8447 122.619L41.9501 138.774L48.1341 122.619L53.4661 109.556H62.7421Z" fill="#FFF6E7"/>
<path d="M104.357 109.556V147.739H96.6289L96.5515 142.638C93.6142 146.348 88.5128 148.59 82.6382 148.59C71.4315 148.59 63.7021 140.396 63.7021 128.648C63.7021 116.899 71.4315 108.707 82.6382 108.707C88.5902 108.707 93.6142 110.948 96.5515 114.658L96.6289 109.556H104.357ZM95.7009 128.648C95.7009 121.538 90.9088 116.591 84.0302 116.591C77.1502 116.591 72.3582 121.538 72.3582 128.648C72.3582 135.759 77.1502 140.706 84.0302 140.706C90.9089 140.706 95.7009 135.759 95.7009 128.648Z" fill="#FFF6E7"/>
<path d="M112.289 98.5816C112.289 95.4122 114.608 93.1709 117.777 93.1709C121.101 93.1709 123.42 95.4122 123.42 98.5816C123.42 101.596 121.101 103.838 117.777 103.838C114.608 103.838 112.289 101.596 112.289 98.5816ZM113.449 109.556H122.105V147.739H113.449V109.556Z" fill="#FFF6E7"/>
<path d="M128.344 143.024L132.362 136.763C135.764 139.468 140.788 141.015 145.812 141.015C150.681 141.015 153.464 139.468 153.464 136.686C153.464 133.982 150.99 132.667 145.116 132.048C135.145 131.122 129.504 126.947 129.504 120.3C129.504 113.344 136.15 108.63 146.044 108.63C151.84 108.63 156.941 110.098 161.193 113.035L157.405 119.219C154.005 117.054 150.372 115.972 146.43 115.972C140.942 115.972 138.005 117.518 138.005 120.3C138.005 122.774 140.246 124.088 145.812 124.706C157.096 125.943 162.042 129.575 162.042 136.763C162.042 143.875 155.473 148.667 145.58 148.667C139.165 148.667 133.445 146.811 128.344 143.024Z" fill="#FFF6E7"/>
<path d="M167.271 98.5816C167.271 95.4122 169.589 93.1709 172.759 93.1709C176.083 93.1709 178.401 95.4122 178.401 98.5816C178.401 101.596 176.083 103.838 172.759 103.838C169.589 103.838 167.271 101.596 167.271 98.5816ZM168.431 109.556H177.087V147.739H168.431V109.556Z" fill="#FFF6E7"/>
<path d="M225.952 158.638C223.478 160.802 220.309 162.038 217.14 162.038C212.502 162.038 209.565 159.487 209.565 155.314C209.565 152.067 211.344 149.207 214.898 146.966L214.821 142.792C211.576 146.579 207.092 148.512 201.837 148.512C192.098 148.512 185.76 141.555 185.76 130.658V109.556H194.417V130.116C194.417 136.84 197.817 140.706 203.382 140.706C209.72 140.706 213.972 136.068 213.972 129.652V109.556H222.628V147.739C217.99 149.98 216.677 151.448 216.677 153.304C216.677 154.772 217.758 155.623 219.381 155.623C220.541 155.623 221.701 155.159 222.783 154.386L225.952 158.638Z" fill="#FFF6E7"/>
<path d="M40.6547 177.38V215.562H32.9267L32.8494 210.461C29.912 214.172 24.8107 216.413 18.936 216.413C7.72935 216.413 0 208.22 0 196.472C0 184.722 7.72934 176.53 18.936 176.53C24.888 176.53 29.912 178.772 32.8494 182.481L32.9267 177.38H40.6547ZM31.9987 196.472C31.9987 189.361 27.2067 184.414 20.328 184.414C13.448 184.414 8.65601 189.361 8.65601 196.472C8.65601 203.582 13.448 208.529 20.328 208.529C27.2067 208.529 31.9987 203.582 31.9987 196.472Z" fill="#FFF6E7"/>
<path d="M110.706 193.225V215.562H102.05V193.921C102.05 187.814 99.2677 184.414 94.089 184.414C88.369 184.414 84.5823 188.433 84.5823 194.385V215.562H75.925V193.921C75.925 187.814 73.065 184.414 67.8877 184.414C62.245 184.414 58.3796 188.433 58.3796 194.385V215.562H49.7236V177.38H57.453L57.5303 181.864C60.313 178.308 64.0223 176.608 68.8143 176.608C74.225 176.608 78.785 179.158 81.181 183.332C84.1957 178.849 88.833 176.608 94.785 176.608C104.601 176.608 110.706 182.868 110.706 193.225Z" fill="#FFF6E7"/>
<path d="M149.164 207.524V215.562H116.314V212.161L135.792 185.264H117.629V177.38H149.009V180.549L129.454 207.524H149.164ZM130.845 172.28L119.638 161.458H128.372L133.318 166.018L138.342 161.458H147L135.869 172.28H130.845Z" fill="#FFF6E7"/>
<path d="M154.281 166.405C154.281 163.236 156.6 160.994 159.769 160.994C163.093 160.994 165.412 163.236 165.412 166.405C165.412 169.42 163.093 171.661 159.769 171.661C156.6 171.661 154.281 169.42 154.281 166.405ZM155.441 177.38H164.097V215.562H155.441V177.38Z" fill="#FFF6E7"/>
<path d="M209.385 177.38V215.562H201.655L201.578 210.616C198.333 214.402 193.849 216.336 188.594 216.336C178.855 216.336 172.517 209.378 172.517 198.481V177.38H181.174V197.94C181.174 204.664 184.574 208.529 190.139 208.529C196.477 208.529 200.729 203.892 200.729 197.476V177.38L209.385 177.38Z" fill="#FFF6E7"/>
<path d="M215.817 210.848L219.836 204.586C223.237 207.292 228.261 208.838 233.285 208.838C238.155 208.838 240.937 207.292 240.937 204.509C240.937 201.805 238.464 200.49 232.589 199.872C222.619 198.945 216.977 194.77 216.977 188.124C216.977 181.168 223.624 176.453 233.517 176.453C239.315 176.453 244.415 177.921 248.667 180.858L244.879 187.042C241.479 184.877 237.845 183.796 233.904 183.796C228.416 183.796 225.479 185.341 225.479 188.124C225.479 190.597 227.72 191.912 233.285 192.529C244.569 193.766 249.516 197.398 249.516 204.586C249.516 211.698 242.947 216.49 233.053 216.49C226.639 216.49 220.919 214.634 215.817 210.848Z" fill="#FFF6E7"/>
<path d="M124.238 61.8273C124.02 61.7282 123.851 61.5204 123.825 61.263C123.816 61.1776 123.825 61.0901 123.851 61.0092L123.99 60.7614C124.987 58.901 125.77 56.9066 126.299 54.7911C126.532 53.9357 126.703 53.1561 126.836 52.4235C126.906 52.0869 127.229 51.8635 127.565 51.9243C131.749 52.6916 135.199 52.9711 137.83 51.5068C141.401 49.3313 144.323 45.2991 145.852 40.4307C146.461 38.255 147.432 33.0106 143.945 29.738C140.813 26.7318 135.92 25.8116 132.058 27.3414C131.658 27.4952 131.27 27.6821 130.893 27.8936C126.494 30.2751 123.869 35.7754 122.785 44.7389C122.657 45.7742 122.608 46.6539 122.556 47.4992C122.448 49.2425 122.339 51.0554 121.653 53.577C119.567 61.976 112.569 68.2525 104.666 69.0609C104.168 69.1117 103.669 69.1454 103.168 69.1536C102.304 69.181 101.444 69.1564 100.598 69.0958C94.7904 68.6328 89.5234 66.0016 85.8387 61.6486C81.7604 56.8344 80.1759 50.4044 81.4802 44.0174C83.0477 36.8146 87.86 31.6972 92.1103 27.1827C93.2668 25.9559 94.3514 24.7881 95.3503 23.6294L95.553 23.409C98.0739 20.787 100.773 15.3307 97.3146 11.8386L97.2364 11.7514C95.8493 10.2996 93.2169 9.88452 91.4888 10.8581C88.4805 12.5255 87.4195 16.5492 87.4075 19.9894C87.4074 20.3274 87.15 20.6049 86.813 20.6132L77.7139 20.9115C77.3683 20.921 77.072 20.6481 77.0702 20.293C76.9762 12.0044 80.465 5.12542 86.4594 1.82707C92.2251 -1.42166 100.072 -0.240617 104.699 4.59584C112.307 12.3324 109.576 23.6556 103.109 30.4666C101.986 31.7682 100.791 33.0425 99.6434 34.2689C95.9865 38.1508 92.5411 41.8119 91.5983 46.1441C90.9351 49.3996 91.6822 52.5541 93.7309 54.9689C94.6869 56.101 95.8619 57.0031 97.2017 57.6545C98.897 58.4771 100.836 58.8849 102.873 58.8153L103.002 58.8105C107.364 58.7717 110.715 54.7824 111.632 51.042L111.663 50.9263C112.078 49.3938 112.14 48.3914 112.235 46.8658C112.287 45.9251 112.359 44.8523 112.516 43.5111C113.717 33.5743 116.712 26.4421 121.635 21.8936C122.916 20.6972 124.337 19.6857 125.888 18.8428C133.768 14.4164 144.384 15.8252 151.06 22.2364C156.33 27.1889 158.116 35.0794 155.787 43.3036L155.748 43.429L155.69 43.6257C155.047 45.7266 155.194 48.0073 156.207 49.9562C157.887 53.1629 161.569 57.1515 169.646 58.8031C169.974 58.8736 170.196 59.1883 170.135 59.5236L168.478 68.4763C168.409 68.8129 168.078 69.0456 167.741 68.9763C157.925 67.0007 151.944 62.1378 148.501 57.0936C148.278 56.7785 147.84 56.7281 147.564 56.9991C146.19 58.3002 144.696 59.449 143.096 60.401L142.991 60.4723C136.719 64.024 129.753 62.9005 124.458 61.8652L124.238 61.8273Z" fill="#DD5D36"/>
</g>
<defs>
<clipPath id="clip0_88_1209">
<rect width="249.516" height="216.49" fill="white"/>
</clipPath>
</defs>
</svg>
