<?xml version="1.0" encoding="UTF-8"?><svg id="Layer_1" xmlns="http://www.w3.org/2000/svg" viewBox="0 0 1660.59574 210.17724"><defs><style>.cls-1{fill:#fff6e7;}.cls-2{fill:#dd5d36;}</style></defs><path class="cls-1" d="M435.82651,62.93185l-45.32469,107.12803h-26.02167l-45.53792-107.12803h26.45561l14.96358,36.64955,17.12956,45.32469,17.35027-45.32469,14.95984-36.64955h26.02541Z"/><path class="cls-1" d="M552.58361,62.93185v107.12803h-21.68223l-.21697-14.31267c-8.24119,10.41091-22.55386,16.69936-39.03625,16.69936-31.44223,0-53.1282-22.9878-53.1282-55.94884,0-32.96477,21.68597-55.94884,53.1282-55.94884,16.69936,0,30.79505,6.28845,39.03625,16.69562l.21697-14.31267h21.68223ZM528.29771,116.49773c0-19.9502-13.44478-33.82892-32.74406-33.82892-19.30302,0-32.7478,13.87872-32.7478,33.82892s13.44478,33.82892,32.7478,33.82892c19.29928,0,32.74406-13.87872,32.74406-33.82892Z"/><path class="cls-1" d="M574.83819,32.14054c0-8.89211,6.50542-15.18055,15.39753-15.18055,9.32605,0,15.83147,6.28845,15.83147,15.18055,0,8.45817-6.50542,14.74661-15.83147,14.74661-8.89211,0-15.39753-6.28845-15.39753-14.74661ZM578.09277,62.93185h24.28589v107.12803h-24.28589V62.93185Z"/><path class="cls-1" d="M619.88232,156.83207l11.27506-17.56725c9.54302,7.59028,23.63872,11.92972,37.73441,11.92972,13.66175,0,21.469-4.33944,21.469-12.14669,0-7.58654-6.93936-11.27506-23.42175-13.01084-27.97442-2.59992-43.80215-14.31267-43.80215-32.96103,0-19.51625,18.64836-32.74406,46.40581-32.74406,16.26167,0,30.57434,4.11873,42.50406,12.35992l-10.62788,17.35027c-9.53928-6.07521-19.73322-9.10908-30.79131-9.10908-15.39753,0-23.63872,4.3357-23.63872,12.14295,0,6.93936,6.28845,10.62788,21.90294,12.35992,31.6592,3.47155,45.53792,13.66175,45.53792,33.82892,0,19.95394-18.43139,33.39872-46.18884,33.39872-17.99745,0-34.04589-5.20733-48.35856-15.83147Z"/><path class="cls-1" d="M729.09777,32.14054c0-8.89211,6.50542-15.18055,15.39753-15.18055,9.32605,0,15.83147,6.28845,15.83147,15.18055,0,8.45817-6.50542,14.74661-15.83147,14.74661-8.89211,0-15.39753-6.28845-15.39753-14.74661ZM732.35235,62.93185h24.28589v107.12803h-24.28589V62.93185Z"/><path class="cls-1" d="M893.73832,200.63796c-6.93936,6.07147-15.83147,9.53928-24.72358,9.53928-13.01084,0-21.25203-7.15633-21.25203-18.86534,0-9.10908,4.99035-17.1333,14.96358-23.42175l-.21697-11.709c-9.10534,10.62414-21.68597,16.04844-36.42884,16.04844-27.3235,0-45.10772-19.51999-45.10772-50.09433v-59.20341h24.28964v57.68461c0,18.86534,9.53928,29.71019,25.15378,29.71019,17.78048,0,29.71019-13.01084,29.71019-31.01202v-56.38278h24.28589v107.12803c-13.01084,6.28845-16.69562,10.40717-16.69562,15.6145,0,4.11873,3.03387,6.50542,7.58654,6.50542,3.25458,0,6.50916-1.30183,9.54302-3.47155l8.89211,11.92972Z"/><path class="cls-1" d="M1074.59941,62.93185v107.12803h-21.68223l-.21697-14.31267c-8.24119,10.41091-22.55386,16.69936-39.03625,16.69936-31.44223,0-53.1282-22.9878-53.1282-55.94884,0-32.96477,21.68597-55.94884,53.1282-55.94884,16.69936,0,30.79505,6.28845,39.03625,16.69562l.21697-14.31267h21.68223ZM1050.31351,116.49773c0-19.9502-13.44478-33.82892-32.74406-33.82892-19.30302,0-32.7478,13.87872-32.7478,33.82892s13.44478,33.82892,32.7478,33.82892c19.29928,0,32.74406-13.87872,32.74406-33.82892Z"/><path class="cls-1" d="M1271.14232,107.38865v62.67122h-24.28589v-60.71848c0-17.1333-7.80725-26.67259-22.33689-26.67259-16.04844,0-26.67259,11.27506-26.67259,27.97442v59.41665h-24.28964v-60.71848c0-17.1333-8.02422-26.67259-22.55012-26.67259-15.83147,0-26.67633,11.27506-26.67633,27.97442v59.41665h-24.28589V62.93185h21.68597l.21697,12.58063c7.80725-9.97697,18.21442-14.74661,31.6592-14.74661,15.18055,0,27.97442,7.15633,34.69681,18.86534,8.45817-12.57689,21.469-18.86534,38.16836-18.86534,27.54047,0,44.67003,17.56351,44.67003,46.62278Z"/><path class="cls-1" d="M1379.04098,147.50602v22.55386h-92.16445v-9.54302l54.647-75.46509h-50.95848v-22.11992h88.04198v8.89211l-54.86398,75.68206h55.29792ZM1327.64481,48.62292l-31.44223-30.36111h24.50287l13.87872,12.79386,14.09569-12.79386h24.28964l-31.229,30.36111h-14.09569Z"/><path class="cls-1" d="M1393.39853,32.14054c0-8.89211,6.50542-15.18055,15.39753-15.18055,9.32605,0,15.83147,6.28845,15.83147,15.18055,0,8.45817-6.50542,14.74661-15.83147,14.74661-8.89211,0-15.39753-6.28845-15.39753-14.74661ZM1396.65311,62.93185h24.28589v107.12803h-24.28589V62.93185Z"/><path class="cls-1" d="M1547.99853,62.93185v107.12803h-21.68597l-.21697-13.87872c-9.10534,10.62414-21.68597,16.04844-36.42884,16.04844-27.3235,0-45.10772-19.51999-45.10772-50.09433v-59.20341h24.28964v57.68461c0,18.86534,9.53928,29.71019,25.15378,29.71019,17.78048,0,29.71019-13.01084,29.71019-31.01202v-56.38278h24.28589Z"/><path class="cls-1" d="M1566.04835,156.83207l11.27506-17.56725c9.54302,7.59028,23.63872,11.92972,37.73441,11.92972,13.66175,0,21.469-4.33944,21.469-12.14669,0-7.58654-6.93936-11.27506-23.42175-13.01084-27.97442-2.59992-43.80215-14.31267-43.80215-32.96103,0-19.51625,18.64836-32.74406,46.40581-32.74406,16.26541,0,30.57434,4.11873,42.50406,12.35992l-10.62788,17.35027c-9.53928-6.07521-19.73322-9.10908-30.79131-9.10908-15.39753,0-23.63872,4.3357-23.63872,12.14295,0,6.93936,6.28845,10.62788,21.90294,12.35992,31.6592,3.47155,45.53792,13.66175,45.53792,33.82892,0,19.95394-18.43139,33.39872-46.18884,33.39872-17.99745,0-34.04589-5.20733-48.35856-15.83147Z"/><path class="cls-2" d="M132.34176,173.46691c-.61167-.27801-1.08424-.86097-1.1581-1.58319-.0245-.23957-.00098-.48524.07281-.71231l.39082-.695c2.79525-5.21993,4.99376-10.81551,6.4764-16.75082.65403-2.39982,1.13487-4.58732,1.50818-6.64279.19474-.94431,1.10278-1.57117,2.04375-1.40041,11.73947,2.15279,21.41897,2.93684,28.80005-1.1715,10.0202-6.10363,18.2195-17.41667,22.50919-31.07574,1.70861-6.10438,4.43232-20.81841-5.35255-30.0002-8.78522-8.4344-22.51289-11.01633-33.34995-6.72422-1.12262.43165-2.21113.95593-3.26855,1.54941-12.34236,6.68169-19.70745,22.11368-22.74907,47.26229-.35912,2.90483-.49563,5.37276-.64199,7.7444-.30161,4.89132-.6076,9.97769-2.53321,17.05239-5.85248,23.56476-25.48627,41.17473-47.66102,43.44265-1.39513.14269-2.7949.2372-4.20199.26007-2.42237.07687-4.83533.00801-7.20998-.16207-16.29427-1.29891-31.07182-8.6814-41.40995-20.89424-11.44237-13.50726-15.88796-31.54754-12.22836-49.46746,4.39769-20.20849,17.89956-34.56647,29.82449-47.23241,3.24467-3.44203,6.28761-6.71865,9.09023-9.96952l.56865-.61825c7.07288-7.35669,14.64493-22.66507,4.94272-32.46288l-.21962-.24453c-3.89166-4.07323-11.27715-5.23786-16.12585-2.50634-8.44031,4.67827-11.41699,15.96743-11.45064,25.61943-.00033.94816-.72256,1.72689-1.66802,1.75001l-25.52918.83697c-.96942.02676-1.80095-.73901-1.80584-1.73529C-.2586,33.68049,9.52972,14.38024,26.34813,5.12617,42.52487-3.9887,64.54128-.6751,77.52137,12.89443c21.34624,21.70622,13.6837,53.47541-4.45999,72.58478-3.15023,3.6519-6.50289,7.22719-9.72337,10.66793-10.26002,10.89132-19.92661,21.16305-22.5718,33.31777-1.86065,9.13399.23531,17.98436,5.98333,24.75957,2.68213,3.17643,5.97877,5.70737,9.73805,7.53479,4.75626,2.30809,10.19565,3.45223,15.9107,3.25694l.36352-.01345c12.23706-.10881,21.63945-11.30164,24.21151-21.79589l.08842-.32469c1.164-4.29958,1.33827-7.11193,1.60537-11.39216.14329-2.6395.34571-5.64934.78706-9.41222,3.36988-27.87942,11.77343-47.89005,25.58424-60.65156,3.59396-3.35671,7.58094-6.19472,11.93195-8.5597,22.10902-12.41882,51.89443-8.46633,70.62446,9.52154,14.7874,13.89493,19.79775,36.03306,13.26324,59.10748l-.10997.35181-.1625.55179c-1.80305,5.89451-1.39156,12.2935,1.45225,17.76141,4.71118,8.99703,15.04208,20.18774,37.70404,24.82132.91941.19788,1.54431,1.08091,1.37323,2.02161l-4.64875,25.11837c-.19503.94434-1.12475,1.59715-2.06812,1.4029-27.54246-5.54296-44.32146-19.18674-53.98279-33.33895-.62501-.8842-1.85458-1.02544-2.62765-.26524-3.85524,3.65043-8.0458,6.87355-12.53607,9.54469l-.2952.19988c-17.59652,9.96494-37.14216,6.81277-51.99632,3.90819l-.61844-.10644Z"/></svg>