<svg width="484" height="137" viewBox="0 0 484 137" fill="none" xmlns="http://www.w3.org/2000/svg">
<g clip-path="url(#clip0_91_1245)">
<path d="M146.428 137V133.105H150.18L146.428 123.364L141.167 137H136.752L144.493 117.521H148.366L156.107 137L146.428 137Z" fill="#FCF3FF"/>
<path d="M194.784 117.521V137H190.911V117.521H194.784Z" fill="#FCF3FF"/>
<path d="M229.687 137V117.521H245.171L249.041 121.417V133.105L245.171 137H229.687ZM233.557 133.105H243.235L245.171 131.157V123.548L243.235 121.417H233.557V133.105Z" fill="#FCF3FF"/>
<path d="M289.229 137V133.105H292.981L289.229 123.364L283.967 137H279.553L287.294 117.521H291.166L298.907 137L289.229 137Z" fill="#FCF3FF"/>
<path d="M337.583 117.521V137H333.711V117.521H337.583Z" fill="#FCF3FF"/>
<path d="M0.621094 90.5072C2.48882 90.5072 5.29122 86.6437 7.78152 81.9436L42.3369 18.9685H11.6221C7.47104 18.9685 6.32938 22.6238 6.32938 26.8006H5.8103V17.9237H50.0164V18.4461C48.3557 18.4461 45.9688 21.4748 43.7906 25.3392L43.0646 26.5923L42.856 27.0106L8.3006 89.9848H45.3463C49.4973 89.9848 50.639 86.3296 50.639 82.1519H51.1581V91.0297H0.621094V90.5072ZM20.1312 0.796387C23.244 4.0342 24.4892 7.27121 25.9413 10.509C27.3951 7.27121 28.6402 4.0342 31.7531 0.796387L33.9313 2.15368C29.6768 5.49566 27.9142 8.73348 25.9413 12.0754C23.9701 8.73348 22.2059 5.49566 17.9513 2.15368L20.1312 0.796387Z" fill="#FCF3FF" stroke="#FCF3FF" stroke-width="2.00743" stroke-miterlimit="10"/>
<path d="M80.8261 91.0297L60.7986 26.9048C59.3465 22.3105 56.9597 18.4461 54.3643 18.4461V17.9237H65.7792V18.4461C63.1854 18.4461 63.808 22.8329 65.1566 26.8006L84.6651 89.15L104.072 26.8006C105.42 22.8329 106.043 18.4461 103.449 18.4461V17.9237H111.646V18.4461C109.052 18.4461 106.665 22.3105 105.213 26.9048L85.1842 91.0297H80.8261Z" fill="#FCF3FF" stroke="#FCF3FF" stroke-width="2.00743" stroke-miterlimit="10"/>
<path d="M148.954 90.5073C151.548 90.5073 150.926 86.1213 149.577 82.1519L142.623 59.9079C128.822 60.9511 116.784 67.9492 112.633 78.9149L111.7 82.1519C110.351 86.1213 109.729 90.5073 112.323 90.5073V91.0297H104.124V90.5073C106.719 90.5073 109.106 86.6437 110.558 82.0478L127.784 26.8006C129.134 22.8329 129.548 18.4461 126.954 18.4461V17.9237H133.907L153.935 82.0478C155.387 86.6437 157.774 90.5073 160.368 90.5073V91.0297H148.954V90.5073ZM142.313 58.9672L130.689 21.3706L114.397 73.4841C120.313 64.2939 131.417 59.8037 142.313 58.9672Z" fill="#FCF3FF" stroke="#FCF3FF" stroke-width="2.00743" stroke-miterlimit="10"/>
<path d="M164.25 90.5073C166.845 90.5073 167.882 86.3296 167.882 82.1519V26.8006C167.882 22.6238 166.845 18.4461 164.25 18.4461V17.9237H175.665V18.4461C173.071 18.4461 172.033 22.6238 172.033 26.8006V82.1519C172.033 86.3296 173.071 90.5073 175.665 90.5073V91.0297H164.25V90.5073Z" fill="#FCF3FF" stroke="#FCF3FF" stroke-width="2.00743" stroke-miterlimit="10"/>
<path d="M179.316 54.477C179.316 33.4845 194.572 16.2531 213.354 16.2531C224.561 16.2531 234.524 22.4146 240.749 31.9189L235.56 34.1111C231.721 23.3553 223.731 17.2971 213.354 17.2971C197.476 17.2971 184.506 30.0392 184.506 54.477C184.506 79.019 197.476 91.6562 213.354 91.6562C225.702 91.6562 238.675 80.2722 238.675 68.6798V47.7931H217.505C213.354 47.7931 209.203 48.8379 209.203 51.4483H208.684V46.7483H246.456V47.2707C243.862 47.2707 242.824 51.4483 242.824 55.626V82.1519C242.824 86.3295 243.862 90.5072 246.456 90.5072V91.0296H235.043V90.5072C237.636 90.5072 238.675 86.3295 238.675 82.1519V79.9597C232.447 87.7926 223.419 92.701 213.354 92.701C194.572 92.701 179.316 75.6778 179.316 54.477Z" fill="#FCF3FF" stroke="#FCF3FF" stroke-width="2.00743" stroke-miterlimit="10"/>
<path d="M250.339 90.5072C252.207 90.5072 255.009 86.6437 257.499 81.9436L292.055 18.9685H261.34C257.189 18.9685 256.047 22.6238 256.047 26.8006H255.528V17.9237H299.734V18.4461C298.073 18.4461 295.687 21.4748 293.508 25.3392L292.782 26.5923L292.574 27.0106L258.018 89.9848H295.064C299.215 89.9848 300.357 86.3296 300.357 82.1519H300.876V91.0297H250.339V90.5072ZM269.849 0.796387C272.962 4.0342 274.207 7.27121 275.659 10.509C277.113 7.27121 278.358 4.0342 281.471 0.796387L283.649 2.15368C279.395 5.49566 277.63 8.73348 275.659 12.0754C273.688 8.73348 271.924 5.49566 267.669 2.15368L269.849 0.796387Z" fill="#FCF3FF" stroke="#FCF3FF" stroke-width="2.00743" stroke-miterlimit="10"/>
<path d="M304.705 90.5073C307.3 90.5073 308.337 86.3296 308.337 82.1519V26.8006C308.337 22.6238 307.3 18.4461 304.705 18.4461V17.9237H317.158C341.025 17.9237 360.638 29.0986 360.638 54.4771C360.638 80.0639 341.025 91.0297 317.158 91.0297H304.705V90.5073ZM317.158 89.9848C337.289 89.9848 355.968 81.6311 355.968 54.4771C355.968 27.3231 337.289 18.9685 317.158 18.9685H312.488V89.9848H317.158Z" fill="#FCF3FF" stroke="#FCF3FF" stroke-width="2.00743" stroke-miterlimit="10"/>
<path d="M358.946 90.5072C360.814 90.5072 363.616 86.6437 366.107 81.9436L400.662 18.9685H369.947C365.796 18.9685 364.655 22.6238 364.655 26.8006H364.135V17.9237H408.342V18.4461C406.681 18.4461 404.294 21.4748 402.116 25.3392L401.39 26.5923L401.181 27.0106L366.626 89.9848H403.671C407.823 89.9848 408.964 86.3296 408.964 82.1519H409.483V91.0297H358.946V90.5072ZM378.456 0.796387C381.569 4.0342 382.814 7.27121 384.267 10.509C385.72 7.27121 386.965 4.0342 390.078 0.796387L392.257 2.15368C388.002 5.49566 386.239 8.73348 384.267 12.0754C382.295 8.73348 380.531 5.49566 376.277 2.15368L378.456 0.796387Z" fill="#FCF3FF" stroke="#FCF3FF" stroke-width="2.00743" stroke-miterlimit="10"/>
<path d="M413.312 90.5073C415.908 90.5073 416.944 86.3296 416.944 82.1519V26.8006C416.944 22.6238 415.908 18.4461 413.312 18.4461V17.9237H424.727V18.4461C422.134 18.4461 421.095 22.6238 421.095 26.8006V82.1519C421.095 86.3296 422.134 90.5073 424.727 90.5073V91.0297H413.312V90.5073Z" fill="#FCF3FF" stroke="#FCF3FF" stroke-width="2.00743" stroke-miterlimit="10"/>
<path d="M456.607 92.0745H456.295C439.587 91.8646 432.323 81.8394 432.323 62.4142V26.8006C432.323 22.6238 431.287 18.4461 428.691 18.4461V17.9237H440.106V18.4461C437.513 18.4461 436.474 22.6238 436.474 26.8006V62.4142C436.474 83.1967 443.738 90.9255 456.607 91.0297C473.832 90.9255 478.709 80.2722 478.709 62.5183V26.8006C478.709 22.6238 477.671 18.4461 475.077 18.4461V17.9237H483.379V18.4461C480.786 18.4461 479.747 22.6238 479.747 26.8006V62.5183C479.747 80.1681 475.493 91.8646 456.814 92.0745H456.607ZM477.983 89.9848C470.512 97.2954 470.407 104.92 479.954 103.04L477.983 106.173C468.126 107.845 468.955 96.9829 476.945 89.9848H477.983Z" fill="#FCF3FF" stroke="#FCF3FF" stroke-width="2.00743" stroke-miterlimit="10"/>
</g>
<defs>
<clipPath id="clip0_91_1245">
<rect width="484" height="137" fill="white"/>
</clipPath>
</defs>
</svg>
