<?xml version="1.0" encoding="UTF-8"?><svg id="Layer_1" xmlns="http://www.w3.org/2000/svg" viewBox="0 0 696.74683 185.83967"><defs><style>.cls-1{stroke:#fff;stroke-miterlimit:10;stroke-width:5.28694px;}.cls-1,.cls-2{fill:#fff;}</style></defs><path class="cls-2" d="M443.98318,91.67953c10.58008-5.94971,14.5498-15.70996,14.5498-29.43994,0-23.98975-11.08008-34.57959-29.43994-34.57959h-27.45996v52.18994l16.87012-.13037v-36.17969h8.59961c12.43018.42969,14.36035,6.1001,15.02051,7.33008,1.69971,3.15967,2.59961,9.09961.72949,17.17969-.5498,2.36035-2.42969,7.08008-9.50977,11.58008h-.0498l-10.34033,5.95996c-6.52979,3.76025-13.82959,6-21.31982,6.57031v53.27979h16.87012v-50.29004h10.08984l15.72021,50.29004h17.85986s-18.18994-53.76025-18.18994-53.76026ZM401.63309,82.42953v.06006l16.9502-.12988c0-.00977.00977-.00977.00977-.00977,0,0-16.95996.07959-16.95996.0796Z"/><path class="cls-2" d="M516.60327,27.66351v15.87991h-19.51944v101.89661h-16.87173V43.54343h-19.51944v-15.87991h55.91068-.00006Z"/><path class="cls-2" d="M574.33472,27.66351v15.87991h-33.41357v34.57248h29.11212v15.87991h-29.11212v34.57248h33.41357v16.87175h-50.28534V27.66351h50.28534Z"/><path class="cls-2" d="M602.1272,27.66351v100.90477h33.41357v16.87175h-50.28534V27.66351h16.87177Z"/><path class="cls-2" d="M696.74683,27.66351v15.87991h-33.41357v34.57248h29.11212v15.87991h-29.11212v34.57248h33.41357v16.87175h-50.28534V27.66351h50.28534ZM663.33325,3.51268h14.88806v16.87384h-14.88806V3.51268Z"/><path class="cls-1" d="M405.57309,85.09979v-2.02"/><path class="cls-2" d="M401.63309,82.42953v.06006l16.9502-.12988c0-.00977.00977-.00977.00977-.00977,0,0-16.95996.07959-16.95996.0796Z"/><path class="cls-2" d="M16.83756,27.96457v100.70025h33.34586v16.83755H0V27.96457h16.83756Z"/><path class="cls-2" d="M78.41342,27.96457v117.53781h-16.83756V27.96457h16.83756Z"/><path class="cls-2" d="M110.27766,27.96457l25.42304,70.81985h.32925V27.96457h16.83755v117.53781h-15.84564l-25.75438-70.65522h-.32925v70.65522h-16.83756V27.96457h16.17698Z"/><path class="cls-2" d="M223.52483,118.42893c0,16.17905-12.54691,28.06329-28.22791,28.06329-15.51848,0-28.23-11.55498-28.23-28.06329v-63.3909c0-16.34368,12.54691-28.06329,28.23-28.06329,15.51639,0,28.22791,11.55498,28.22791,28.06329v63.39091ZM183.90446,118.09968c0,7.26224,4.95332,11.55498,11.39244,11.55498,6.43703,0,11.39037-4.29274,11.39037-11.55498v-62.73032c0-7.26432-4.95332-11.55707-11.55707-11.55707-5.94107,0-11.22572,4.12812-11.22572,11.39036v62.89703h-.00002Z"/><path class="cls-2" d="M276.02341,61.8064v-3.1362c0-10.72977-4.95123-14.85789-11.88422-14.85789-7.42896,0-11.39037,4.7887-11.39037,15.35385,0,10.8944,1.97966,12.54481,11.55498,16.3416,3.79678,1.48579,8.91473,3.46754,11.7196,4.62199,14.85788,6.10778,16.83963,15.84773,16.83963,31.69545,0,23.77263-10.40054,34.66704-29.05521,34.66704-11.7196,0-28.72388-7.42896-28.72388-28.8885v-5.28258h16.83755v5.4472c0,5.77853,3.30292,11.88631,11.88632,11.88631,5.77853,0,9.73993-1.48579,11.39035-7.26432.8252-2.97158.8252-6.60166.8252-10.23382,0-10.56515-.98984-13.86806-7.42685-16.83756-4.45737-1.98175-11.39243-4.45737-17.33351-7.26432-10.89648-5.11795-15.35385-13.86598-15.35385-28.8885,0-19.31526,10.72977-32.19141,28.89058-32.19141,6.10779,0,12.38019,1.81504,17.16681,5.61182,8.75012,6.93507,10.89648,14.69327,10.89648,21.62626v7.59357h-16.83963Z"/><path class="cls-2" d="M382.76297,82.51985c-2.66992-23.33008-6.87012-46.09033-10.58984-67.68018-1.75-10.25977-5.6499-12.69971-10.43994-14.27979-2.39014-.79004-6.25-1.1499-10.56982,1.75977-2.84033,1.91992-4.49023,4.32031-5.46045,9.43994-4.81982,25.07031-9.53955,48.06006-13.37988,70.58008h-3.47021c-6.52979-.02979-10.86963.06006-14.92969,0h-1.22021c-4.15967-.0498-8.07959,0-13.70996,0h-1.61963c-2.58008,0-4.09033,1.04004-4.09033,3.7002,0,2.66992,1.38037,3.75,3.93018,3.75l1.77979-.02002c6.20996,0,10.25.06006,14.80029,0l17.27979-.09033c0,.06006-.45996,2.82031-.45996,2.82031-1.35986,8.66992-2.66016,15.8999-3.66016,24.37012-.27002,2.11963-.87988,6.97998-1.35986,10.47998-2.87988,20.50977-2.0498,16.81982-2.79004,26.57959-.02979.49023-.45996,7.41016-.27979,11.72021.27979,6.80029.06982,13.95996,2.7998,20.18994l1.4502-9.6001c1.21973-8.23975,1.87988-14.13965,2.61963-20.95996,1.29004-11.48975,2.8501-25.75977,7.97021-59.0498.25-1.58008.6499-4.93018.8999-6.55029h38.25c1.29004,11.88037,2.75,25.16016,3.7002,36.16016.60986,7.04004,1.93994,17.62988,2.12012,21.76025-4.25.83984-5.97021.97998-8.2002,3.32959-1.41992,1.49023-5.99023,9.01025.6499,13.27051,1.34033.65967,2.10986.78955,3.26025,2.66992,1.83008,3.02002-.01025,5.37988-1.54004,6.67969-.56006.47998-5.70996,3.26025-8.47021.07031-2.5498-2.94043-4.02002-7.34033-3.29004-10.22998l.4502-1.65039c.60986-2.2998,3.83984-5.81982,2.90967-9.31982-.38965-1.37988-1.12988-6.56982-5.34961-7.70996-2.37988-.6499-6.15039.08984-8.02002.52002l-1.74023.3501c-.64014.12988-1.14014.77002-1.10986,1.41992l.0498,1.25977c.40039,9.74023,1.56006,25.04004,10.30029,33.04004,2.89014,2.66016,5.25977,3.66016,9.25977,3.66016.29004,0,.88037-.02002,1.1499-.04004,6.28027-.2998,10.02051-2.16992,13.19043-5.96973,6.65967-7.99023,4.58008-20.59033,3.55957-32.74023-.25977-3.08008-.6499-6.25977-.87988-8.91992l-.59961-5.7002c-1.18018-13.08984-2.38037-28.06982-3.8501-41.91016l6.90967-.00977c1.44043,0,2.87988-.06006,4.31006-.18018v-7.02979l-12.52002.06006v.00002ZM310.89285,87.79964h-11.46973c-.97021,0-1.78027-.79004-1.78027-1.77979,0-.97021.81006-1.76025,1.78027-1.76025h11.46973c.98047,0,1.77051.79004,1.77051,1.76025,0,.98975-.79004,1.77979-1.77051,1.77979ZM351.18289,12.57991c.23047-3.89014,3.44043-6.95996,7.39014-6.95996,3.99023,0,7.18018,3.08984,7.37988,7,.02002.11963.02002.29004.02002.40967,0,.97021-.17969,1.8999-.50977,2.75-.18018.41016-.37012.82031-.62988,1.18018-.1001.2002-.23047.37988-.39014.56006-.12988.18018-.25.35986-.43018.52002-.13965.16016-.31006.33984-.48975.46973-.14014.16992-.32031.30029-.5.43018-1.18018.89014-2.62012,1.4502-4.22021,1.48975h-.22998c-1.6499,0-3.15967-.51953-4.3999-1.45996-.37012-.25-.70996-.56982-1-.8999-.16016-.17969-.32031-.33984-.4502-.52002-.13965-.17969-.29004-.33984-.37988-.52979-.27002-.41992-.47998-.87988-.66016-1.3501-.08984-.18018-.13965-.35986-.19971-.52002-.2002-.68018-.31982-1.37988-.31982-2.12012,0-.13965,0-.29004.01953-.44971h0ZM339.58328,82.51985s.05957-.4502.05957-.47021c1.42041-8,2.67041-16.41992,4.63037-26.10986.45996-2.26025.8999-4.83008,1.41992-7.5,1.3999-7.4502,3.33008-19.81006,5.1499-26.18018,2.1001,1.77002,4.64014,2.62012,7.43994,2.69043,2.88037.01953,6.02002-1.1001,8.31006-2.89014,4.04004,18.20996,6.93018,41.62988,9.18994,60.45996h-36.19971ZM401.63309,82.42953v.06006l16.9502-.12988c0-.00977.00977-.00977.00977-.00977,0,0-16.95996.07959-16.95996.0796Z"/><path class="cls-2" d="M418.58328,82.35969c-4.11035,2.33008-8.48047,4.12988-13.01025,5.3501-1.2998.35986-2.60986.66016-3.93994.91992-1.22998.24023-2.46973.43994-3.70996.58984-.87988.12012-1.75977.20996-2.64014.27002v-7.02979l6.3501-.03027v.06006s16.9502-.12988,16.9502-.12988Z"/></svg>