<?xml version="1.0" encoding="UTF-8"?><svg id="Layer_1" xmlns="http://www.w3.org/2000/svg" viewBox="0 0 172.62318 131.61985"><defs><style>.cls-1{fill:#fff;}</style></defs><path class="cls-1" d="M27.3457,34.81979l-10.12159.19831.35584,18.16132-15.25009.2988L1.29764.79591l15.25009-.2988.4061,20.72651,10.12159-.19831-.4061-20.72651,15.25009-.2988,1.03221,52.68231-15.25009.2988-.35584-18.16132Z"/><path class="cls-1" d="M47.21318,30.41204l.33834-3.31024c1.21259-11.86373,9.49841-17.91636,21.01596-16.73916,11.51942,1.17739,18.33832,8.77387,17.12574,20.6376l-.33834,3.31024c-1.21259,11.86373-9.4273,17.92363-20.94672,16.74623-11.51754-1.1772-18.40756-8.78095-17.19497-20.64468ZM65.7617,37.81388c2.8967.29607,4.52119-1.27932,4.93011-5.28005l.20446-2.00037c.40891-4.00073-.86309-5.87406-3.75979-6.17013s-4.52138,1.28119-4.9303,5.28192l-.20446,2.00037c-.40891,4.00073.86328,5.87219,3.75998,6.16826Z"/><path class="cls-1" d="M105.75863,50.71381l.75756,15.37168-14.81746.73024-2.93496-59.55351,14.81746-.73024.32082,6.50976c1.77438-.64301,3.83863-1.02159,5.91461-1.1239,10.87215-.53581,17.94534,6.33422,18.51531,17.89962l.0887,1.79981c.56997,11.56539-5.79343,19.09762-16.66558,19.63343-2.07598.10231-4.16746-.07146-5.99646-.53689ZM109.50857,38.03342c2.97777-.14675,4.27369-2.0148,4.07916-5.96199l-.02389-.48471c-.19453-3.94719-1.66794-5.68064-4.64571-5.53389s-4.27547,2.01677-4.08094,5.96396l.02389.48471c.19453,3.94719,1.66972,5.67867,4.64749,5.53192Z"/><path class="cls-1" d="M130.34809,39.0191l.64521-11.63114c.64125-11.55978,8.37848-18.35341,20.21621-17.69674,12.04621.66824,18.74118,7.63701,18.11524,18.9207l-.54915,9.89953-23.467-1.30178-.13054,2.35327c-.21889,3.94591,1.06537,5.8238,4.11166,5.99279,2.97681.16513,4.03812-1.44324,4.5757-4.88543l14.74505.81795c-1.31677,12.49628-8.35931,18.00784-20.12755,17.35502-11.83774-.65667-18.77608-8.2644-18.13482-19.82418ZM154.61804,27.10282l.00771-.13898c.1843-3.32238-1.11923-4.85282-4.02654-5.0141-2.83783-.15742-4.30638,1.28706-4.70311,4.66925l8.72195.48383Z"/><path class="cls-1" d="M39.23942,89.46955c.6146,11.91722-5.5801,18.78562-17.63258,19.4072l-4.84842.25004.69453,13.46698-14.81387.76399L0,72.18547l19.66229-1.01403c12.05247-.62158,18.93473,5.84176,19.57713,18.29811ZM19.90866,95.59713c3.4339-.17709,4.70445-1.72682,4.51689-5.3636-.19444-3.77015-1.61427-5.1152-5.04817-4.93811l-3.83778.19792.53128,10.30171,3.83778-.19792Z"/><path class="cls-1" d="M59.06854,94.78754c-2.48852-.16833-3.22598.7282-3.68157,4.48118l-14.32868-.96924c1.32124-11.53349,7.12415-16.41037,18.69407-15.62774,11.43667.77361,17.18998,6.6358,16.50294,16.79256l-2.1751,32.15556-14.39625-.97381.29122-4.30517c-2.00449.67509-4.38248.8517-7.40962.64694-8.61035-.58243-14.10699-6.22553-13.58828-13.89377.55514-8.20685,6.22688-12.14807,16.25039-11.47005,2.28771.15475,4.29146.4939,6.34475,1.10412l.30023-4.43842c.15018-2.22015-.78662-3.36568-2.80409-3.50215ZM56.92232,116.5382c2.62364.17747,3.75358-.55677,3.8719-2.30587.12288-1.81666-.89788-2.69638-3.52152-2.87385-2.6912-.18204-3.82302.55208-3.94591,2.36873s.90433,2.62895,3.59553,2.81099Z"/><path class="cls-1" d="M136.5957,79.42178l-6.03544,44.10493-18.59338.75555-5.12993-19.96685-3.56064,20.31999-18.66104.7583-9.59217-43.4699,14.21426-.5776,5.21595,30.42281,3.30052-26.72139,16.43765-.66795,5.45221,26.23018,2.73773-30.61046,14.21426-.5776Z"/><path class="cls-1" d="M137.89462,106.9624l14.34965-.58162c.12288,3.03156,1.03969,4.00721,3.53184,3.9062,1.88697-.07648,2.86536-.92563,2.79711-2.60963-.07648-1.88697-.55912-2.13662-5.03052-2.56344-10.77105-1.04687-15.67507-5.50551-16.03272-14.32956-.38226-9.43111,5.9096-15.69144,16.14887-16.10646,10.3746-.4205,17.14425,5.10711,17.54837,15.07762l-14.34965.58162c-.10375-2.55982-.8825-3.47329-2.63415-3.40229-1.81931.07374-2.73004.92015-2.66179,2.60414.06559,1.61821.89554,2.12298,4.55329,2.44724,11.17795,1.10003,16.13866,5.28529,16.49083,13.97402.39323,9.70175-5.89314,16.09741-16.3354,16.52065-11.45152.46415-17.94159-4.80747-18.37573-15.51849Z"/><path class="cls-1" d="M50.75487,55.51735l1.15601-.0788.27524,4.0376-1.00213.06831c-1.36244.09288-1.96053.80578-1.8571,2.32304l.09288,1.36244,3.00826-.20507.26123,3.83211-3.00826.20507.67661,9.92557-4.26936.29103-.67661-9.92557-1.97986.13496-.26123-3.83211,1.97986-.13496-.10343-1.51727c-.27875-4.08921,1.61869-6.20761,5.70789-6.48637Z"/><path class="cls-1" d="M54.59318,69.43913l-.15754-1.59012c-.4219-4.25842,1.9964-7.03657,6.10134-7.44326,4.10306-.40651,7.01949,1.8431,7.44139,6.10152l.15754,1.59012c.42181,4.25749-1.9965,7.03563-6.09956,7.44214-4.10493.40669-7.02136-1.84291-7.44317-6.1004ZM61.65515,71.69198c1.61539-.16004,2.43908-1.25197,2.24093-3.25202l-.12203-1.23167c-.19825-2.00099-1.22269-2.93533-2.83808-2.77529-1.6416.16264-2.43845,1.27742-2.24021,3.27841l.12203,1.23167c.19815,2.00006,1.19576,2.91153,2.83736,2.74889Z"/><path class="cls-1" d="M71.63571,58.38335l4.25516.45367-.31428,2.94775c.94383-.83291,2.176-1.19432,3.6106-1.04136.56486.06022.97169.13008,1.39931.25323l-.43173,4.04941-.94829-.1011c-2.33239-.24867-4.04796.76112-4.35127,3.60599l-.74052,6.94573-4.25516-.45367,1.77618-16.65964Z"/></svg>