<?xml version="1.0" encoding="UTF-8"?><svg id="Layer_1" xmlns="http://www.w3.org/2000/svg" viewBox="0 0 448.22959 103.46587"><defs><style>.cls-1{fill:#000003;}.cls-2{fill:#fff;}</style></defs><path class="cls-2" d="M195.4386,55.94354c.73615,1.1386,1.94058,1.70643,3.61481,1.70643.60149,0,1.20444-.08196,1.80594-.25027.60297-.16683,1.2059-.45223,1.8074-.85321V19.40026h24.49585v50.90003h-16.06323l-6.22421-6.22421c-2.2084,2.34305-4.81779,4.15043-7.82967,5.42075-3.01187,1.27032-6.29298,1.90838-9.83902,1.90838-5.48953,0-9.7556-1.42252-12.80112-4.26751-3.04552-2.84355-4.56754-6.84179-4.56754-11.99767V19.40024h24.49585v31.32298c0,2.34305.36732,4.08311,1.10493,5.22024l-.00002.00008h.00002Z"/><path class="cls-2" d="M263.90784,33.75706c-.73761-1.13712-1.94205-1.70643-3.61481-1.70643-.60294,0-1.20444.09952-1.80743.30001-.6015.20195-1.20444.50198-1.80743.90443v37.04522h-24.39485V19.40024h15.86127l6.32521,6.32519c2.2084-2.41037,4.81924-4.24997,7.83112-5.52173,3.01187-1.2703,6.29004-1.90838,9.83902-1.90838,5.4866,0,9.73801,1.42398,12.74988,4.26753,3.01187,2.84501,4.51779,6.84327,4.51779,11.99767v35.73978h-24.39633v-31.323c0-2.34157-.3688-4.08167-1.10349-5.22024h.00006Z"/><path class="cls-2" d="M304.56638,70.40129c-4.21631-.66882-8.1326-1.60691-11.74591-2.81135l1.70642-11.74592c3.41284,1.47227,7.04373,2.6094,10.89273,3.41285,3.84753.80346,7.44476,1.20444,10.79324,1.20444,2.80991,0,4.78412-.16539,5.92273-.50198,1.13712-.33367,1.70642-1.03617,1.70642-2.10742,0-.66882-.26782-1.25568-.80347-1.75767s-1.38885-.93665-2.55963-1.30544c-1.17224-.36587-2.9621-.7859-5.371-1.2542-5.28757-1.06981-9.50534-2.37525-12.65036-3.91628-3.14651-1.53811-5.43832-3.3631-6.87692-5.47051-1.44009-2.1089-2.15866-4.63486-2.15866-7.58085.06583-5.95492,2.50989-10.49028,7.32913-13.6031,4.81924-3.11136,11.94791-4.66852,21.38446-4.66852,3.27823,0,6.59155.20195,9.93854.60296s6.55936,1.00395,9.63849,1.8074v12.14693c-3.34845-1.20444-6.79352-2.12351-10.341-2.76014-3.54749-.63516-6.89447-.95419-10.03952-.95419-2.60941,0-4.53534.26781-5.77197.80346-1.23956.53564-1.85715,1.37274-1.85715,2.50988,0,.67028.26636,1.18836.80197,1.55567.53561.36879,1.55716.73762,3.06308,1.10493,1.50592.36879,3.93091.88685,7.27789,1.55567,4.68463.80346,8.4487,1.9245,11.29517,3.3631,2.84354,1.44008,4.93488,3.29722,6.27396,5.57151,1.33765,2.27717,2.0079,5.05488,2.0079,8.3331,0,5.48955-2.39426,9.77318-7.17841,12.85088-4.78561,3.07919-11.56299,4.61878-20.32928,4.61878-4.01581,0-8.1326-.33659-12.34891-1.00397l.00003-.00004h.00003Z"/><path class="cls-2" d="M362.39313,68.14168c-5.08707-2.17473-8.95215-5.30368-11.59521-9.38679-2.64453-4.08167-3.96603-8.83509-3.96603-14.2558,0-5.42223,1.22055-10.08929,3.66458-14.00557,2.44257-3.91482,5.99005-6.92669,10.64246-9.03556,4.65097-2.10742,10.19025-3.16258,16.61496-3.16258,6.49203,0,11.72839,1.00395,15.71201,3.01185,3.98068,2.0079,6.8418,5.07098,8.58334,9.1863,1.74008,4.11679,2.4762,9.35459,2.2084,15.712h-31.42252c.80347,4.41678,2.40891,7.68036,4.81924,9.78926,2.40891,2.10742,5.82175,3.16114,10.23999,3.16114,2.34158,0,4.70074-.21515,7.07742-.65126,2.37524-.43467,4.70074-1.12105,6.97791-2.05914l2.50989,10.14049c-3.41428,1.60543-7.14621,2.81135-11.19421,3.61333-4.05093.80346-8.31699,1.20592-12.80112,1.20592-6.96182,0-12.98553-1.08885-18.07111-3.26358ZM379.96225,30.19201c-.53561-1.77229-1.47226-2.65916-2.80991-2.65916-1.47372,0-2.61087,1.02005-3.41428,3.06161-.80347,2.04156-1.23956,4.90267-1.30545,8.58336l8.1326-.20051c.13321-4.08167-.06732-7.0101-.60294-8.78531v.00002h-.00003Z"/><path class="cls-2" d="M441.00135,70.65156c-2.74551.50198-5.82321.7537-9.23752.7537-4.95389,0-8.95215-.5371-11.99619-1.60691-3.047-1.06981-5.27148-2.76012-6.67642-5.06952-1.4064-2.30937-2.07523-5.33736-2.0079-9.0868v-26.30323l-4.31726-.20049v-9.73804h4.91876l.10101-7.73014,23.69382-1.70643v9.43657h11.64496v9.73804l-11.64496.50198v23.99384c0,2.0767.35123,3.54897,1.05374,4.41826.70245.87077,1.99033,1.30544,3.86508,1.30544,1.80743,0,3.78021-.36735,5.92273-1.10493l1.90839,10.341c-2.07523.87077-4.48557,1.55567-7.22815,2.05766h-.00009Z"/><path class="cls-2" d="M125.03373,42.69151v27.60875h-26.7051V.02366h26.7051v32.3278L148.62638.02366h17.97081v1.4059l-21.18317,29.01381,22.28755,38.45106v1.40588h-27.90942l-14.75845-27.60875.00002-.00004h0Z"/><path class="cls-1" d="M124.96704.00004c-1.21864,2.57772-16.89628,7.35881-19.45578,8.37934l16.65999.55236c1.56247.0518,2.79995,1.3377,2.79177,2.90101l-.07368,14.07943c-.00886,1.69413-.96093,3.24218-2.46888,4.01438l-8.29698,2.64984,10.90536,1.19646c-.41175,6.95027-.29549,13.87329-.39501,20.8376-.02558,1.78954-10.35922,3.33322-12.65905,3.90828l10.93906,1.63043c1.18578.17675,2.06306,1.19556,2.06176,2.39445l-.0086,7.95875h-36.14867V0h36.14867s.00004.00004.00005.00004Z"/><path class="cls-2" d="M86.20366,83.8156h2.25085l7.93064,10.77127c-.02048-.50342-.02048-1.07273-.02048-1.61863v-9.15264h2.39719v14.72707h-2.25085l-7.93064-10.77127c.02048.5049.04244,1.07273.04244,1.59959v9.17168h-2.41915v-14.72707Z"/><path class="cls-2" d="M115.74267,98.54267h-2.52452l-1.32592-3.17722h-7.38329l-1.30544,3.17722h-2.545l6.22713-14.72707h2.62988l6.22713,14.72707s.00004,0,.00004,0ZM111.07122,93.26243l-2.58744-6.29005c-.10538-.23123-.18879-.44199-.27221-.77858-.10538.33659-.19025.54734-.29563.77858l-2.56696,6.29005h5.72224Z"/><path class="cls-2" d="M117.63935,83.8156h2.16595l5.59637,8.43698,5.61687-8.43698h2.14548v14.72707h-2.39719v-10.3088l-4.6495,6.98522h-1.4313l-4.62754-7.0057v10.32928h-2.41915s0-14.72707,0-14.72707Z"/><path class="cls-2" d="M142.65618,101.48865c0-.88393.46246-1.89374,1.26299-2.71476-.33661.02196-.69516.04244-1.05225.04244-3.28114,0-6.29007-1.4518-6.29007-5.72222v-9.27851h2.39865v9.15264c0,2.67088,1.62007,3.61773,3.8914,3.61773s3.8914-.94689,3.8914-3.61773v-9.15264h2.39865v9.27851c0,2.18789-.79906,3.63969-2.01962,4.52218-1.93472,1.4108-2.43962,2.65184-2.41914,3.3031-.02048.5049.29417.77858.82101.80054.35709-.02196.75662-.1478,1.07272-.35855v1.62007c-.5049.33659-1.11519.48443-1.74596.48443-1.47372,0-2.23035-.88393-2.20987-1.97718,0,0,.00008-.00004.00008-.00005Z"/><path class="cls-2" d="M157.53399,83.8156h5.15294c5.21735,0,7.76378,3.09382,7.76378,7.36425s-2.54646,7.36281-7.76379,7.36281h-5.15294v-14.72707h.00002v.00002ZM162.68691,96.35477c3.49333,0,5.30222-1.87178,5.30222-5.17488s-1.80885-5.17488-5.30222-5.17488h-2.7338v10.34976h2.7338Z"/><path class="cls-2" d="M185.91683,98.54267h-2.52452l-1.32591-3.17722h-7.38329l-1.30544,3.17722h-2.545l6.22713-14.72707h2.62988l6.22713,14.72707h.00005-.00003ZM181.24538,93.26243l-2.58743-6.29005c-.10538-.23123-.1888-.44199-.27222-.77858-.10538.33659-.19025.54734-.29562.77858l-2.56696,6.29005h5.72224-.00002Z"/><path class="cls-2" d="M186.76126,96.62844l7.82526-10.60295h-7.57355v-2.20985h10.64539v1.9157l-7.86771,10.58099h8.16187v2.23033h-11.19128v-1.91422h.00003ZM188.75893,79.2305h2.31523l1.45178,1.66107,1.45032-1.66107h2.31523l-2.75574,3.15526h-2.01962l-2.75722-3.15526h.00002Z"/><path class="cls-2" d="M204.56017,93.13655l-5.78516-9.32095h2.7133l4.27045,7.13302,4.27045-7.13302h2.69284l-5.7632,9.32095v5.40611h-2.39865v-5.40611h-.00003Z"/><path class="cls-2" d="M214.6597,83.8156h2.1674l5.59639,8.43698,5.61687-8.43698h2.14545v14.72707h-2.39865v-10.3088l-4.64803,6.98522h-1.43127l-4.62753-7.0057v10.32928h-2.42061v-14.72707h-.00005.00003Z"/><path class="cls-2" d="M247.16811,98.54267h-2.52452l-1.32591-3.17722h-7.38474l-1.30396,3.17722h-2.545l6.22713-14.72707h2.62988l6.22713,14.72707h-.00002ZM242.49813,93.26243l-2.58891-6.29005c-.10393-.23123-.1888-.44199-.27367-.77858-.10393.33659-.1888.54734-.29414.77858l-2.56548,6.29005h5.72221-.00002Z"/><path class="cls-2" d="M248.07547,97.53286v-2.35621c1.62007,1.03029,3.36601,1.4518,5.04904,1.4518,1.89374,0,3.3031-.44199,3.3031-1.83082,0-3.40698-8.43555-2.01962-8.43555-7.23694,0-2.71332,2.41913-4.01728,5.21732-4.01728,1.68303,0,3.38651.42003,4.58511,1.11517v2.29181c-1.19861-.79906-2.83916-1.24104-4.41678-1.21908-1.78838,0-2.92403.52538-2.92403,1.7869,0,3.17722,8.43553,1.89374,8.43553,7.1535,0,3.09234-2.65036,4.16507-5.57587,4.14459-1.97717,0-3.76556-.46247-5.23779-1.28348l-.00008.00004-.00002-.00002Z"/><path class="cls-2" d="M81.58008,1.33468c-2.06488,1.3513-1.71405,6.96775-2.43157,9.66236-10.42768,39.20355-37.53332,6.93187-62.22733,15.25091-6.06297,2.0409-11.9066,4.4804-16.92118,8.33496,7.22291,5.8397,14.0073,8.54626,23.54208,9.23588,24.07227,1.74591,47.93315-20.94707,56.08474,17.52298.70156,3.31246-.56998,8.04403,3.31648,8.86517,2.24413.47435,3.96618.23515,6.32603.23515V.02322c-3.3085.03986-5.0823-.39861-7.68924,1.31142,0,0,0,.00004,0,.00004ZM25.95769,38.48935c-2.51526,0-4.55621-2.0409-4.55621-4.55614,0-2.51922,2.04095-4.56014,4.55621-4.56014,2.51916,0,4.5601,2.0409,4.5601,4.56014,0,2.51524-2.04095,4.55614-4.5601,4.55614Z"/><rect class="cls-2" x="92.18081" y=".00004" width="3.39974" height="70.50193"/></svg>