<?xml version="1.0" encoding="UTF-8"?><svg id="Layer_1" xmlns="http://www.w3.org/2000/svg" viewBox="0 0 448.22956 103.46587"><defs><style>.cls-1{fill:#ecf3fe;}.cls-2{fill:#005dcc;}</style></defs><path class="cls-2" d="M195.4386,55.94354c.73614,1.1386,1.94058,1.70643,3.61481,1.70643.60148,0,1.20444-.08196,1.80594-.25027.60296-.16683,1.2059-.45223,1.8074-.85321V19.40026h24.49585v50.90003h-16.06323l-6.22421-6.22421c-2.20841,2.34305-4.81779,4.15043-7.82966,5.42075-3.01187,1.27032-6.29299,1.90838-9.83902,1.90838-5.48953,0-9.7556-1.42252-12.80111-4.26751-3.04551-2.84355-4.56754-6.84179-4.56754-11.99767V19.40024h24.49585v31.32298c0,2.34305.36733,4.08311,1.10493,5.22024l-.00002.00008Z"/><path class="cls-2" d="M263.90783,33.75706c-.73762-1.13712-1.94206-1.70643-3.61481-1.70643-.60294,0-1.20444.09952-1.80742.30001-.6015.20195-1.20444.50198-1.80742.90443v37.04522h-24.39485V19.40024h15.86127l6.32521,6.32519c2.20841-2.41037,4.81925-4.24997,7.83112-5.52173,3.01187-1.2703,6.29005-1.90838,9.83902-1.90838,5.48659,0,9.73802,1.42398,12.74989,4.26753,3.01187,2.84501,4.51778,6.84327,4.51778,11.99767v35.73978h-24.39633v-31.323c0-2.34157-.36879-4.08167-1.10349-5.22024h.00004Z"/><path class="cls-2" d="M304.56638,70.40129c-4.21631-.66882-8.13259-1.60691-11.74592-2.81135l1.70643-11.74592c3.41285,1.47227,7.04374,2.6094,10.89274,3.41285,3.84752.80346,7.44477,1.20444,10.79323,1.20444,2.80991,0,4.78413-.16539,5.92274-.50198,1.13712-.33367,1.70643-1.03617,1.70643-2.10742,0-.66882-.26783-1.25568-.80346-1.75767s-1.38884-.93665-2.55964-1.30544c-1.17224-.36587-2.96211-.7859-5.37099-1.2542-5.28756-1.06981-9.50535-2.37525-12.65037-3.91628-3.1465-1.53811-5.43831-3.3631-6.87691-5.47051-1.44008-2.1089-2.15865-4.63486-2.15865-7.58085.06584-5.95492,2.50988-10.49028,7.32913-13.6031,4.81925-3.11136,11.94791-4.66852,21.38446-4.66852,3.27822,0,6.59156.20195,9.93853.60296,3.34698.40101,6.55936,1.00395,9.6385,1.8074v12.14693c-3.34846-1.20444-6.79351-2.12351-10.341-2.76014-3.54749-.63516-6.89447-.95419-10.03953-.95419-2.6094,0-4.53534.26781-5.77198.80346-1.23956.53564-1.85714,1.37274-1.85714,2.50988,0,.67028.26635,1.18836.80198,1.55567.53562.36879,1.55715.73762,3.06307,1.10493,1.50591.36879,3.93092.88685,7.2779,1.55567,4.68462.80346,8.4487,1.9245,11.29517,3.3631,2.84355,1.44008,4.93489,3.29722,6.27397,5.57151,1.33764,2.27717,2.0079,5.05488,2.0079,8.3331,0,5.48955-2.39425,9.77318-7.17842,12.85088-4.78561,3.07919-11.563,4.61878-20.32929,4.61878-4.0158,0-8.13259-.33659-12.3489-1.00397l.00004-.00004Z"/><path class="cls-2" d="M362.39312,68.14168c-5.08708-2.17473-8.95216-5.30368-11.5952-9.38679-2.64452-4.08167-3.96604-8.83509-3.96604-14.2558,0-5.42223,1.22056-10.08929,3.66457-14.00557,2.44256-3.91482,5.99006-6.92669,10.64247-9.03556,4.65098-2.10742,10.19025-3.16258,16.61497-3.16258,6.49204,0,11.7284,1.00395,15.712,3.01185,3.98068,2.0079,6.84179,5.07098,8.58334,9.1863,1.74007,4.11679,2.4762,9.35459,2.20841,15.712h-31.42251c.80346,4.41678,2.40889,7.68036,4.81925,9.78926,2.40889,2.10742,5.82174,3.16114,10.24,3.16114,2.34157,0,4.70074-.21515,7.07742-.65126,2.37525-.43467,4.70074-1.12105,6.97791-2.05914l2.50988,10.14049c-3.41429,1.60543-7.14622,2.81135-11.19422,3.61333-4.05092.80346-8.31698,1.20592-12.80113,1.20592-6.96183,0-12.98552-1.08885-18.07112-3.26358ZM379.96226,30.19201c-.53562-1.77229-1.47227-2.65916-2.80991-2.65916-1.47371,0-2.61088,1.02005-3.41429,3.06161-.80346,2.04156-1.23956,4.90267-1.30544,8.58336l8.13259-.20051c.1332-4.08167-.06732-7.0101-.60294-8.78531v.00002Z"/><path class="cls-2" d="M441.00134,70.65156c-2.74552.50198-5.82322.7537-9.23752.7537-4.95389,0-8.95216-.5371-11.99619-1.60691-3.04699-1.06981-5.27148-2.76012-6.67643-5.06952-1.4064-2.30937-2.07522-5.33736-2.0079-9.0868v-26.30323l-4.31727-.20049v-9.73804h4.91877l.101-7.73014,23.69383-1.70643v9.43657h11.64496v9.73804l-11.64496.50198v23.99384c0,2.0767.35123,3.54897,1.05373,4.41826.70246.87077,1.99034,1.30544,3.86508,1.30544,1.80742,0,3.7802-.36735,5.92274-1.10493l1.90838,10.341c-2.07522.87077-4.48558,1.55567-7.22814,2.05766h-.00008Z"/><path class="cls-2" d="M125.03372,42.69151v27.60875h-26.7051V.02366h26.7051v32.3278L148.62637.02366h17.97081v1.4059l-21.18317,29.01381,22.28755,38.45106v1.40588h-27.90942l-14.75845-27.60875.00002-.00004Z"/><path class="cls-1" d="M124.96704.00004c-1.21864,2.57772-16.89628,7.35881-19.45578,8.37934l16.65999.55236c1.56247.0518,2.79995,1.3377,2.79177,2.90101l-.07368,14.07943c-.00886,1.69413-.96093,3.24218-2.46888,4.01438l-8.29698,2.64984,10.90536,1.19646c-.41175,6.95027-.29549,13.87329-.39501,20.8376-.02558,1.78954-10.35922,3.33322-12.65905,3.90828l10.93906,1.63043c1.18578.17675,2.06306,1.19556,2.06176,2.39445l-.0086,7.95875h-36.14867V0h36.14867l.00004.00004Z"/><path class="cls-2" d="M86.20366,83.8156h2.25085l7.93064,10.77127c-.02048-.50342-.02048-1.07273-.02048-1.61863v-9.15264h2.39719v14.72707h-2.25085l-7.93064-10.77127c.02048.5049.04244,1.07273.04244,1.59959v9.17168h-2.41915v-14.72707Z"/><path class="cls-2" d="M115.74267,98.54267h-2.52452l-1.32592-3.17722h-7.38329l-1.30544,3.17722h-2.545l6.22713-14.72707h2.62988l6.22713,14.72707h.00004ZM111.07121,93.26243l-2.58744-6.29005c-.10538-.23123-.18879-.44199-.27221-.77858-.10538.33659-.19025.54734-.29563.77858l-2.56696,6.29005h5.72224Z"/><path class="cls-2" d="M117.63935,83.8156h2.16595l5.59637,8.43698,5.61687-8.43698h2.14547v14.72707h-2.39719v-10.3088l-4.6495,6.98522h-1.4313l-4.62754-7.0057v10.32928h-2.41915v-14.72707Z"/><path class="cls-2" d="M142.65618,101.48865c0-.88393.46247-1.89374,1.26298-2.71476-.33661.02196-.69516.04244-1.05225.04244-3.28114,0-6.29007-1.4518-6.29007-5.72222v-9.27851h2.39865v9.15264c0,2.67088,1.62007,3.61773,3.8914,3.61773s3.8914-.94689,3.8914-3.61773v-9.15264h2.39865v9.27851c0,2.18789-.79906,3.63969-2.01962,4.52218-1.93472,1.4108-2.43962,2.65184-2.41915,3.3031-.02048.5049.29417.77858.82101.80054.35709-.02196.75662-.1478,1.07273-.35855v1.62007c-.5049.33659-1.11519.48443-1.74595.48443-1.47373,0-2.23035-.88393-2.20987-1.97718l.00008-.00004Z"/><path class="cls-2" d="M157.53398,83.8156h5.15294c5.21734,0,7.76378,3.09382,7.76378,7.36425s-2.54646,7.36281-7.7638,7.36281h-5.15294v-14.72707h.00002ZM162.6869,96.35477c3.49333,0,5.30222-1.87178,5.30222-5.17488s-1.80886-5.17488-5.30222-5.17488h-2.7338v10.34976h2.7338Z"/><path class="cls-2" d="M185.91683,98.54267h-2.52452l-1.32592-3.17722h-7.38329l-1.30544,3.17722h-2.545l6.22713-14.72707h2.62988l6.22713,14.72707h.00004ZM181.24537,93.26243l-2.58744-6.29005c-.10538-.23123-.18879-.44199-.27221-.77858-.10538.33659-.19025.54734-.29563.77858l-2.56696,6.29005h5.72224Z"/><path class="cls-2" d="M186.76126,96.62844l7.82526-10.60295h-7.57355v-2.20985h10.64539v1.9157l-7.8677,10.58099h8.16187v2.23033h-11.19128v-1.91422ZM188.75892,79.2305h2.31523l1.45178,1.66107,1.45032-1.66107h2.31523l-2.75574,3.15526h-2.01962l-2.75722-3.15526h.00002Z"/><path class="cls-2" d="M204.56017,93.13655l-5.78516-9.32095h2.7133l4.27045,7.13302,4.27045-7.13302h2.69284l-5.7632,9.32095v5.40611h-2.39865v-5.40611h-.00002Z"/><path class="cls-2" d="M214.6597,83.8156h2.16741l5.59639,8.43698,5.61687-8.43698h2.14545v14.72707h-2.39865v-10.3088l-4.64802,6.98522h-1.43128l-4.62754-7.0057v10.32928h-2.42061v-14.72707h-.00004Z"/><path class="cls-2" d="M247.1681,98.54267h-2.52452l-1.32592-3.17722h-7.38473l-1.30396,3.17722h-2.545l6.22713-14.72707h2.62988l6.22713,14.72707ZM242.49812,93.26243l-2.58892-6.29005c-.10392-.23123-.18879-.44199-.27367-.77858-.10392.33659-.18879.54734-.29415.77858l-2.56548,6.29005h5.72222Z"/><path class="cls-2" d="M248.07547,97.53286v-2.35621c1.62007,1.03029,3.36602,1.4518,5.04904,1.4518,1.89374,0,3.3031-.44199,3.3031-1.83082,0-3.40698-8.43554-2.01962-8.43554-7.23694,0-2.71332,2.41913-4.01728,5.21732-4.01728,1.68303,0,3.3865.42003,4.5851,1.11517v2.29181c-1.1986-.79906-2.83915-1.24104-4.41678-1.21908-1.78838,0-2.92403.52538-2.92403,1.7869,0,3.17722,8.43554,1.89374,8.43554,7.1535,0,3.09234-2.65036,4.16507-5.57587,4.14459-1.97718,0-3.76556-.46247-5.2378-1.28348l-.00008.00004Z"/><path class="cls-2" d="M81.58008,1.33468c-2.06488,1.3513-1.71405,6.96775-2.43157,9.66236-10.42768,39.20355-37.53332,6.93187-62.22733,15.25091-6.06297,2.0409-11.9066,4.4804-16.92118,8.33496,7.22291,5.8397,14.0073,8.54626,23.54208,9.23588,24.07227,1.74591,47.93315-20.94707,56.08474,17.52298.70156,3.31246-.56998,8.04403,3.31648,8.86517,2.24413.47435,3.96618.23515,6.32603.23515V.02322c-3.3085.03986-5.0823-.39861-7.68924,1.31142v.00004ZM25.95769,38.48935c-2.51526,0-4.55621-2.0409-4.55621-4.55614,0-2.51922,2.04095-4.56014,4.55621-4.56014,2.51916,0,4.5601,2.0409,4.5601,4.56014,0,2.51524-2.04095,4.55614-4.5601,4.55614Z"/><rect class="cls-2" x="92.18081" y=".00004" width="3.39974" height="70.50193"/></svg>