<?xml version="1.0" encoding="UTF-8"?><svg id="Layer_1" xmlns="http://www.w3.org/2000/svg" viewBox="0 0 740.34772 166.43622"><defs><style>.cls-1{fill:#fff;}</style></defs><path class="cls-1" d="M138.70325,39.81538V7.98864c0-4.20137-3.41533-7.61624-7.61659-7.61624H0v57.55298h4.33615c1.38075,0,2.55167.03841,3.68324.15351,22.98279,1.86094,40.99713,21.40966,40.99713,44.52687v1.26611h34.14773v42.53162h89.66799v-4.35477c0-23.11709,18.05182-42.66593,41.1114-44.52687,1.05476-.0959,2.18729-.15351,3.56802-.15351h4.35487v-57.55298h-83.1633v.00002ZM8.78657,49.44595c-.03841,0-.07681-.0192-.11522-.0192V9.04376h120.15122c.65289,0,1.18965.53722,1.18965,1.18942v84.90985H57.16986c-3.45374-24.40253-23.55888-43.70195-48.38329-45.69708ZM213.17647,88.88892c-25.95598,2.09114-46.73276,22.9637-48.84322,48.82413h-64.57475l38.02299-33.12878.90208-.72901.01967-1.22783v-54.1215h74.47322s0,40.383,0,40.38299Z"/><path class="cls-1" d="M302.04959,6.03632v23.36216h2.93198l35.51724-23.36216h16.20737l-40.17282,26.46463v2.8458l40.94843,28.44863h-16.81064l-35.00015-24.39632h-3.62143v24.39632h-12.24124V6.03632h12.24127Z"/><path class="cls-1" d="M405.733,63.79538v-7.24096h-2.24066c-3.2767,4.65557-9.65585,7.9304-19.13937,7.9304h-2.0683c-14.65616,0-21.89709-7.24096-21.89709-20.86296v-23.53452h12.06888v21.81093c0,8.27699,4.65558,13.18923,15.43176,13.18923h1.98212c10.25912,0,15.86267-5.0846,15.86267-13.18923v-21.81093h12.06888v43.70804h-12.06888Z"/><path class="cls-1" d="M465.73648,19.3979c14.48193,0,25.94754,7.15478,25.94754,22.15565v.8618c0,15.17323-11.46564,22.06947-25.94754,22.06947h-2.58725c-9.39731,0-16.03503-2.93011-20.00116-8.27511h-2.0683v28.27627h-12.06888V20.08734h12.06888v7.67186h2.0683c4.31085-5.51737,11.03473-8.36129,20.00116-8.36129,0,0,2.58725,0,2.58725,0ZM441.07974,41.55355v.8618c0,8.70789,7.8461,12.93069,18.01715,12.93069h2.50107c10.69003,0,18.01715-4.56752,18.01715-12.93069v-.8618c0-8.36317-7.32715-13.01687-18.01715-13.01687h-2.50107c-10.34531,0-18.01715,4.39516-18.01715,13.01687Z"/><path class="cls-1" d="M507.71158,1.46693c3.44907,0,6.37918,2.24067,6.37918,5.51737,0,3.361-2.93011,5.51737-6.37915,5.51737h-1.12033c-3.53525,0-6.29297-2.15636-6.29297-5.51737,0-3.2767,2.75775-5.51737,6.29297-5.51737h1.12033-.00003ZM513.14276,20.08734v43.70804h-12.06888V20.08734h12.06888Z"/><path class="cls-1" d="M551.62946,19.3979c15.60413,0,26.98358,4.22467,26.98358,14.65615v.94798h-12.06891v-.94798c0-5.17265-6.29486-7.32901-14.91467-7.32901h-2.58728c-8.96454,0-14.22339,1.72547-14.22339,5.60355,0,4.56939,5.17267,5.34501,18.87897,5.94827,19.05316.94985,26.03558,4.31085,26.03558,12.24312v.60326c0,8.79219-9.5697,13.36158-27.58685,13.36158h-2.58539c-18.10522,0-27.32831-4.56939-27.32831-14.48192v-1.03603h12.06891v.94798c0,4.91411,4.82794,7.24283,15.2594,7.24283h2.58539c11.03473,0,15.51794-1.72547,15.51794-5.86209,0-4.22467-5.34503-5.34501-19.91498-6.03445-16.81067-.68944-24.99957-3.53524-24.99957-12.15694v-.60326c0-9.22309,11.46564-13.10305,26.2923-13.10305h2.58728v.00002ZM545.25031,13.44964l-11.98273-12.93069h10.77618l7.24097,7.84422,7.32715-7.84422h10.25909l-12.15509,12.93069h-11.46564.00006Z"/><path class="cls-1" d="M601.01782,0v37.32888h3.96613l24.74103-17.24154h15.51794l-27.24213,19.31172v3.10247l28.87952,21.29385h-16.37976l-25.51666-17.93098h-3.96613v17.93098h-12.06891V0h12.06897Z"/><path class="cls-1" d="M660.05463,1.46693c3.44904,0,6.37915,2.24067,6.37915,5.51737,0,3.361-2.93011,5.51737-6.37915,5.51737h-1.1203c-3.53522,0-6.29297-2.15636-6.29297-5.51737,0-3.2767,2.75775-5.51737,6.29297-5.51737,0,0,1.1203,0,1.1203,0ZM665.48578,20.08734v43.70804h-12.06891V20.08734h12.06891Z"/><path class="cls-1" d="M707.26605,19.3979c17.41388,0,30.08606,7.4995,30.08606,22.15565v.8618c0,14.82851-12.67218,22.06947-30.08606,22.06947h-2.58728c-17.50006,0-30.08606-7.24096-30.08606-22.06947v-.8618c0-14.65615,12.586-22.15565,30.08606-22.15565,0,0,2.58728,0,2.58728,0ZM686.66162,41.55355v.8618c0,7.84609,6.12061,12.93069,18.01715,12.93069h2.58728c11.89655,0,18.01715-5.0846,18.01715-12.93069v-.8618c0-7.84422-6.12061-13.01687-18.01715-13.01687h-2.58728c-11.89655,0-18.01715,5.17265-18.01715,13.01687Z"/><path class="cls-1" d="M300.41968,104.59674v7.11918h1.82101c2.98068-4.88413,9.18936-7.78239,17.79984-7.78239h.82806c7.94727,0,13.32785,2.73339,16.39099,7.78239h2.48236c3.14743-4.88413,9.27179-7.78239,16.97177-7.78239h.82806c12.33493,0,19.61896,5.13331,19.61896,18.79277v23.84177h-11.58929v-22.51723c0-7.28405-4.30524-11.09281-12.91382-11.09281h-.82806c-8.11401,0-13.08057,3.97363-13.08057,11.25768v22.35236h-11.58929v-22.51723c0-6.95432-4.30524-11.09281-12.83139-11.09281h-.82806c-8.11212,0-13.08057,4.05606-13.08057,11.09281v22.51723h-11.58929v-41.97134h11.58929v.00002Z"/><path class="cls-1" d="M430.55087,146.56807v-6.95432h-2.15262c-3.14557,4.47009-9.27179,7.61565-18.37875,7.61565h-1.98587c-14.07349,0-21.02783-6.95245-21.02783-20.03301v-22.59966h11.58929v20.94352c0,7.94726,4.47009,12.66653,14.81915,12.66653h1.90344c9.85257,0,15.23318-4.88412,15.23318-12.66653v-20.94352h11.58929v41.97134h-11.58929Z"/><path class="cls-1" d="M502.17358,104.59674v10.26474l-34.27139,21.19269v1.98775h34.9346v8.52615h-51.73962v-10.18231l34.27139-21.27512v-1.90532h-33.69247v-8.60859s50.4975,0,50.4975,0Z"/><path class="cls-1" d="M518.05872,86.71353c3.31042,0,6.12439,2.15262,6.12439,5.29911,0,3.22986-2.81396,5.29817-6.12439,5.29817h-1.07727c-3.39471,0-6.04382-2.06831-6.04382-5.29817,0-3.14649,2.64911-5.29911,6.04382-5.29911h1.07727ZM523.27258,104.59674v41.97134h-11.58929v-41.97134h11.58929Z"/><path class="cls-1" d="M562.68475,103.93353c15.56293,0,28.06268,6.95432,28.06268,21.35943v2.56665h-47.84839c.41406,7.36648,6.62268,11.58929,17.30151,11.58929h2.48419c8.77344,0,14.89972-2.15262,16.96991-7.11919h10.59631c-1.82098,8.27885-10.43146,14.8997-27.56622,14.8997h-2.48419c-15.72968,0-28.14703-6.53841-28.14703-21.10838v-.82807c0-14.40511,12.3349-21.35943,28.14703-21.35943h2.48419ZM543.14636,121.23689h36.5907c-1.24213-6.04381-7.78052-9.52097-16.96991-9.52097h-2.56665c-9.76825,0-15.81207,3.39473-17.0542,9.52097h.00006Z"/><path class="cls-1" d="M610.93597,104.59674v45.4485c0,9.68584-4.8017,16.39098-18.29443,16.39098h-8.11212v-9.76826h6.7876c5.95953,0,8.02966-2.9807,8.02966-7.94727v-44.12395h11.58929ZM605.72211,86.71353c3.31042,0,6.12439,2.15262,6.12439,5.29911,0,3.22986-2.81396,5.29817-6.12439,5.29817h-1.07721c-3.39471,0-6.04382-2.06831-6.04382-5.29817,0-3.14649,2.64911-5.29911,6.04382-5.29911h1.07727-.00006Z"/><path class="cls-1" d="M664.52844,146.56807v-6.95432h-2.15265c-3.14557,4.47009-9.27179,7.61565-18.37872,7.61565h-1.9859c-14.07349,0-21.02783-6.95245-21.02783-20.03301v-22.59966h11.58929v20.94352c0,7.94726,4.47009,12.66653,14.81915,12.66653h1.90344c9.8526,0,15.23315-4.88412,15.23315-12.66653v-20.94352h11.58929v41.97134h-11.58929.00006Z"/><path class="cls-1" d="M713.36041,103.93353c14.98401,0,25.91199,4.05793,25.91199,14.0735v.91051h-11.58929v-.91051c0-4.96657-6.04382-7.03675-14.32269-7.03675h-2.48236c-8.61047,0-13.65948,1.65615-13.65948,5.38248,0,4.38579,4.96655,5.13143,18.12958,5.71221,18.29443.91051,24.99957,4.13849,24.99957,11.75415v.5789c0,8.4456-9.1875,12.83139-26.49084,12.83139h-2.48236c-17.3858,0-26.24353-4.38579-26.24353-13.90675v-.99294h11.59119v.91051c0,4.71927,4.63495,6.95432,14.6524,6.95432h2.48236c10.59631,0,14.90155-1.65614,14.90155-5.62978,0-4.05606-5.13141-5.13332-19.1225-5.79465-16.14368-.66321-24.00848-3.39473-24.00848-11.67359v-.5789c0-8.85776,11.01038-12.58409,25.25061-12.58409h2.48236-.00006Z"/></svg>