<?xml version="1.0" encoding="UTF-8"?><svg id="Layer_1" xmlns="http://www.w3.org/2000/svg" viewBox="0 0 444.30435 246.22857"><defs><style>.cls-1{fill:#008d3e;}.cls-2{fill:#ffd100;}</style></defs><polygon class="cls-2" points="416.05018 119.34535 417.52126 128.39884 417.6374 129.11263 419.60341 141.214 419.77071 142.24784 418.7139 142.24784 405.30097 142.24784 404.05606 142.24784 404.078 142.19923 419.74043 142.19923 416.03413 119.34386 416.05018 119.34535 416.05018 119.34535"/><path class="cls-2" d="M399.42738,153.70353h22.10261l.10375.6747,1.42759,9.36756h17.85564l-13.65185-59.13053h-19.31532l-30.80357,59.13053h17.29196l4.16218-9.49065.24147-.55161h.58555ZM404.07615,142.19923l10.33969-23.01536,1.61459.13733,3.70999,22.87803h-15.66428Z"/><polygon class="cls-2" points="337.84371 104.61526 320.7559 104.61526 312.17182 163.74579 329.26038 163.74579 331.30348 149.66853 331.59494 149.12715 342.78796 138.95802 343.72529 138.10619 344.14106 139.2374 353.13536 163.74579 374.32687 163.74579 357.25039 127.10457 356.9852 126.53653 357.47648 126.09378 381.34379 104.61526 358.84968 104.61526 336.06839 127.33291 334.64077 126.68157 337.84371 104.61526 337.84371 104.61526"/><polygon class="cls-2" points="307.93111 104.61526 259.27229 104.61526 250.68786 163.74579 300.26867 163.74579 302.02169 151.66629 270.4989 151.66629 269.57325 151.66629 269.70617 150.7454 271.44574 138.76296 271.55897 137.9816 272.33966 137.9816 300.80678 137.9816 302.36148 127.27651 274.04006 127.27651 273.1137 127.27651 273.24702 126.35562 274.65125 116.68162 274.76486 115.90058 275.54512 115.90058 306.29273 115.90058 307.93111 104.61526 307.93111 104.61526"/><polygon class="cls-2" points="204.93821 104.61526 188.63797 104.61526 180.05464 163.74579 196.02429 163.74579 200.75853 131.12864 202.35593 130.76328 220.07424 163.74579 236.53191 163.74579 245.11528 104.61526 229.10323 104.61526 224.33175 137.48702 222.73144 137.84938 204.93821 104.61526 204.93821 104.61526"/><polygon class="cls-2" points="173.32007 104.61526 156.18953 104.61526 147.6062 163.74579 164.73672 163.74579 173.32007 104.61526 173.32007 104.61526"/><polygon class="cls-2" points="115.85834 104.61526 98.75523 104.61526 90.17186 163.74579 136.60789 163.74579 138.53625 150.46263 110.12904 150.46263 109.20301 150.46263 109.33635 149.54174 115.85834 104.61526 115.85834 104.61526"/><path class="cls-1" d="M98.09291,101.92463h20.85255c-2.22796,15.28107-4.43836,30.56513-6.65676,45.84761h29.3343c-.90485,6.20603-1.80749,12.41276-2.70282,18.62013h-51.80037c3.1189-21.48914,6.23084-42.97954,9.35851-64.46774h1.61459ZM114.76027,105.55982h-15.15357l-8.30281,57.19759h44.48606l1.64751-11.35045h-29.33251c2.21297-15.28327,4.43649-30.56466,6.65532-45.84714h0ZM155.52723,101.92463h20.87959c-3.13243,21.48678-6.2579,42.9764-9.35779,64.46774h-22.49417c3.10467-21.49095,6.23013-42.97986,9.35777-64.46774h1.61461ZM172.22126,105.55982h-15.18023l-8.30279,57.19759h15.18059l8.30244-57.19759h0ZM187.97573,101.92463h18.61985l15.91479,29.72651,4.31524-29.72651h21.37635c-3.12582,21.4882-6.23993,42.9786-9.35848,64.46774h-20.3897c-5.28293-9.82596-10.55887-19.6557-15.83814-29.48362-1.42645,9.82793-2.85698,19.65507-4.27902,29.48362h-21.33399c3.11882-21.48914,6.2308-42.97954,9.35851-64.46774h1.61459ZM204.38039,105.55982h-14.8909l-8.30245,57.19759h14.01972l4.70903-32.44309,2.95892-.67753,17.79205,33.12062h15.04762l8.30277-57.19759h-14.06235l-4.74631,32.69903-2.96218.67069-17.8659-33.36972h0ZM258.60966,101.92463h52.40601l-2.41168,16.62253h-31.52794l-.87637,6.03904h29.24668c-.77259,5.34798-1.55029,10.6951-2.32877,16.04229h-29.24664l-1.21203,8.34733h32.44809c-.83874,5.80607-1.6829,11.61135-2.52781,17.41655h-54.94342c3.12586-21.48804,6.24036-42.97836,9.35891-64.46774h1.61498ZM306.8323,105.55982h-46.70849l-8.30356,57.19759h47.63048l1.47325-10.14648h-32.44958l2.26703-15.61748h29.24782l1.27342-8.77222h-29.24668l1.93133-13.30911h31.52755l1.35743-9.3523h0ZM320.09363,101.92463h20.83536c-.9498,6.57437-1.90718,13.14748-2.86135,19.72098,6.59175-6.5735,13.18826-13.1426,19.77521-19.72098h26.43645l.92494,2.72523-24.94532,22.4492,15.59305,33.45923c10.18152-19.5444,20.37216-39.08447,30.54417-58.63367h23.02417c4.98196,21.48426,9.92837,42.9775,14.88402,64.46774h-23.53385l-1.53019-10.04265h-18.6834l-4.40436,10.04265h-44.89554c-2.89131-7.90387-5.79836-15.80224-8.69809-23.7032l-8.69294,7.89805-2.2944,15.80515h-22.45251c3.13275-21.48694,6.24905-42.97726,9.35851-64.46774h1.61604ZM336.74557,105.55982h-15.13815l-8.30316,57.19759h15.13815l1.94746-13.41695.45038-.8376c4.43433-4.03618,8.87597-8.06433,13.3143-12.09641l9.67156,26.35096h19.00117c-5.66752-12.16067-11.323-24.32795-17.00043-36.48391l23.01686-20.71368h-19.58129l-22.96939,22.90509-2.69369-1.22993,3.14623-21.67516h0ZM399.44417,152.71468h22.93258l1.53129,10.04273h15.81223l-13.2047-57.19759h-17.96379l-29.79604,57.19759h15.07059l4.40326-10.04273h1.21459ZM416.64119,139.55753l-2.24725-13.83052-6.23521,13.83052h8.48246ZM417.01858,119.16853c1.30119,8.00793,2.60529,16.01531,3.90136,24.02411h-18.34145l11.27667-25.01154,3.04143.23856.12199.74887h0Z"/><path class="cls-1" d="M308.85803,194.405l-24.17497,19.11098-218.82565.22902h-.03813c-9.44094,0-18.38572-4.08425-24.5694-11.20955-6.19642-7.1507-8.97017-16.60437-7.62147-25.95624L56.60735,17.20243,78.37753,0l-25.86724,179.30201c-.55984,3.91891.55984,7.73601,3.15552,10.72612,2.5956,2.99003,6.19642,4.63136,10.15346,4.63136h.01274l243.02602-.25449Z"/><path class="cls-1" d="M267.70988,226.92678l-24.17497,19.1109-183.87392.19089h-.0636c-17.29142,0-33.70499-7.49426-45.02909-20.54876C3.23154,212.58718-1.85793,195.25755.61046,178.13146L19.59416,46.45413l21.77018-17.20243-21.85926,151.60264c-1.67953,11.64211,1.76861,23.42424,9.47915,32.31808,7.71054,8.88117,18.85649,13.97064,30.61315,13.97064h.03821l208.07429-.21628Z"/></svg>