<?xml version="1.0" encoding="UTF-8"?><svg id="Layer_1" xmlns="http://www.w3.org/2000/svg" viewBox="0 0 416.93122 366.90792"><defs><style>.cls-1{fill:#fff;}</style></defs><path class="cls-1" d="M0,158.96959h17.97677c9.42183,0,15.85966,5.17188,15.85966,14.14159,0,9.39038-6.52825,14.59175-16.41007,14.59175H4.56054v22.08715H0v-50.82049ZM4.56054,183.67904h13.01718c7.76864,0,11.50356-3.78996,11.50356-10.43026,0-6.68748-4.53105-10.2671-11.28339-10.2671H4.56054v20.69736Z"/><path class="cls-1" d="M66.16118,202.57184c0,3.10195.28896,5.9916.52289,7.21823h-4.04354c-.27717-.96125-.50913-2.64393-.61724-5.60435-1.26791,2.92307-4.54874,6.43389-11.75321,6.43389-8.57656,0-12.00089-5.65153-12.00089-11.01409,0-7.43446,5.60631-11.66475,17.01552-11.66475h6.67961v-3.67202c0-3.58552-1.0674-8.17358-8.89698-8.17358-6.84473,0-8.16375,3.45775-8.93433,6.7779h-4.17525c.48554-4.66275,3.30442-10.46368,13.23538-10.45778,8.19324.00393,12.96804,3.45775,12.96804,11.52518v18.63136ZM62.03704,191.35529h-6.79756c-8.34853,0-12.5513,2.49257-12.5513,8.0694,0,4.36003,3.00759,7.47967,8.00846,7.47967,9.64199,0,11.3404-6.44176,11.3404-14.37748v-1.17159Z"/><path class="cls-1" d="M106.17006,156.27454v43.3015c0,3.41647,0,6.85063.08649,10.21403h-4.07893c-.13564-.90818-.22016-4.01406-.22606-5.92476-1.8596,4.40328-5.68101,6.75628-11.91833,6.75628-9.48867,0-14.9849-7.80992-14.9849-18.74144,0-11.06126,6.02109-19.46484,15.98743-19.46484,6.9155,0,9.84643,2.93879,10.9158,5.22103v-21.36178h4.2185ZM79.49092,191.70715c0,9.78156,4.89471,15.06943,11.02981,15.06943,9.25474,0,11.58612-6.63243,11.58612-16.09161,0-9.57516-2.43556-14.42269-11.00622-14.42269-6.99806,0-11.60971,5.61811-11.60971,15.44488Z"/><path class="cls-1" d="M119.26194,192.12782c.03931,8.93433,4.4249,14.692,11.28339,14.692,6.63047,0,8.82424-3.90791,10.00566-6.65799h4.26764c-1.38782,4.58019-5.1306,10.47154-14.45611,10.47154-11.21459,0-15.40557-9.52208-15.40557-18.89477,0-10.22189,5.06966-19.3233,15.81051-19.3233,11.30305,0,14.84533,9.52995,14.84533,16.77569,0,.84527-.00197,2.15839-.06487,2.93683h-26.28598ZM141.27832,188.65238c-.10025-7.02558-3.67202-12.4825-10.64649-12.4825-7.45412,0-10.47154,5.60042-11.16545,12.4825h21.81194Z"/><path class="cls-1" d="M154.54122,209.79007v-53.51553h4.2185v53.51553h-4.2185Z"/><path class="cls-1" d="M212.4541,188.33786c0-9.355.10025-18.93409.31845-24.27306h-.25948c-2.21343,8.44879-10.20027,30.09757-15.84983,45.72527h-6.10168c-4.26371-12.80881-12.51788-36.93837-14.82371-45.82355h-.23392c.39315,5.84613.56614,17.06073.56614,25.73754v20.08601h-6.37885v-50.57477h10.12753c5.58076,15.45078,12.45891,35.64688,14.1868,42.2282h.11794c1.15389-4.9301,9.31961-27.07818,15.10677-42.2282h9.84447v50.57477h-6.62064v-21.45221Z"/><path class="cls-1" d="M238.95042,194.70689l-5.28197,15.08319h-6.74841c.68408-2.03258,16.90543-48.26895,17.67208-50.57477h8.39964l18.43282,50.57477h-7.22609l-5.45102-15.08319h-19.79705ZM257.0471,188.90596c-4.66669-13.13906-7.31455-20.28652-8.39178-24.20033h-.08256c-1.26987,4.64113-4.14773,13.02308-7.92,24.20033h16.39434Z"/><path class="cls-1" d="M279.2227,209.79007v-50.57477h8.94612c9.75404,16.5575,22.81054,37.53399,25.252,42.3835h.09829c-.48554-6.4968-.46392-14.53474-.46392-22.78499v-19.59851h6.39654v50.57477h-8.38785c-9.56533-16.45331-22.9619-38.66823-25.69626-43.63961h-.09436c.36366,5.87366.35777,14.4856.35777,23.60077v20.03884h-6.40834Z"/><path class="cls-1" d="M339.74219,159.2153v50.57477h-6.77593v-50.57477h6.77593Z"/><path class="cls-1" d="M365.59571,194.93098c0,10.87255-4.01013,15.57266-12.94052,15.57266-2.03258,0-3.90791-.19264-5.29179-.4993v-5.6358c1.00843.19264,3.01742.32238,4.60968.32238,6.00536,0,6.8467-4.42097,6.8467-9.50439v-35.97122h6.77593v35.71568Z"/><path class="cls-1" d="M384.45706,194.70689l-5.28197,15.08319h-6.74841c.68408-2.03258,16.90543-48.26895,17.67208-50.57477h8.39964l18.43282,50.57477h-7.22609l-5.45102-15.08319h-19.79705ZM402.55374,188.90596c-4.66669-13.13906-7.31455-20.28652-8.39178-24.20033h-.08256c-1.26987,4.64113-4.14773,13.02308-7.92,24.20033h16.39434Z"/><polygon class="cls-1" points="90.61316 0 90.61316 126.56692 95.74763 126.56692 95.74763 5.12445 321.18359 5.12445 321.18359 126.56692 326.31806 126.56692 326.31806 0 90.61316 0"/><rect class="cls-1" x="92.416" y="72.9257" width="232.09922" height="5.13239"/><rect class="cls-1" x="205.90339" y="74.41466" width="5.12445" height="52.15226"/><polygon class="cls-1" points="326.31806 366.90792 326.31806 240.341 321.18359 240.341 321.18359 361.78347 95.74763 361.78347 95.74763 240.341 90.61316 240.341 90.61316 366.90792 326.31806 366.90792"/><rect class="cls-1" x="92.416" y="288.84983" width="232.09922" height="5.13239"/><rect class="cls-1" x="205.90339" y="240.341" width="5.12445" height="52.15226"/></svg>