<?xml version="1.0" encoding="UTF-8"?><svg id="Layer_1" xmlns="http://www.w3.org/2000/svg" viewBox="0 0 419.43509 315.79254"><defs><style>.cls-1{fill:#fff;}</style></defs><polygon class="cls-1" points="419.43509 315.79254 0 315.79254 0 105.14902 33.56709 105.12731 33.5733 111.48027 6.35296 111.49578 6.35296 309.43958 413.08215 309.43958 413.08215 111.82459 385.63846 111.73774 385.65707 105.38477 419.43509 105.49024 419.43509 315.79254"/><path class="cls-1" d="M69.6647,267.90268c0,6.09549-5.09664,10.79507-13.8909,10.79507-6.04586,0-10.79507-2.10007-13.49384-4.69958l4.59721-7.29599c-.64832,6.89581,5.24864,11.19522,10.89434,11.19522,5.84733,0,7.04782-4.29941,7.04782-6.94543,0-4.4483-3.35019-5.69843-9.29679-7.09744-9.69385-2.24896-12.34299-7.29599-12.34299-11.59229,0-6.14822,5.24864-9.94511,13.29221-9.94511,5.7977,0,9.94512,1.99771,12.59425,4.54758l-4.74611,7.29597c.89959-6.84619-4.69958-11.09286-10.19638-11.09286-4.74611,0-5.99623,3.24783-5.99623,6.04585,0,5.24554,4.49795,6.79655,9.74659,7.99394,9.84275,2.24896,11.79083,7.09744,11.79082,10.79507Z"/><path class="cls-1" d="M92.38399,277.9967v-.84995l-9.09516-10.64307h-.99885v6.64456c0,2.69876.34743,4.09778,2.84767,4.64996v.19852h-9.64422l.44979-3.09894v-29.73299c0-1.99771-1.29975-1.74956-4.49795-.80032v-.29781l11.09287-5.19901-.24816,2.24896v25.23813l9.99475-9.89548c.94922-.94922,1.44865-2.00081-1.00196-2.39787l.10237-.3009h8.695l-.10237.3009c-2.09697.24815-5.44717,1.44865-9.74348,5.74495l-3.09893,3.09894,7.34561,8.49646c3.44946,3.9458,4.84848,5.29517,7.44798,6.59491h-9.54495l-.00002.00003Z"/><path class="cls-1" d="M106.22215,274.54724v-19.18918c-.70106-.44978-2.00081-.79723-3.0493-.8996v-.19853l9.64422-.75069-.24816,3.70071v16.13986c0,2.69876.44979,3.64798,1.94808,4.64685h-8.59573l.3009-3.44946-.00002.00003ZM105.52109,246.114c0-2.04733,1.60065-3.64799,3.64799-3.64799,2.05044,0,3.64799,1.60065,3.64799,3.64799,0,2.10008-1.59755,3.69762-3.64799,3.69762-2.04734,0-3.64799-1.59755-3.64799-3.69762Z"/><path class="cls-1" d="M137.75121,274.54724v-11.89319c0-5.59607-1.99771-6.89581-4.34595-6.89581-3.09892,0-5.54643,2.00082-7.44488,3.39984v14.1918c0,2.69876.44979,3.64798,1.94808,4.64685h-8.59573l.3009-3.44946v-19.18918c-.70106-.44978-2.00081-.79723-3.0493-.8996v-.19853l9.64422-.75069-.24816,3.70071v.74759c2.29861-1.59756,6.24438-4.49796,10.74234-4.49796,3.14856,0,7.39525,1.55103,7.39525,9.09515v10.79507c0,2.69876.44978,3.64798,1.95119,4.64685h-8.59573l.29781-3.44946h-.00003Z"/><path class="cls-1" d="M189.42487,267.45288l-2.64914,10.54382-.3009,1.09811-1.69681-1.09811h-26.48515v-.25125c2.04733-.74759,3.79689-1.79608,3.79689-3.59525v-28.28433c0-1.79918-1.74956-2.34824-3.79689-2.5995v-.25127h27.48401l1.84882,8.79736-.20163.09927c-3.79689-5.59607-5.74496-8.0963-12.19099-8.0963h-6.29713v16.29185h4.19705c6.19786,0,8.5461-1.34937,9.74348-5.94659v12.64078c-1.19737-4.54449-3.54562-5.89386-9.74348-5.89386h-4.19705v16.28876h6.59492c6.44601,0,9.59459-3.14856,13.69237-9.84274l.20163.09927.00002-.00003Z"/><path class="cls-1" d="M203.72214,277.79816v.19852h-9.64423l.44978-3.09894v-29.73299c0-1.99771-1.29974-1.74956-4.49796-.80032v-.29781l11.09286-5.19901-.24815,2.24896v32.03159c0,2.69876.34743,4.09778,2.84767,4.64996l.00002.00003Z"/><path class="cls-1" d="M230.43373,273.3002c-1.50137,2.79803-5.54955,5.047-10.84471,5.047-7.99704,0-13.44421-4.94775-13.44421-12.09482,0-8.04358,6.94855-12.79279,14.39343-12.79279,10.79507,0,11.69156,10.64618,5.29517,10.64618h-13.18983c.09927,7.09436,4.14742,11.79083,10.14365,11.79083,2.39787,0,5.84734-.74759,7.39525-2.79803l.25127.20163ZM212.64359,263.25583l10.04437-.09927c3.39673-.05273,1.99771-8.89664-3.79999-8.89664-3.39673,0-6.04585,3.39673-6.24438,8.99588v.00003Z"/><path class="cls-1" d="M258.80493,255.30843v24.78835c0,2.84766-9.84274,8.34448-15.49155,8.34448-2.64603,0-6.14513-1.10123-8.0932-4.5972l5.89696-1.74954c2.04733,4.34595,4.74611,4.64685,6.44601,4.64685,2.64603,0,4.895-2.34824,4.895-6.19476v-4.29941c-1.69681,1.29974-4.14742,2.10007-7.14398,2.10007-7.29597,0-12.0452-4.4483-12.0452-11.39377,0-7.29599,5.09975-13.49384,15.69318-13.49384,3.1982,0,6.64455.60179,9.84274,1.84882l.00003-.00005ZM252.45816,275.04977v-17.94217c-1.54791-1.69681-3.34709-2.69878-5.74496-2.69878-4.69647,0-7.09744,3.84962-7.09744,9.64421,0,7.24634,3.79999,12.74316,8.847,12.74316,1.69681,0,2.99657-.59869,3.99542-1.74643h-.00002Z"/><path class="cls-1" d="M291.29871,278.4465v.1489l-9.54495-1.54791s.04962,0,.04962-.04962c-1.60065.84995-3.59836,1.34937-5.94659,1.34937-7.29599,0-12.0452-4.4483-12.0452-11.39377,0-7.29599,5.09973-13.49384,15.69318-13.49384,3.19821,0,6.64456.60179,9.84274,1.84882v18.59048c0,2.69876.4498,3.54874,1.95117,4.54758h.00003ZM279.00537,276.74658c1.64719,0,2.89731-.59869,3.89615-1.69681.04962-.50253.09927-1.05161.09927-1.79919v-16.14297c-1.54791-1.69681-3.34708-2.69878-5.74496-2.69878-4.69647,0-7.09744,3.84962-7.09744,9.64421,0,7.24634,3.79999,12.69351,8.84698,12.69351v.00003Z"/><path class="cls-1" d="M314.85864,274.54724v-11.89319c0-5.59607-1.99771-6.89581-4.34595-6.89581-3.09894,0-5.54642,2.00082-7.44489,3.39984v14.1918c0,2.69876.4498,3.64798,1.94809,4.64685h-8.59573l.3009-3.44946v-19.18918c-.70105-.44978-2.00082-.79723-3.04929-.8996v-.19853l9.64423-.75069-.24817,3.70071v.74759c2.29861-1.59756,6.24438-4.49796,10.74234-4.49796,3.14856,0,7.39526,1.55103,7.39526,9.09515v10.79507c0,2.69876.4498,3.64798,1.95117,4.64685h-8.59573l.29779-3.44946h-.00003Z"/><path class="cls-1" d="M326.32065,266.20276c0-7.99393,6.6973-12.74315,14.49271-12.74315,4.39868,0,7.39526,1.55103,8.94626,3.3502l-4.99738,7.49451h-.09927c2.24588-6.74692-1.50137-10.04437-5.14938-10.09401-3.54874,0-6.69418,2.99968-6.69418,9.14479,0,7.04471,4.09778,12.54153,10.19327,12.54153,2.04733,0,4.8981-.64832,6.44601-2.59641l.25125.19852c-1.50137,2.69876-4.84848,4.84848-9.99475,4.84848-7.94742,0-13.39459-4.94775-13.39459-12.14447h.00006Z"/><path class="cls-1" d="M376.95514,273.3002c-1.50137,2.79803-5.54953,5.047-10.8447,5.047-7.99704,0-13.44421-4.94775-13.44421-12.09482,0-8.04358,6.94855-12.79279,14.39343-12.79279,10.79507,0,11.69156,10.64618,5.29517,10.64618h-13.18985c.09927,7.09436,4.14743,11.79083,10.14365,11.79083,2.39786,0,5.84732-.74759,7.39526-2.79803l.25125.20163ZM359.16498,263.25583l10.04437-.09927c3.39673-.05273,1.99771-8.89664-3.79999-8.89664-3.39673,0-6.04587,3.39673-6.24438,8.99588v.00003Z"/><path class="cls-1" d="M43.92613,198.38737l-1.53551-42.68707,3.37811-.6142c11.97695,32.24562,35.31664,59.57762,78.0037,59.57762,24.5681,0,45.75809-15.96925,45.75809-40.84445,0-30.71011-37.77345-44.83678-63.56995-55.27822-36.23795-14.43376-59.27053-27.33201-59.27053-59.88473C46.69004,22.72549,76.47885,0,121.62273,0c27.94621,0,47.90779,7.67753,59.88474,14.12666l1.22839,35.62374-3.07101.9213c-11.36275-26.7178-32.85983-45.75808-67.86937-45.75808-24.8752,0-46.06519,14.43376-46.06519,40.53736,0,28.86751,31.63142,40.53736,57.73503,51.2859,34.08823,13.51245,66.02675,27.02491,66.02675,61.72734,0,38.38765-35.62375,61.72734-71.86168,61.72734-32.24563,0-59.27053-11.36273-73.70429-21.80418h.00003Z"/><path class="cls-1" d="M222.98676,218.37952v-3.99232c9.21304-2.76392,12.28406-9.82724,12.28406-35.00954V42.41052c0-25.1823-3.07101-32.24563-12.28406-35.00954v-3.99232h142.80206l3.37811,39.92316-3.37811.9213c-10.74854-27.02491-28.86752-36.23794-60.19183-36.23794h-45.14389v93.05166h39.30896c35.00955,0,43.91547-7.06333,47.60068-20.88288h3.68521v46.37228h-3.68521c-3.68521-13.81955-12.59116-20.88288-47.60068-20.88288h-39.30896v94.28007c0,8.90593,4.9136,13.81955,13.81955,13.81955h39.92316c29.48172,0,48.2149-8.29173,59.27054-36.85214l3.37811.6142-2.45682,40.84447h-151.40089l.00002.00003Z"/></svg>