<?xml version="1.0" encoding="UTF-8"?><svg id="Layer_1" xmlns="http://www.w3.org/2000/svg" viewBox="0 0 419.4351 315.79253"><defs><style>.cls-1{fill:#cdad94;}</style></defs><polygon class="cls-1" points="419.4351 315.79253 0 315.79253 0 105.14902 33.56709 105.12731 33.5733 111.48027 6.35296 111.49578 6.35296 309.43957 413.08214 309.43957 413.08214 111.82459 385.63846 111.73774 385.65707 105.38477 419.4351 105.49024 419.4351 315.79253"/><path class="cls-1" d="M69.6647,267.90268c0,6.09549-5.09664,10.79507-13.8909,10.79507-6.04586,0-10.79507-2.10008-13.49384-4.69958l4.59721-7.29598c-.64832,6.89582,5.24864,11.19523,10.89434,11.19523,5.84733,0,7.04782-4.29942,7.04782-6.94545,0-4.44831-3.35019-5.69843-9.29679-7.09745-9.69385-2.24897-12.34299-7.29598-12.34299-11.59229,0-6.14823,5.24864-9.94512,13.29221-9.94512,5.7977,0,9.94512,1.99771,12.59425,4.54758l-4.74611,7.29598c.89959-6.84619-4.69958-11.09287-10.19638-11.09287-4.74611,0-5.99623,3.24783-5.99623,6.04586,0,5.24554,4.49795,6.79655,9.74659,7.99394,9.84275,2.24897,11.79083,7.09745,11.79083,10.79507Z"/><path class="cls-1" d="M92.38399,277.99669v-.84996l-9.09516-10.64307h-.99885v6.64455c0,2.69877.34743,4.09778,2.84767,4.64995v.19853h-9.64422l.44979-3.09893v-29.73298c0-1.99771-1.29975-1.74955-4.49795-.80032v-.2978l11.09287-5.19901-.24816,2.24897v25.23814l9.99475-9.89548c.94922-.94922,1.44865-2.00081-1.00196-2.39787l.10237-.3009h8.695l-.10237.3009c-2.09697.24816-5.44717,1.44865-9.74348,5.74496l-3.09893,3.09893,7.34561,8.49647c3.44946,3.94579,4.84848,5.29517,7.44798,6.59492h-9.54495Z"/><path class="cls-1" d="M106.22215,274.54723v-19.18917c-.70106-.44979-2.00081-.79722-3.0493-.89959v-.19853l9.64422-.75069-.24816,3.70072v16.13987c0,2.69877.44979,3.64799,1.94808,4.64684h-8.59573l.3009-3.44946ZM105.52109,246.114c0-2.04734,1.60065-3.64799,3.64799-3.64799,2.05044,0,3.64799,1.60065,3.64799,3.64799,0,2.10008-1.59755,3.69762-3.64799,3.69762-2.04734,0-3.64799-1.59755-3.64799-3.69762Z"/><path class="cls-1" d="M137.75121,274.54723v-11.89319c0-5.59607-1.99771-6.89582-4.34595-6.89582-3.09893,0-5.54643,2.00081-7.44488,3.39983v14.1918c0,2.69877.44979,3.64799,1.94808,4.64684h-8.59573l.3009-3.44946v-19.18917c-.70106-.44979-2.00081-.79722-3.0493-.89959v-.19853l9.64422-.75069-.24816,3.70072v.74759c2.29861-1.59755,6.24439-4.49795,10.74234-4.49795,3.14856,0,7.39525,1.55102,7.39525,9.09516v10.79507c0,2.69877.44979,3.64799,1.95118,4.64684h-8.59573l.2978-3.44946Z"/><path class="cls-1" d="M189.42486,267.45288l-2.64914,10.54381-.3009,1.09812-1.69681-1.09812h-26.48515v-.25126c2.04734-.74759,3.79689-1.79608,3.79689-3.59526v-28.28433c0-1.79918-1.74955-2.34824-3.79689-2.5995v-.25126h27.48401l1.84881,8.79736-.20163.09927c-3.79689-5.59607-5.74496-8.0963-12.19099-8.0963h-6.29713v16.29187h4.19705c6.19786,0,8.5461-1.34938,9.74348-5.9466v12.64078c-1.19738-4.54448-3.54562-5.89386-9.74348-5.89386h-4.19705v16.28877h6.59492c6.44602,0,9.59459-3.14856,13.69237-9.84275l.20163.09927Z"/><path class="cls-1" d="M203.72213,277.79816v.19853h-9.64422l.44979-3.09893v-29.73298c0-1.99771-1.29975-1.74955-4.49795-.80032v-.2978l11.09287-5.19901-.24816,2.24897v32.03159c0,2.69877.34743,4.09778,2.84767,4.64995Z"/><path class="cls-1" d="M230.43373,273.30021c-1.50138,2.79803-5.54954,5.04701-10.84471,5.04701-7.99704,0-13.44421-4.94774-13.44421-12.09482,0-8.04357,6.94855-12.79278,14.39343-12.79278,10.79507,0,11.69156,10.64618,5.29517,10.64618h-13.18984c.09927,7.09435,4.14742,11.79083,10.14365,11.79083,2.39787,0,5.84733-.74759,7.39525-2.79803l.25126.20163ZM212.64358,263.25583l10.04438-.09927c3.39673-.05273,1.99771-8.89663-3.79999-8.89663-3.39673,0-6.04586,3.39673-6.24439,8.99589Z"/><path class="cls-1" d="M258.80492,255.30843v24.78834c0,2.84767-9.84275,8.34447-15.49155,8.34447-2.64603,0-6.14513-1.10122-8.0932-4.59721l5.89696-1.74955c2.04734,4.34595,4.74611,4.64684,6.44602,4.64684,2.64603,0,4.89501-2.34824,4.89501-6.19476v-4.29942c-1.69681,1.29975-4.14742,2.10008-7.14398,2.10008-7.29598,0-12.04519-4.44831-12.04519-11.39376,0-7.29598,5.09974-13.49384,15.69318-13.49384,3.1982,0,6.64455.60179,9.84275,1.84881ZM252.45816,275.04976v-17.94216c-1.54791-1.69681-3.34709-2.69877-5.74496-2.69877-4.69648,0-7.09745,3.84962-7.09745,9.64422,0,7.24635,3.79999,12.74315,8.847,12.74315,1.69681,0,2.99656-.59869,3.99542-1.74644Z"/><path class="cls-1" d="M291.29871,278.44649v.1489l-9.54495-1.54791s.04963,0,.04963-.04963c-1.60065.84996-3.59836,1.34938-5.9466,1.34938-7.29598,0-12.04519-4.44831-12.04519-11.39376,0-7.29598,5.09974-13.49384,15.69318-13.49384,3.1982,0,6.64455.60179,9.84275,1.84881v18.59048c0,2.69877.44979,3.54873,1.95118,4.54758ZM279.00536,276.74657c1.64718,0,2.8973-.59869,3.89615-1.69681.04963-.50253.09927-1.05159.09927-1.79918v-16.14298c-1.54791-1.69681-3.34709-2.69877-5.74496-2.69877-4.69648,0-7.09745,3.84962-7.09745,9.64422,0,7.24635,3.79999,12.69352,8.847,12.69352Z"/><path class="cls-1" d="M314.85865,274.54723v-11.89319c0-5.59607-1.99771-6.89582-4.34595-6.89582-3.09893,0-5.54643,2.00081-7.44488,3.39983v14.1918c0,2.69877.44979,3.64799,1.94808,4.64684h-8.59573l.3009-3.44946v-19.18917c-.70106-.44979-2.00081-.79722-3.0493-.89959v-.19853l9.64422-.75069-.24816,3.70072v.74759c2.29861-1.59755,6.24439-4.49795,10.74234-4.49795,3.14856,0,7.39525,1.55102,7.39525,9.09516v10.79507c0,2.69877.44979,3.64799,1.95118,4.64684h-8.59573l.2978-3.44946Z"/><path class="cls-1" d="M326.32066,266.20276c0-7.99394,6.69729-12.74315,14.4927-12.74315,4.39868,0,7.39525,1.55102,8.94626,3.35019l-4.99737,7.49451h-.09927c2.24587-6.74692-1.50138-10.04438-5.14937-10.09401-3.54873,0-6.69419,2.99967-6.69419,9.14479,0,7.04472,4.09778,12.54152,10.19328,12.54152,2.04734,0,4.89811-.64832,6.44602-2.5964l.25126.19853c-1.50138,2.69877-4.84848,4.84848-9.99475,4.84848-7.94741,0-13.39458-4.94774-13.39458-12.14446Z"/><path class="cls-1" d="M376.95513,273.30021c-1.50138,2.79803-5.54954,5.04701-10.84471,5.04701-7.99704,0-13.44421-4.94774-13.44421-12.09482,0-8.04357,6.94855-12.79278,14.39343-12.79278,10.79507,0,11.69156,10.64618,5.29517,10.64618h-13.18984c.09927,7.09435,4.14742,11.79083,10.14365,11.79083,2.39787,0,5.84733-.74759,7.39525-2.79803l.25126.20163ZM359.16497,263.25583l10.04438-.09927c3.39673-.05273,1.99771-8.89663-3.79999-8.89663-3.39673,0-6.04586,3.39673-6.24439,8.99589Z"/><path class="cls-1" d="M43.92613,198.38738l-1.53551-42.68707,3.37811-.6142c11.97695,32.24563,35.31664,59.57763,78.00371,59.57763,24.5681,0,45.75808-15.96926,45.75808-40.84446,0-30.71012-37.77345-44.83678-63.56995-55.27822-36.23794-14.43376-59.27053-27.33201-59.27053-59.88473C46.69004,22.72549,76.47885,0,121.62273,0c27.94621,0,47.90779,7.67753,59.88473,14.12666l1.2284,35.62374-3.07101.9213c-11.36274-26.7178-32.85983-45.75808-67.86937-45.75808-24.8752,0-46.06518,14.43376-46.06518,40.53736,0,28.86751,31.63142,40.53736,57.73503,51.2859,34.08823,13.51245,66.02676,27.02491,66.02676,61.72734,0,38.38765-35.62374,61.72734-71.86168,61.72734-32.24563,0-59.27053-11.36274-73.70429-21.80419Z"/><path class="cls-1" d="M222.98676,218.37951v-3.99232c9.21304-2.76391,12.28405-9.82724,12.28405-35.00954V42.41052c0-25.1823-3.07101-32.24563-12.28405-35.00954v-3.99232h142.80206l3.37811,39.92316-3.37811.9213c-10.74854-27.02491-28.86751-36.23794-60.19184-36.23794h-45.14388v93.05166h39.30895c35.00954,0,43.91547-7.06333,47.60069-20.88288h3.68521v46.37228h-3.68521c-3.68521-13.81955-12.59115-20.88288-47.60069-20.88288h-39.30895v94.28007c0,8.90593,4.91362,13.81955,13.81955,13.81955h39.92316c29.48172,0,48.21489-8.29173,59.27053-36.85214l3.37811.6142-2.45681,40.84446h-151.40089Z"/></svg>