<?xml version="1.0" encoding="UTF-8"?><svg id="Layer_1" xmlns="http://www.w3.org/2000/svg" viewBox="0 0 1033.34804 270.75108"><defs><style>.cls-1{fill:#fff;}</style></defs><path class="cls-1" d="M91.17134,236.59094c-20.29323,0-37.18541-4.25971-50.68266-12.77914-13.49724-8.51637-23.61789-20.21989-30.36498-35.10445-6.75015-14.8815-10.1237-31.9448-10.1237-51.1838s3.37355-36.32369,10.1237-51.25408c6.74709-14.93345,16.86774-26.6828,30.36498-35.24807,13.49724-8.56527,30.38943-12.84943,50.68266-12.84943,12.2505,0,23.97541,2.15125,35.17473,6.45985,11.19932,4.30555,20.65075,10.96097,28.3543,19.9571,7.7066,8.99613,12.37273,20.58047,14.00144,34.74387h-18.23671c-1.24369-10.62484-4.80975-19.33373-10.69512-26.12971-5.88537-6.79599-13.11528-11.84408-21.68054-15.14735s-17.54-4.95337-26.9181-4.95337c-17.03886,0-30.84779,3.75857-41.42068,11.2696-10.579,7.51714-18.2856,17.63779-23.11674,30.36804-4.8342,12.73025-7.25129,26.99143-7.25129,42.78355,0,15.70044,2.4171,29.88828,7.25129,42.56964,4.83114,12.68442,12.53774,22.73478,23.11674,30.15108,10.57289,7.41936,24.38182,11.12598,41.42068,11.12598,16.84329,0,30.65222-4.11304,41.42068-12.34523s17.01441-20.76993,18.7348-37.61627h18.5209c-1.72039,14.93039-6.31623,27.20534-13.78143,36.82484-7.4652,9.6195-16.8494,16.75162-28.1404,21.3933-11.29711,4.64168-23.5476,6.96405-36.75455,6.96405Z"/><path class="cls-1" d="M268.78331,236.59094c-17.71112,0-32.09148-3.25437-43.14412-9.76312-11.0557-6.50875-19.11982-15.22069-24.19237-26.12971-5.0756-10.91208-7.61187-22.92423-7.61187-36.03951V40.75408h18.52395v119.74259c0,22.20613,4.92587,37.80879,14.78677,46.80491,9.85785,8.99613,23.73706,13.49419,41.63764,13.49419,17.99225,0,31.9448-4.49806,41.85154-13.49419,9.90674-8.99613,14.86011-24.59878,14.86011-46.80491V40.75408h18.5209v123.90452c0,13.11528-2.53933,25.12743-7.61187,36.03951-5.07254,10.90903-13.11222,19.62097-24.11903,26.12971-11.00681,6.50875-25.5094,9.76312-43.50165,9.76312Z"/><path class="cls-1" d="M371.56748,270.44498L469.82762.15305l28.62095-.15305-98.4132,270.75108-28.46789-.30611Z"/><path class="cls-1" d="M604.76237,234.59094c-20.29323,0-37.35654-4.14054-51.1838-12.41857-13.83338-8.27802-24.29015-19.83792-31.37338-34.67359-7.08323-14.83566-10.62484-32.16176-10.62484-51.97524s3.54161-37.16097,10.62484-52.04552c7.08323-14.8815,17.54-26.49029,31.37338-34.81721,13.82727-8.32692,30.89057-12.48885,51.1838-12.48885,20.19239,0,37.16097,4.16193,50.89656,12.48885,13.73254,8.32692,24.16792,19.93571,31.29698,34.81721,7.13212,14.88455,10.69818,32.23204,10.69818,52.04552s-3.56606,37.13958-10.69818,51.97524c-7.12906,14.83566-17.56445,26.39556-31.29698,34.67359-13.73559,8.27802-30.70417,12.41857-50.89656,12.41857ZM604.76237,207.31226c13.97394,0,25.26799-3.25437,33.88215-9.76312,8.61416-6.50875,14.93039-15.19624,18.95176-26.05943,4.02137-10.86319,6.02899-22.85089,6.02899-35.96617,0-13.30168-2.00763-25.38717-6.02899-36.25341-4.02137-10.86013-10.3376-19.52318-18.95176-25.98609-8.61416-6.45985-19.90821-9.68978-33.88215-9.68978-14.07173,0-25.46356,3.22993-34.17244,9.68978-8.70889,6.46291-15.02818,15.12596-18.95176,25.98609-3.92664,10.86624-5.88537,22.95173-5.88537,36.25341,0,13.11528,1.95874,25.10298,5.88537,35.96617,3.92358,10.86319,10.24287,19.55068,18.95176,26.05943,8.70889,6.50875,20.10072,9.76312,34.17244,9.76312Z"/><path class="cls-1" d="M721.57755,232.00578V38.75408h32.87986l97.48757,141.99456V38.75408h31.15336v193.2517h-32.87681l-97.63119-142.56904v142.56904h-31.0128Z"/><path class="cls-1" d="M907.00197,232.0634V38.8117h126.34607v27.56591h-93.32258v53.26782h85.28291v26.70419h-85.28291v58.14785h93.32258v27.56591h-126.34607Z"/></svg>