<?xml version="1.0" encoding="UTF-8"?><svg id="Layer_1" xmlns="http://www.w3.org/2000/svg" viewBox="0 0 599.06036 156.96187"><defs><style>.cls-1{fill:#e85102;}</style></defs><path class="cls-1" d="M52.85454,137.15829c-11.76455,0-21.55741-2.46947-29.38213-7.40842-7.82473-4.93718-13.69194-11.72203-17.60342-20.35102-3.91325-8.62722-5.86899-18.51928-5.86899-29.67266s1.95574-21.05785,5.86899-29.71341c3.91148-8.65733,9.77869-15.46876,17.60342-20.43428,7.82473-4.96552,17.61759-7.44917,29.38213-7.44917,7.10195,0,13.89921,1.24714,20.39176,3.74496,6.49256,2.49605,11.97181,6.35438,16.43777,11.56968,4.46773,5.2153,7.17281,11.93107,8.11702,20.14198h-10.57232c-.721-6.15951-2.78834-11.20829-6.20026-15.14811-3.41191-3.93982-7.60329-6.86634-12.56881-8.78134-4.96552-1.91499-10.16842-2.8716-15.60516-2.8716-9.8779,0-17.88331,2.17895-24.01271,6.5333-6.13294,4.3579-10.60067,10.22511-13.40141,17.60519-2.80252,7.38008-4.20377,15.64768-4.20377,24.8028,0,9.10198,1.40126,17.32706,4.20377,24.6788,2.80074,7.35351,7.26847,13.17998,13.40141,17.47941,6.1294,4.30121,14.13482,6.45004,24.01271,6.45004,9.76452,0,17.76994-2.38444,24.01271-7.15687,6.24277-4.77243,9.86372-12.0409,10.86108-21.80719h10.73707c-.99736,8.65556-3.66169,15.77168-7.98947,21.34837-4.32778,5.57669-9.76806,9.71137-16.31376,12.40229-6.54924,2.69091-13.6512,4.03725-21.30763,4.03725Z"/><path class="cls-1" d="M155.8211,137.15829c-10.26763,0-18.60432-1.88665-25.01184-5.65995-6.40929-3.7733-11.08429-8.82385-14.02498-15.14811-2.94247-6.32603-4.41281-13.28981-4.41281-20.8931V23.62626h10.73885v69.41808c0,12.87351,2.85566,21.9188,8.5723,27.1341,5.71487,5.2153,13.76103,7.82295,24.13849,7.82295,10.4306,0,18.51928-2.60765,24.26249-7.82295,5.74321-5.2153,8.61481-14.26059,8.61481-27.1341V23.62626h10.73707v71.83087c0,7.60329-1.47212,14.56706-4.41281,20.8931-2.94069,6.32426-7.60152,11.37482-13.98247,15.14811-6.38095,3.7733-14.7885,5.65995-25.2191,5.65995Z"/><path class="cls-1" d="M215.40791,156.78441L272.37203.08873l16.59235-.08873-57.05284,156.96187-16.50362-.17746Z"/><path class="cls-1" d="M350.59742,135.99884c-11.76455,0-21.65661-2.40039-29.67266-7.19938-8.01959-4.799-14.08167-11.50059-18.18801-20.10123-4.10634-8.60064-6.15951-18.64506-6.15951-30.13148s2.05317-21.54324,6.15951-30.17222c4.10634-8.62722,10.16842-15.35715,18.18801-20.1845,8.01605-4.82734,17.90812-7.24013,29.67266-7.24013,11.70609,0,21.54324,2.41279,29.50614,7.24013,7.96113,4.82734,14.01081,11.55728,18.14373,20.1845,4.13469,8.62899,6.20203,18.6858,6.20203,30.17222s-2.06734,21.53084-6.20203,30.13148c-4.13291,8.60064-10.18259,15.30224-18.14373,20.10123-7.9629,4.799-17.80005,7.19938-29.50614,7.19938ZM350.59742,120.18464c8.10108,0,14.64855-1.88665,19.64242-5.65995,4.99386-3.7733,8.65556-8.80968,10.98686-15.10737,2.3313-6.29769,3.49517-13.24729,3.49517-20.85058,0-7.71135-1.16388-14.71764-3.49517-21.0171-2.3313-6.29592-5.99299-11.31813-10.98686-15.06485-4.99386-3.74496-11.54134-5.61743-19.64242-5.61743-8.15777,0-14.76193,1.87248-19.81071,5.61743-5.04878,3.74673-8.71225,8.76894-10.98686,15.06485-2.27638,6.29946-3.41191,13.30575-3.41191,21.0171,0,7.60329,1.13553,14.55289,3.41191,20.85058,2.27461,6.29769,5.93808,11.33407,10.98686,15.10737s11.65294,5.65995,19.81071,5.65995Z"/><path class="cls-1" d="M418.31841,134.50015V22.46681h19.06136l56.51623,82.31816V22.46681h18.06046v112.03334h-19.05959l-56.59949-82.6512v82.6512h-17.97898Z"/><path class="cls-1" d="M525.81406,134.53355V22.50021h73.2463v15.98072h-54.10168v30.88083h49.44085v15.48116h-49.44085v33.70991h54.10168v15.98072h-73.2463Z"/></svg>