<svg width="16" height="16" viewBox="0 0 16 16" fill="none" xmlns="http://www.w3.org/2000/svg">
<g clip-path="url(#clip0_281_615)">
<path d="M16 8.0489C16 3.60361 12.4183 0 8 0C3.58168 0 0 3.60361 0 8.0489C0 12.0663 2.92549 15.3962 6.75 16V10.3755H4.71875V8.0489H6.75V6.27563C6.75 4.25837 7.94432 3.1441 9.77168 3.1441C10.647 3.1441 11.5625 3.3013 11.5625 3.3013V5.28209H10.5537C9.55992 5.28209 9.25 5.90253 9.25 6.53909V8.0489H11.4687L11.1141 10.3755H9.25V16C13.0745 15.3962 16 12.0663 16 8.0489Z" fill="#F6F6FF"/>
</g>
<defs>
<clipPath id="clip0_281_615">
<rect width="16" height="16" fill="white"/>
</clipPath>
</defs>
</svg>
