<?xml version="1.0" encoding="UTF-8"?><svg id="Layer_1" xmlns="http://www.w3.org/2000/svg" viewBox="0 0 314.76294 314.80789"><defs><style>.cls-1{fill:#f7f7f7;}</style></defs><path class="cls-1" d="M118.29486.25963c26.42929-.45731,53.09019-.26632,79.48007.22947,34.31623.64471,66.07126.64551,91.58369,27.01726,24.52032,25.34622,24.40347,56.46882,25.02562,89.56778.50494,26.86313.50491,53.91178,0,80.77009-.62414,33.20059-.51864,64.38071-25.17543,89.72521-25.51945,26.23122-57.21979,26.21698-91.43389,26.85983-26.86872.50484-53.92301.50481-80.78691,0-33.19794-.62383-64.40086-.52465-89.7439-25.17019C1.01159,263.74854,1.02223,232.07733.37871,197.84423c-.50498-26.86313-.5049-53.91179,0-80.77009C1.00268,83.88165.90392,52.68577,25.55413,27.34893,51.05284,1.13995,83.93352.85419,118.29486.25963ZM111.53489,28.52267c-21.20841.47483-45.70748.54854-62.45838,15.27798-20.09439,17.66943-19.81355,41.7368-20.42888,66.51494-.77586,31.24226-.77582,63.04977,0,94.2872.5332,21.46857.22592,44.4485,15.34277,61.46217,17.56515,19.76918,41.74895,19.49347,66.23766,20.10128,31.24971.77561,63.05712.77556,94.30683,0,24.51819-.60849,48.67922-.33965,66.23766-20.10128,15.11819-17.01518,14.80987-40.00035,15.34277-61.46217.77577-31.2432.77572-63.04399,0-94.2872-.61324-24.69913-.34028-48.72866-20.26286-66.37372-16.87028-14.94169-40.05486-14.66187-61.31757-15.18973-30.59855-.75964-62.3616-.91543-92.99999-.22947Z"/><path class="cls-1" d="M154.24557,76.75418c62.95014-2.64099,104.79123,65.98515,73.24621,120.84804-29.08301,50.581-100.91133,54.65357-135.37176,7.44042-38.14435-52.26039-2.10488-125.59376,62.12555-128.28847ZM153.01708,105.01782c-37.29329,2.72186-59.66802,43.89157-42.19383,77.0246,18.12629,34.36949,66.71806,37.76487,89.33691,6.05188,26.11546-36.61545-2.54689-86.33135-47.14308-83.07648Z"/><path class="cls-1" d="M227.85397,87.00137c-17.92062-17.91685,10.1778-44.82255,27.24744-26.16654,16.51636,18.0513-10.14367,43.26672-27.24744,26.16654Z"/></svg>