<svg width="137" height="35" viewBox="0 0 137 35" fill="none" xmlns="http://www.w3.org/2000/svg">
<g clip-path="url(#clip0_59_1794)">
<path d="M11.9992 30.3248C9.32834 30.3248 7.10514 29.7741 5.32876 28.6728C3.55237 27.5719 2.22038 26.059 1.33239 24.1349C0.443996 22.2112 0 20.0054 0 17.5184C0 15.0313 0.443996 12.8228 1.33239 10.8927C2.22038 8.96229 3.55237 7.44345 5.32876 6.33622C7.10514 5.22898 9.32834 4.67517 11.9992 4.67517C13.6115 4.67517 15.1546 4.95326 16.6285 5.51024C18.1025 6.06681 19.3464 6.92716 20.3603 8.09009C21.3745 9.25302 21.9887 10.7505 22.203 12.5814H19.8029C19.6392 11.208 19.1699 10.0822 18.3953 9.20364C17.6207 8.32513 16.6692 7.67256 15.5419 7.24554C14.4146 6.81853 13.2334 6.60522 11.9992 6.60522C9.75665 6.60522 7.93924 7.09109 6.54774 8.06204C5.15542 9.03379 4.14115 10.3421 3.50532 11.9877C2.86908 13.6334 2.55097 15.4769 2.55097 17.5184C2.55097 19.5479 2.86909 21.382 3.50532 23.0213C4.14115 24.661 5.15542 25.9603 6.54774 26.919C7.93924 27.8781 9.75665 28.3572 11.9992 28.3572C14.2159 28.3572 16.0333 27.8255 17.4506 26.7614C18.8678 25.6972 19.6899 24.0764 19.9163 21.8987H22.3538C22.1274 23.8287 21.5225 25.4155 20.54 26.659C19.5575 27.9026 18.3225 28.8245 16.8365 29.4246C15.3496 30.0246 13.7373 30.3248 11.9992 30.3248Z" fill="#E85102"/>
<path d="M35.2179 30.1579C32.8869 30.1579 30.9943 29.7372 29.5397 28.8958C28.0846 28.0544 27.0233 26.9283 26.3557 25.518C25.6877 24.1074 25.3539 22.5546 25.3539 20.8592V4.84207H27.7918V20.3212C27.7918 23.1918 28.4401 25.2087 29.7379 26.3717C31.0353 27.5346 32.862 28.1161 35.2179 28.1161C37.5859 28.1161 39.4222 27.5346 40.726 26.3717C42.0299 25.2087 42.6818 23.1918 42.6818 20.3212V4.84207H45.1193V20.8592C45.1193 22.5546 44.7851 24.1074 44.1175 25.518C43.4499 26.9283 42.3918 28.0544 40.9432 28.8958C39.4946 29.7372 37.5859 30.1579 35.2179 30.1579Z" fill="#E85102"/>
<path d="M48.1193 34.9604L61.0514 0.0197848L64.8182 0L51.866 35L48.1193 34.9604Z" fill="#E85102"/>
<path d="M80.082 30.3248C77.4112 30.3248 75.1655 29.7895 73.3457 28.7194C71.525 27.6493 70.1488 26.155 69.2166 24.2372C68.2844 22.3194 67.8182 20.0796 67.8182 17.5184C67.8182 14.9571 68.2844 12.7146 69.2166 10.7904C70.1488 8.86669 71.525 7.36603 73.3457 6.2896C75.1655 5.21318 77.4112 4.67517 80.082 4.67517C82.7396 4.67517 84.9728 5.21318 86.7806 6.2896C88.5879 7.36603 89.9613 8.86669 90.8996 10.7904C91.8383 12.7146 92.3076 14.9571 92.3076 17.5184C92.3076 20.0796 91.8383 22.3194 90.8996 24.2372C89.9613 26.155 88.5879 27.6493 86.7806 28.7194C84.9728 29.7895 82.7396 30.3248 80.082 30.3248ZM80.082 26.7985C81.9211 26.7985 83.4076 26.3778 84.5413 25.5364C85.675 24.695 86.5063 23.572 87.0355 22.1677C87.5648 20.7634 87.829 19.2138 87.829 17.5184C87.829 15.7988 87.5648 14.2366 87.0355 12.8319C86.5063 11.428 85.675 10.3081 84.5413 9.47265C83.4076 8.63759 81.9211 8.22005 80.082 8.22005C78.23 8.22005 76.7307 8.63759 75.5845 9.47265C74.4384 10.3081 73.6067 11.428 73.0903 12.8319C72.5735 14.2366 72.3157 15.7988 72.3157 17.5184C72.3157 19.2138 72.5735 20.7634 73.0903 22.1677C73.6067 23.572 74.4384 24.695 75.5845 25.5364C76.7307 26.3778 78.23 26.7985 80.082 26.7985Z" fill="#E85102"/>
<path d="M95.3076 29.9908V5.00919H99.635L112.465 23.3648V5.00919H116.566V29.9908H112.239L99.3892 11.5609V29.9908H95.3076Z" fill="#E85102"/>
<path d="M119.566 29.9908V5.00919H136.194V8.57263H123.912V15.4586H135.136V18.9106H123.912V26.4274H136.194V29.9908L119.566 29.9908Z" fill="#E85102"/>
</g>
<defs>
<clipPath id="clip0_59_1794">
<rect width="136.194" height="35" fill="white"/>
</clipPath>
</defs>
</svg>
