<svg width="21" height="16" viewBox="0 0 21 16" fill="none" xmlns="http://www.w3.org/2000/svg">
<g clip-path="url(#clip0_281_617)">
<path d="M10.2855 9.24994C9.38835 9.24994 8.53473 8.97331 7.81695 8.44993L1.43982 3.8C0.985357 3.46862 0.893253 2.84183 1.2341 2.39999C1.57493 1.95817 2.21964 1.86868 2.67408 2.19997L9.05124 6.84994C9.77798 7.37983 10.7931 7.37983 11.5198 6.84994L17.897 2.19994C18.3514 1.86855 18.9961 1.95814 19.337 2.39995C19.6778 2.84176 19.5857 3.46858 19.1313 3.79996L12.7541 8.44993C12.0363 8.97331 11.1827 9.24994 10.2855 9.24994Z" fill="#F6F6FF"/>
<path d="M17.4857 16H3.08572C1.38425 16 0 14.6542 0 13V3C0 1.34581 1.38425 0 3.08572 0H17.4857C19.1872 0 20.5714 1.34581 20.5714 3V13C20.5714 14.6542 19.1872 16 17.4857 16ZM3.08572 1.99998C2.51857 1.99998 2.05712 2.44861 2.05712 3V13C2.05712 13.5514 2.51857 14 3.08572 14H17.4857C18.0529 14 18.5143 13.5514 18.5143 13V3C18.5143 2.44861 18.0529 1.99998 17.4857 1.99998H3.08572Z" fill="#F6F6FF"/>
</g>
<defs>
<clipPath id="clip0_281_617">
<rect width="20.5714" height="16" fill="white"/>
</clipPath>
</defs>
</svg>
